<svg xmlns="http://www.w3.org/2000/svg" xmlns:xlink="http://www.w3.org/1999/xlink" version="1.1" id="waving-bear" x="0px" y="0px" viewBox="0 0 240 250" style="enable-background:new 0 0 240 200;" xml:space="preserve">
<style type="text/css">
	.st0{fill:#FFFEF0;}
	.st1{fill:#F387AE;}
</style>
<path id="bear-head" class="st0" d="M137.2,0c-15.1,0-27.4,12.3-27.4,27.4c0,0.1,0,0.3,0,0.4c-8.6-3-17.8-4.7-27.5-4.7  c-9.6,0-18.9,1.7-27.5,4.7c0-0.1,0-0.3,0-0.4C54.9,12.3,42.6,0,27.4,0S0,12.3,0,27.4V174v76h164.6v-63.1V27.4  C164.6,12.3,152.3,0,137.2,0z"></path>
<g id="bear-face">
	<path d="M82.2,147.1c-4.7,0-8.5-3.8-8.5-8.5l2,0c0,3.6,2.9,6.5,6.5,6.5c3.6,0,6.5-2.9,6.5-6.5l2,0   C90.7,143.3,86.9,147.1,82.2,147.1z"></path>
	<path d="M101.2,105.7c0,8.6-8.5,15.5-18.9,15.4c-10.4,0-18.9-7-18.8-15.6c0-8.6,8.5-15.5,18.9-15.4   C92.8,90.2,101.2,97.2,101.2,105.7z"></path>
	<rect x="62.3" y="124.5" transform="matrix(2.940183e-03 -1 1 2.940183e-03 -43.4222 207.3775)" width="40" height="2"></rect>
</g>
<g id="bear-eyes">
	<circle cx="116.9" cy="84.5" r="8.8"></circle>
	<circle cx="47.7" cy="84.5" r="8.8"></circle>
</g>
<g id="bear-wink">
	<path d="M54.5,84c0,0.2,0,0.3,0,0.5c0,3.7-3,6.8-6.8,6.8c-3.7,0-6.8-3-6.8-6.8c0-0.2,0-0.3,0-0.5h-2c0,0.2,0,0.3,0,0.5   c0,4.9,3.9,8.8,8.8,8.8c4.8,0,8.8-3.9,8.8-8.8c0-0.2,0-0.3,0-0.5H54.5z"></path>
	<path d="M123.6,84c0,0.2,0,0.3,0,0.5c0,3.7-3,6.8-6.8,6.8c-3.7,0-6.8-3-6.8-6.8c0-0.2,0-0.3,0-0.5h-2c0,0.2,0,0.3,0,0.5   c0,4.9,3.9,8.8,8.8,8.8c4.8,0,8.8-3.9,8.8-8.8c0-0.2,0-0.3,0-0.5H123.6z"></path>
</g>
<g id="bear-arm">
	<path class="st0" d="M198,224.1c-9.9,0-18-8.1-18-18V105.5c0-9.9,8.1-18,18-18s18,8.1,18,18v100.7C216,216.1,207.9,224.1,198,224.1   z"></path>
	<circle class="st1" cx="198" cy="113.2" r="9.5"></circle>
	<circle class="st1" cx="188" cy="101.1" r="3.6"></circle>
	<circle class="st1" cx="198" cy="96.1" r="3.6"></circle>
	<circle class="st1" cx="208" cy="101.1" r="3.6"></circle>
</g>
</svg>