<?xml version="1.0" encoding="utf-8"?>
<!-- Generator: Adobe Illustrator 22.1.0, SVG Export Plug-In . SVG Version: 6.00 Build 0)  -->
<svg version="1.1" id="Calendar-SVG" xmlns="http://www.w3.org/2000/svg" xmlns:xlink="http://www.w3.org/1999/xlink" x="0px" y="0px"
	 viewBox="0 0 116.2 89.3" style="enable-background:new 0 0 116.2 89.3;" xml:space="preserve">
<style type="text/css">
	.white{fill:#FFFFFF;}
	.calorange{fill:#E5B223;}
	.black{fill:#231F20;}
</style>
<g>
	<g>

			<rect x="4.9" y="32.9" transform="matrix(0.9976 -6.971426e-02 6.971426e-02 0.9976 -4.8766 4.3372)" class="white" width="109.6" height="78.3"/>
		<path class="calorange" d="M23.5,114.8L23.5,114.8c-0.6,0.1-1-0.4-1.1-0.9L17,36.2c-0.1-0.6,0.4-1,0.9-1.1c0.6-0.1,1,0.4,1.1,0.9
			l5.4,77.7C24.5,114.3,24.1,114.7,23.5,114.8z"/>
		<path class="calorange" d="M39.2,113.7C39.2,113.7,39.1,113.7,39.2,113.7c-0.6,0.1-1-0.4-1.1-0.9l-5.4-77.7c-0.1-0.6,0.4-1,0.9-1.1
			c0.6-0.1,1,0.4,1.1,0.9l5.4,77.7C40,113.1,39.7,113.7,39.2,113.7z"/>
		<path class="calorange" d="M54.8,112.6L54.8,112.6c-0.6,0.1-1-0.4-1.1-0.9L48.3,34c-0.1-0.6,0.4-1,0.9-1.1c0.6-0.1,1,0.4,1.1,0.9
			l5.4,77.7C55.7,112,55.3,112.5,54.8,112.6z"/>
		<path class="calorange" d="M70.4,111.5C70.3,111.5,70.3,111.5,70.4,111.5c-0.6,0.1-1-0.4-1.1-0.9L64,32.9c-0.1-0.6,0.4-1,0.9-1.1
			c0.6-0.1,1,0.4,1.1,0.9l5.4,77.7C71.3,111,70.9,111.4,70.4,111.5z"/>
		<path class="calorange" d="M86,110.4L86,110.4c-0.6,0.1-1-0.4-1.1-0.9l-5.4-77.7c-0.1-0.6,0.4-1,0.9-1.1c0.6-0.1,1,0.4,1.1,0.9l5.4,77.7
			C87,109.9,86.5,110.4,86,110.4z"/>
		<path class="calorange" d="M101.6,109.4L101.6,109.4c-0.6,0.1-1-0.4-1.1-0.9l-5.4-77.7c-0.1-0.6,0.4-1,0.9-1.1c0.6-0.1,1,0.4,1.1,0.9
			l5.4,77.7C102.5,108.8,102.2,109.3,101.6,109.4z"/>
		<path class="calorange" d="M116.2,92.6C116.2,92.6,116.1,92.6,116.2,92.6L6.8,100.3c-0.6,0.1-1-0.4-1.1-0.9c-0.1-0.6,0.4-1,0.9-1.1
			l109.3-7.7c0.6-0.1,1,0.4,1.1,0.9C117,92.1,116.7,92.6,116.2,92.6z"/>
		<path class="calorange" d="M115,77L115,77L5.6,84.7c-0.6,0.1-1-0.4-1.1-0.9c-0.1-0.6,0.4-1,0.9-1.1l109.3-7.7c0.6-0.1,1,0.4,1.1,0.9
			C116,76.4,115.6,77,115,77z"/>
		<path class="calorange" d="M114,61.4L114,61.4L4.6,69c-0.6,0.1-1-0.4-1.1-0.9c-0.1-0.6,0.4-1,0.9-1.1l109.3-7.7c0.6-0.1,1,0.4,1.1,0.9
			C114.9,60.9,114.6,61.3,114,61.4z"/>
		<path class="calorange" d="M112.9,45.8L112.9,45.8L3.5,53.4c-0.6,0.1-1-0.4-1.1-0.9c-0.1-0.6,0.4-1,0.9-1.1l109.3-7.7
			c0.6-0.1,1,0.4,1.1,0.9C113.8,45.2,113.4,45.7,112.9,45.8z"/>
		<path class="black" d="M2.3,36.8L1.1,18.7c-0.2-2.5,1.7-4.7,4.3-4.9l100.2-7c2.5-0.2,4.7,1.7,4.9,4.3l1.3,18.1L2.3,36.8z"/>
	</g>
	<path class="white" d="M95.1,16.3L95.1,16.3c-0.6,0.1-1-0.4-1.1-0.9L93,1.7c-0.1-0.6,0.4-1,0.9-1.1c0.6-0.1,1,0.4,1.1,0.9l1,13.9
		C96,15.8,95.6,16.3,95.1,16.3z"/>
	<path class="white" d="M17.1,21.8L17.1,21.8c-0.6,0.1-1-0.4-1.1-0.9L15,7.2c-0.1-0.6,0.4-1,0.9-1.1C16.5,6,17,6.5,17,7l1,13.8
		C18.1,21.3,17.6,21.8,17.1,21.8z"/>
</g>
</svg>
