<?xml version="1.0" encoding="utf-8"?>
<!-- Generator: Adobe Illustrator 22.1.0, SVG Export Plug-In . SVG Version: 6.00 Build 0)  -->
<svg version="1.1" id="Tour_02_Reporting-Tools" xmlns="http://www.w3.org/2000/svg" xmlns:xlink="http://www.w3.org/1999/xlink"
	 x="0px" y="0px" viewBox="0 0 154 119" style="enable-background:new 0 0 154 119;" xml:space="preserve">
<style type="text/css">
	.yellow{fill:#E6D420;}
	.black{fill:#231F20;}
</style>
<circle class="yellow" cx="7.5" cy="33" r="7"/>
<path class="black" d="M70.5,34h-50c-0.6,0-1-0.4-1-1s0.4-1,1-1h50c0.6,0,1,0.4,1,1S71.1,34,70.5,34z"/>
<path class="black" d="M92.6,37.6c-0.3,0-0.6-0.1-0.8-0.4L88.7,33c-0.3-0.4-0.2-1.1,0.2-1.4c0.4-0.3,1.1-0.2,1.4,0.2l2.1,2.8
	c1.1-2.5,2.4-4.9,3.8-7.2c0.3-0.5,0.9-0.6,1.4-0.3s0.6,0.9,0.3,1.4c-1.7,2.7-3.1,5.6-4.3,8.6c-0.1,0.3-0.4,0.6-0.8,0.6
	C92.7,37.6,92.6,37.6,92.6,37.6z"/>
<path class="black" d="M129.6,37.6c-0.3,0-0.6-0.1-0.8-0.4l-3.1-4.2c-0.3-0.4-0.2-1.1,0.2-1.4c0.4-0.3,1.1-0.2,1.4,0.2l2.1,2.8
	c1.1-2.5,2.4-4.9,3.8-7.2c0.3-0.5,0.9-0.6,1.4-0.3s0.6,0.9,0.3,1.4c-1.7,2.7-3.1,5.6-4.3,8.6c-0.1,0.3-0.4,0.6-0.8,0.6
	C129.7,37.6,129.6,37.6,129.6,37.6z"/>
<path class="black" d="M147.6,37.6c-0.3,0-0.6-0.1-0.8-0.4l-3.1-4.2c-0.3-0.4-0.2-1.1,0.2-1.4c0.4-0.3,1.1-0.2,1.4,0.2l2.1,2.8
	c1.1-2.5,2.4-4.9,3.8-7.2c0.3-0.5,0.9-0.6,1.4-0.3s0.6,0.9,0.3,1.4c-1.7,2.7-3.1,5.6-4.3,8.6c-0.1,0.3-0.4,0.6-0.8,0.6
	C147.7,37.6,147.6,37.6,147.6,37.6z"/>
<path class="black" d="M109.2,36.4c-0.3,0-0.6-0.1-0.8-0.3c-0.4-0.4-0.3-1,0.1-1.4c2-1.7,4-3.5,5.8-5.4c0.4-0.4,1-0.4,1.4,0
	s0.4,1,0,1.4c-1.9,1.9-3.9,3.8-5.9,5.5C109.7,36.3,109.5,36.4,109.2,36.4z"/>
<path class="black" d="M115.4,37.1c-0.2,0-0.5-0.1-0.7-0.3l-6.8-6.5c-0.4-0.4-0.4-1,0-1.4s1-0.4,1.4,0l6.8,6.5c0.4,0.4,0.4,1,0,1.4
	C115.9,37,115.7,37.1,115.4,37.1z"/>
<circle class="yellow" cx="7.5" cy="51" r="7"/>
<path class="black" d="M61.5,52h-41c-0.6,0-1-0.4-1-1s0.4-1,1-1h41c0.6,0,1,0.4,1,1S62.1,52,61.5,52z"/>
<path class="black" d="M111.6,55.6c-0.3,0-0.6-0.1-0.8-0.4l-3.1-4.2c-0.3-0.4-0.2-1.1,0.2-1.4c0.4-0.3,1.1-0.2,1.4,0.2l2.1,2.8
	c1.1-2.5,2.4-4.9,3.8-7.2c0.3-0.5,0.9-0.6,1.4-0.3s0.6,0.9,0.3,1.4c-1.7,2.7-3.1,5.6-4.3,8.6c-0.1,0.3-0.4,0.6-0.8,0.6
	C111.7,55.6,111.6,55.6,111.6,55.6z"/>
<path class="black" d="M129.6,55.6c-0.3,0-0.6-0.1-0.8-0.4l-3.1-4.2c-0.3-0.4-0.2-1.1,0.2-1.4c0.4-0.3,1.1-0.2,1.4,0.2l2.1,2.8
	c1.1-2.5,2.4-4.9,3.8-7.2c0.3-0.5,0.9-0.6,1.4-0.3s0.6,0.9,0.3,1.4c-1.7,2.7-3.1,5.6-4.3,8.6c-0.1,0.3-0.4,0.6-0.8,0.6
	C129.7,55.6,129.6,55.6,129.6,55.6z"/>
<path class="black" d="M147.6,55.6c-0.3,0-0.6-0.1-0.8-0.4l-3.1-4.2c-0.3-0.4-0.2-1.1,0.2-1.4c0.4-0.3,1.1-0.2,1.4,0.2l2.1,2.8
	c1.1-2.5,2.4-4.9,3.8-7.2c0.3-0.5,0.9-0.6,1.4-0.3s0.6,0.9,0.3,1.4c-1.7,2.7-3.1,5.6-4.3,8.6c-0.1,0.3-0.4,0.6-0.8,0.6
	C147.7,55.6,147.6,55.6,147.6,55.6z"/>
<path class="black" d="M90.2,54.4c-0.3,0-0.6-0.1-0.8-0.3c-0.4-0.4-0.3-1,0.1-1.4c2-1.7,4-3.5,5.8-5.4c0.4-0.4,1-0.4,1.4,0
	c0.4,0.4,0.4,1,0,1.4c-1.9,1.9-3.9,3.8-5.9,5.5C90.7,54.3,90.5,54.4,90.2,54.4z"/>
<path class="black" d="M96.4,55.1c-0.2,0-0.5-0.1-0.7-0.3l-6.8-6.5c-0.4-0.4-0.4-1,0-1.4c0.4-0.4,1-0.4,1.4,0l6.8,6.5
	c0.4,0.4,0.4,1,0,1.4C96.9,55,96.7,55.1,96.4,55.1z"/>
<circle class="yellow" cx="7.5" cy="88" r="7"/>
<path class="black" d="M61.5,89h-41c-0.6,0-1-0.4-1-1s0.4-1,1-1h41c0.6,0,1,0.4,1,1S62.1,89,61.5,89z"/>
<path class="black" d="M111.6,92.6c-0.3,0-0.6-0.1-0.8-0.4l-3.1-4.2c-0.3-0.4-0.2-1.1,0.2-1.4c0.4-0.3,1.1-0.2,1.4,0.2l2.1,2.8
	c1.1-2.5,2.4-4.9,3.8-7.2c0.3-0.5,0.9-0.6,1.4-0.3c0.5,0.3,0.6,0.9,0.3,1.4c-1.7,2.7-3.1,5.6-4.3,8.6c-0.1,0.3-0.4,0.6-0.8,0.6
	C111.7,92.6,111.6,92.6,111.6,92.6z"/>
<path class="black" d="M129.6,92.6c-0.3,0-0.6-0.1-0.8-0.4l-3.1-4.2c-0.3-0.4-0.2-1.1,0.2-1.4c0.4-0.3,1.1-0.2,1.4,0.2l2.1,2.8
	c1.1-2.5,2.4-4.9,3.8-7.2c0.3-0.5,0.9-0.6,1.4-0.3c0.5,0.3,0.6,0.9,0.3,1.4c-1.7,2.7-3.1,5.6-4.3,8.6c-0.1,0.3-0.4,0.6-0.8,0.6
	C129.7,92.6,129.6,92.6,129.6,92.6z"/>
<path class="black" d="M90.2,91.4c-0.3,0-0.6-0.1-0.8-0.3c-0.4-0.4-0.3-1,0.1-1.4c2-1.7,4-3.5,5.8-5.4c0.4-0.4,1-0.4,1.4,0
	s0.4,1,0,1.4c-1.9,1.9-3.9,3.8-5.9,5.5C90.7,91.3,90.5,91.4,90.2,91.4z"/>
<path class="black" d="M96.4,92.1c-0.2,0-0.5-0.1-0.7-0.3l-6.8-6.5c-0.4-0.4-0.4-1,0-1.4s1-0.4,1.4,0l6.8,6.5c0.4,0.4,0.4,1,0,1.4
	C96.9,92,96.7,92.1,96.4,92.1z"/>
<path class="black" d="M145.2,91.4c-0.3,0-0.6-0.1-0.8-0.3c-0.4-0.4-0.3-1,0.1-1.4c2-1.7,4-3.5,5.8-5.4c0.4-0.4,1-0.4,1.4,0
	s0.4,1,0,1.4c-1.9,1.9-3.9,3.8-5.9,5.5C145.7,91.3,145.5,91.4,145.2,91.4z"/>
<path class="black" d="M151.4,92.1c-0.2,0-0.5-0.1-0.7-0.3l-6.8-6.5c-0.4-0.4-0.4-1,0-1.4s1-0.4,1.4,0l6.8,6.5c0.4,0.4,0.4,1,0,1.4
	C151.9,92,151.7,92.1,151.4,92.1z"/>
<circle class="yellow" cx="7.5" cy="69" r="7"/>
<path class="black" d="M77.5,70h-57c-0.6,0-1-0.4-1-1s0.4-1,1-1h57c0.6,0,1,0.4,1,1S78.1,70,77.5,70z"/>
<path class="black" d="M111.6,73.6c-0.3,0-0.6-0.1-0.8-0.4l-3.1-4.2c-0.3-0.4-0.2-1.1,0.2-1.4c0.4-0.3,1.1-0.2,1.4,0.2l2.1,2.8
	c1.1-2.5,2.4-4.9,3.8-7.2c0.3-0.5,0.9-0.6,1.4-0.3s0.6,0.9,0.3,1.4c-1.7,2.7-3.1,5.6-4.3,8.6c-0.1,0.3-0.4,0.6-0.8,0.6
	C111.7,73.6,111.6,73.6,111.6,73.6z"/>
<path class="black" d="M92.6,73.6c-0.3,0-0.6-0.1-0.8-0.4L88.7,69c-0.3-0.4-0.2-1.1,0.2-1.4c0.4-0.3,1.1-0.2,1.4,0.2l2.1,2.8
	c1.1-2.5,2.4-4.9,3.8-7.2c0.3-0.5,0.9-0.6,1.4-0.3s0.6,0.9,0.3,1.4c-1.7,2.7-3.1,5.6-4.3,8.6c-0.1,0.3-0.4,0.6-0.8,0.6
	C92.7,73.6,92.6,73.6,92.6,73.6z"/>
<path class="black" d="M129.6,73.6c-0.3,0-0.6-0.1-0.8-0.4l-3.1-4.2c-0.3-0.4-0.2-1.1,0.2-1.4c0.4-0.3,1.1-0.2,1.4,0.2l2.1,2.8
	c1.1-2.5,2.4-4.9,3.8-7.2c0.3-0.5,0.9-0.6,1.4-0.3s0.6,0.9,0.3,1.4c-1.7,2.7-3.1,5.6-4.3,8.6c-0.1,0.3-0.4,0.6-0.8,0.6
	C129.7,73.6,129.6,73.6,129.6,73.6z"/>
<path class="black" d="M147.6,73.6c-0.3,0-0.6-0.1-0.8-0.4l-3.1-4.2c-0.3-0.4-0.2-1.1,0.2-1.4c0.4-0.3,1.1-0.2,1.4,0.2l2.1,2.8
	c1.1-2.5,2.4-4.9,3.8-7.2c0.3-0.5,0.9-0.6,1.4-0.3s0.6,0.9,0.3,1.4c-1.7,2.7-3.1,5.6-4.3,8.6c-0.1,0.3-0.4,0.6-0.8,0.6
	C147.7,73.6,147.6,73.6,147.6,73.6z"/>
</svg>
