<?xml version="1.0" encoding="utf-8"?>
<svg version="1.1" id="ESL-Library-Logo-Horizontal-Black" xmlns="http://www.w3.org/2000/svg" xmlns:xlink="http://www.w3.org/1999/xlink" x="0px" y="0px"
	 viewBox="0 0 278.3 60.8" style="enable-background:new 0 0 278.3 60.8;" xml:space="preserve">
<style type="text/css">
	.white{fill:#ffffff;}
	.black{fill:#231F20;}
	.black{fill:#231F20;}
</style>
<polygon id="ESL-Logo-Knockout" class="white" points="3,3.1 3.9,16.5 6.3,16.7 6.3,20.4 0.4,22.5 0,33 6.5,36.6 6.1,44.2 33.4,60.8 57.5,40.8
	58.9,31.2 55.7,29.7 62.2,24.5 64.1,14.9 56.3,13.5 57.3,3.1 31.3,0 "/>
<path id="ESL-Logo-Text" class="black" d="M81.1,30.2H94v-6.5H81.1v-7.3h13.7V10H73.1v35h22.4v-6.5H81.1V30.2z M112,24.2
	c-4.5-1.7-6.5-2.7-6.5-4.9c0-1.8,1.7-3.4,5.1-3.4s5.9,1,7.3,1.7l1.8-6.4c-2.1-0.9-5-1.8-9-1.8c-8.3,0-13.3,4.6-13.3,10.6
	c0,5.1,3.8,8.3,9.6,10.4c4.2,1.5,5.9,2.8,5.9,4.9c0,2.3-1.9,3.8-5.6,3.8c-3.4,0-6.7-1.1-8.8-2.2L97,43.4c2,1.1,5.9,2.2,9.9,2.2
	c9.6,0,14.2-5.1,14.2-10.9C121.1,29.7,118.2,26.5,112,24.2 M131.8,10h-8v35h21.9v-6.7h-13.9V10z M153.7,45.8h6.1V9.5h-6.1V45.8z
	 M165,45.8h6.1V20.7H165V45.8z M168,10.5c-2,0-3.4,1.4-3.4,3.4c0,1.9,1.3,3.4,3.3,3.4h0.1c2.1,0,3.4-1.4,3.4-3.4
	C171.4,11.8,170.1,10.5,168,10.5 M189.5,20.2c-3.4,0-5.8,1.4-7.2,3.8h-0.1V9.5h-6.1v29.4c0,2.4-0.1,5.2-0.2,7h5.2l0.3-3.6h0.1
	c1.6,2.8,4.1,4.1,7,4.1c5.3,0,10.4-4.5,10.4-13.5C198.9,25.3,195.1,20.2,189.5,20.2 M187.2,41.4c-2.2,0-4.1-1.5-4.9-4.1
	c-0.1-0.4-0.2-1-0.2-1.5v-5c0-0.6,0.1-1.2,0.2-1.7c0.6-2.5,2.6-4.2,4.8-4.2c3.8,0,5.6,3.6,5.6,8.1C192.7,38.2,190.7,41.4,187.2,41.4
	 M208,25.2h-0.2l-0.3-4.5h-5.3c0.1,2.2,0.2,4.7,0.2,7.8v17.3h6.1V32.7c0-0.8,0.1-1.5,0.2-2.1c0.6-2.8,2.6-4.6,5.3-4.6
	c0.7,0,1.2,0.1,1.6,0.2v-5.9c-0.4-0.1-0.8-0.1-1.4-0.1C211.8,20.2,209.1,22,208,25.2 M236.1,30.6c0-5.5-2.1-10.4-9.6-10.4
	c-3.7,0-6.8,1.1-8.5,2.1l1.2,4c1.6-1,3.9-1.8,6.1-1.8c3.9,0,4.7,2.5,4.7,4.4v0.5c-8.2,0-13.8,3-13.8,9.4c0,4,2.8,7.5,7.4,7.5
	c2.9,0,5.4-1.3,6.8-3.2h0.1l0.4,2.7h5.5c-0.3-1.6-0.4-3.8-0.4-5.9v-9.3C236,30.6,236.1,30.6,236.1,30.6z M230.2,37.3
	c0,0.5,0,0.9-0.2,1.3c-0.6,1.9-2.3,3.3-4.4,3.3c-1.8,0-3.3-1.1-3.3-3.7c0-4,4.2-4.8,7.9-4.8V37.3z M246.6,25.2h-0.2l-0.3-4.5h-5.3
	c0.1,2.2,0.2,4.7,0.2,7.8v17.3h6.1V32.7c0-0.8,0.1-1.5,0.2-2.1c0.6-2.8,2.6-4.6,5.3-4.6c0.7,0,1.2,0.1,1.6,0.2v-5.9
	c-0.4-0.1-0.8-0.1-1.4-0.1C250.4,20.2,247.7,22,246.6,25.2 M272,20.7l-3.5,13.5c-0.4,1.6-0.8,3.4-1.2,4.8h-0.2
	c-0.3-1.4-0.8-3.2-1.2-4.8l-4-13.5h-6.7l8.5,23.1c0.2,0.5,0.3,0.9,0.3,1.1c0,0.3-0.1,0.7-0.4,1.1c-0.7,1.5-2,4.6-3.1,5.5
	c-1.2,1-2.5,1.6-3.6,2l1.5,5.2c1.4-0.2,3.9-1.1,6.2-3.4c2.9-2.8,5.1-9,7.9-17.2l5.8-17.4C278.3,20.7,272,20.7,272,20.7z"/>
<path id="ESL-Logo-Books" class="black" d="M51.6,31.3l1.8-1.4l0.6-0.5l1.4-1.1L61,24l1.6-8.2L55,14.5l0,0l0.1-1.2L51,13.9L35.8,16l-3.9,0.5
	l-7.7-0.7L9.9,14.4l-3.5-0.3L6,6.3l26.4,3.1l23.3-3.7l0.1-1.4L31.1,1.5L4.4,4.3l0.8,10.9l2.3,0.3v0.6l9.6,2.1l18.8,4.1l2.6,0.6
	l12.1,2.6l1-0.7l9.6-6.9l-0.8,5.6l-5.8,4.3l-1,0.8l-1.2,0.9L50,31.2l-7.5-1.7l-15.4-3.4l-20-4.4l0,0l0,0v-0.1l-0.2,0.1l0,0l0,0
	l-5.3,1.8l-0.4,8.7l6.6,3.7l-0.4,7.4L33.3,59l22.9-18.9l0.1-1L33.1,56.7L9,42l0.6-5.2l2.5,1.4l21,13.2l24.2-18.8l0.1-0.6l-3.1-1.5
	l-0.1-0.2L54,30.4L51.6,31.3L51.6,31.3z M55,14.7v-0.1V14.7L55,14.7z M8.3,34.3l-5.5-2.9l0.2-6l10.4,6.7l9.2,6l17.7-7.6l0,0l8.3,2
	l-25.7,9.7L8.3,34.3z"/>
</svg>
