<?xml version="1.0" encoding="utf-8"?>
<!-- Generator: Adobe Illustrator 22.1.0, SVG Export Plug-In . SVG Version: 6.00 Build 0)  -->
<svg version="1.1" id="Tour_02_Homework" xmlns="http://www.w3.org/2000/svg" xmlns:xlink="http://www.w3.org/1999/xlink" x="0px"
	 y="0px" viewBox="0 0 297 119" style="enable-background:new 0 0 297 119;" xml:space="preserve">
<style type="text/css">
	.yellow{fill:#E6D420;}
	.black{fill:#231F20;}
</style>
<g>
	<polygon class="yellow" points="206.4,42.2 295.4,15.6 254.1,73.4 241,64.8 227.2,72.3 231.6,58.7 	"/>
	<polygon points="224,53.7 295.4,15.6 231.6,58.7 227.2,72.3 	"/>
	<path class="black" d="M254.1,74.4c-0.5,0-1-0.4-1-0.9l-2-28.5c0-0.6,0.4-1,0.9-1.1c0.5,0,1,0.4,1.1,0.9l2,28.5
		C255.1,73.9,254.7,74.3,254.1,74.4L254.1,74.4z"/>
	<path class="black" d="M206.4,43.2c-0.5,0-1-0.4-1-1c0-0.6,0.4-1,1-1l41.2-1.1c0.5-0.1,1,0.4,1,1c0,0.6-0.4,1-1,1L206.4,43.2
		L206.4,43.2z"/>
	<polygon class="yellow" points="241,64.8 231.6,58.7 227.2,72.3 	"/>
</g>
<path class="black" d="M176.8,105.7h-0.1c-0.7-0.1-1.4-0.2-2.1-0.5c-0.5-0.2-0.8-0.7-0.6-1.3c0.2-0.5,0.7-0.8,1.3-0.6
	c0.6,0.2,1.2,0.3,1.8,0.4c0.5,0.1,0.9,0.6,0.9,1.1C177.7,105.3,177.3,105.7,176.8,105.7z M182.5,104.2c-0.3,0-0.6-0.1-0.8-0.4
	c-0.3-0.4-0.3-1.1,0.2-1.4s0.9-0.8,1.2-1.2c0.3-0.4,1-0.5,1.4-0.2s0.5,1,0.2,1.4c-0.5,0.6-1,1.1-1.6,1.6
	C182.9,104.2,182.7,104.2,182.5,104.2z M169.9,102c-0.3,0-0.6-0.1-0.8-0.4c-0.3-0.4-0.6-0.8-0.9-1.3c-0.1-0.2-0.2-0.4-0.3-0.6
	c-0.3-0.5-0.1-1.1,0.4-1.4s1.1-0.1,1.4,0.4c0.1,0.2,0.2,0.3,0.3,0.5c0.2,0.4,0.5,0.7,0.7,1c0.4,0.4,0.3,1.1-0.1,1.4
	C170.4,101.9,170.2,102,169.9,102z M35.2,101L35.2,101c-0.7,0-1.4,0-2-0.1c-0.6,0-1-0.5-1-1c0-0.6,0.5-1,1-1c0.7,0,1.3,0,2,0.1
	c0.6,0,1,0.5,1,1C36.2,100.6,35.7,101,35.2,101z M41.2,100.9c-0.5,0-1-0.4-1-1s0.4-1,1-1c0.7,0,1.3-0.1,2-0.1c0.5,0,1,0.4,1.1,0.9
	c0,0.6-0.4,1-0.9,1.1C42.6,100.8,41.9,100.9,41.2,100.9L41.2,100.9z M27.2,100.5C27.2,100.5,27.1,100.5,27.2,100.5
	c-0.8-0.1-1.4-0.1-2.1-0.2c-0.5-0.1-0.9-0.6-0.9-1.1c0.1-0.5,0.6-0.9,1.1-0.9c0.7,0.1,1.3,0.2,2,0.2c0.5,0.1,1,0.5,0.9,1.1
	S27.7,100.5,27.2,100.5z M49.2,100.2c-0.5,0-0.9-0.4-1-0.9s0.3-1,0.9-1.1c0.7-0.1,1.3-0.2,2-0.3c0.5-0.1,1.1,0.3,1.1,0.8
	c0.1,0.5-0.3,1.1-0.8,1.1c-0.7,0.1-1.3,0.2-2,0.3C49.2,100.2,49.2,100.2,49.2,100.2z M19.3,99.4c-0.1,0-0.1,0-0.2,0
	c-0.7-0.1-1.3-0.3-2-0.4c-0.5-0.1-0.9-0.6-0.8-1.2c0.1-0.5,0.6-0.9,1.2-0.8s1.3,0.3,1.9,0.4c0.5,0.1,0.9,0.6,0.8,1.2
	C20.2,99.1,19.8,99.4,19.3,99.4z M97.3,98.9c-0.5,0-1-0.4-1-1s0.4-1,1-1c0.7,0,1.3,0,2-0.1c0.6,0,1,0.4,1,1s-0.4,1-1,1
	C98.7,98.9,98,98.9,97.3,98.9L97.3,98.9z M57,98.8c-0.5,0-0.9-0.3-1-0.8s0.2-1.1,0.8-1.2s1.3-0.3,1.9-0.4c0.5-0.1,1.1,0.2,1.2,0.7
	c0.1,0.5-0.2,1.1-0.7,1.2c-0.7,0.2-1.3,0.3-2,0.4C57.2,98.8,57.1,98.8,57,98.8z M91.3,98.8L91.3,98.8c-0.7,0-1.4-0.1-2.1-0.1
	c-0.6,0-1-0.5-0.9-1.1c0-0.6,0.5-1,1.1-0.9c0.7,0,1.3,0.1,2,0.1c0.6,0,1,0.5,0.9,1C92.3,98.4,91.9,98.8,91.3,98.8z M105.3,98.4
	c-0.5,0-0.9-0.4-1-0.9s0.3-1,0.9-1.1c0.7-0.1,1.3-0.1,2-0.2c0.5-0.1,1,0.3,1.1,0.9c0.1,0.5-0.3,1-0.9,1.1
	C106.7,98.3,106.1,98.4,105.3,98.4L105.3,98.4z M83.4,98c0,0-0.1,0-0.2,0c-0.7-0.1-1.3-0.2-2-0.4c-0.5-0.1-0.9-0.6-0.8-1.2
	c0.1-0.5,0.6-0.9,1.2-0.8s1.3,0.2,1.9,0.3c0.5,0.1,0.9,0.6,0.8,1.1C84.3,97.7,83.9,98,83.4,98z M11.5,97.6c-0.1,0-0.2,0-0.3,0
	c-0.6-0.2-1.3-0.4-1.9-0.6c-0.5-0.2-0.8-0.7-0.7-1.2c0.2-0.5,0.7-0.8,1.2-0.7c0.6,0.2,1.3,0.4,1.9,0.5c0.5,0.1,0.8,0.7,0.7,1.2
	C12.3,97.3,11.9,97.6,11.5,97.6z M113.2,97.3c-0.5,0-0.9-0.3-1-0.8s0.3-1.1,0.8-1.2c0.6-0.1,1.3-0.2,1.9-0.4
	c0.5-0.1,1.1,0.2,1.2,0.8c0.1,0.5-0.2,1.1-0.8,1.2C114.6,97,114,97.2,113.2,97.3C113.3,97.3,113.3,97.3,113.2,97.3z M185.6,97.2
	c-0.6,0-1-0.4-1-1s-0.1-1.2-0.2-1.8c-0.1-0.5,0.3-1.1,0.8-1.2s1.1,0.3,1.2,0.8c0.1,0.7,0.2,1.4,0.2,2.2
	C186.6,96.7,186.2,97.2,185.6,97.2z M64.8,96.8c-0.4,0-0.8-0.3-1-0.7c-0.2-0.5,0.1-1.1,0.7-1.2c0.6-0.2,1.3-0.4,1.9-0.6
	c0.5-0.2,1.1,0.1,1.3,0.6c0.2,0.5-0.1,1.1-0.6,1.3c-0.6,0.2-1.3,0.4-1.9,0.6C65,96.8,64.9,96.8,64.8,96.8z M75.7,95.9
	c-0.1,0-0.3,0-0.4-0.1c-0.4-0.2-0.9-0.4-1.3-0.7c-0.2-0.1-0.4-0.2-0.6-0.4c-0.3-0.2-0.4-0.5-0.5-0.8c-0.1,0-0.2,0.1-0.3,0.1
	c-0.5,0.2-1.1,0-1.3-0.6s0-1.1,0.6-1.3c0.6-0.2,1.2-0.5,1.8-0.8c0.5-0.2,1.1,0,1.3,0.5c0.2,0.5,0,1-0.4,1.2c0.1,0.1,0.2,0.1,0.3,0.2
	c0.4,0.2,0.7,0.4,1.1,0.6c0.5,0.2,0.7,0.8,0.5,1.3C76.4,95.7,76.1,95.9,75.7,95.9z M121,95.6c-0.4,0-0.9-0.3-1-0.8s0.2-1.1,0.7-1.2
	c0.6-0.2,1.3-0.3,1.9-0.5c0.5-0.1,1.1,0.2,1.2,0.7s-0.2,1.1-0.7,1.2c-0.6,0.2-1.3,0.3-2,0.5C121.2,95.6,121.1,95.6,121,95.6z
	 M3.9,95.1c-0.1,0-0.2,0-0.4-0.1c-0.6-0.2-1.3-0.5-1.9-0.7C1.1,94.1,0.8,93.5,1,93s0.8-0.8,1.3-0.6C3,92.7,3.6,93,4.2,93.2
	C4.7,93.4,5,94,4.8,94.5C4.7,94.9,4.3,95.1,3.9,95.1z M167.4,94.5c-0.5,0-1-0.4-1-1V93c0-0.5,0-1.1,0.1-1.7s0.5-1,1.1-0.9
	c0.5,0.1,1,0.5,0.9,1.1c0,0.5-0.1,1-0.1,1.5v0.4C168.4,94.1,167.9,94.5,167.4,94.5L167.4,94.5z M128.7,93.4c-0.4,0-0.8-0.3-1-0.7
	c-0.2-0.5,0.1-1.1,0.7-1.2c0.6-0.2,1.3-0.4,1.9-0.6c0.5-0.2,1.1,0.1,1.3,0.6s-0.1,1.1-0.6,1.3c-0.6,0.2-1.3,0.4-1.9,0.6
	C128.9,93.4,128.8,93.4,128.7,93.4z M136.3,90.9c-0.4,0-0.8-0.2-0.9-0.6c-0.2-0.5,0.1-1.1,0.6-1.3c0.6-0.2,1.2-0.5,1.9-0.7
	c0.5-0.2,1.1,0,1.3,0.6c0.2,0.5,0,1.1-0.6,1.3c-0.6,0.2-1.3,0.5-1.9,0.7C136.6,90.8,136.4,90.9,136.3,90.9z M79.6,90.8
	c-0.4,0-0.7-0.2-0.9-0.5c-0.3-0.5-0.1-1.1,0.4-1.3c0.5-0.3,1.1-0.5,1.6-0.8l0.2-0.1c0.5-0.3,1.1-0.1,1.4,0.4s0.1,1.1-0.4,1.4
	L81.7,90c-0.5,0.3-1.1,0.6-1.6,0.8C79.9,90.8,79.7,90.8,79.6,90.8z M69.6,90.8c-0.3,0-0.6-0.1-0.8-0.4c-0.4-0.6-0.8-1.2-1.1-1.8
	c-0.3-0.5-0.1-1.1,0.4-1.4s1.1-0.1,1.4,0.4s0.6,1.1,1,1.6c0.3,0.5,0.2,1.1-0.2,1.4C70,90.7,69.8,90.8,69.6,90.8z M182.9,89.8
	c-0.3,0-0.6-0.1-0.8-0.4c-0.4-0.5-0.8-0.9-1.3-1.3c-0.4-0.4-0.4-1-0.1-1.4c0.4-0.4,1-0.4,1.4-0.1c0.5,0.5,1,1,1.5,1.5
	c0.4,0.4,0.3,1.1-0.1,1.4C183.4,89.7,183.2,89.8,182.9,89.8z M143.7,87.9c-0.4,0-0.8-0.2-0.9-0.6c-0.2-0.5,0-1.1,0.5-1.3
	c0.6-0.3,1.2-0.5,1.9-0.8c0.5-0.2,1.1,0,1.3,0.6c0.2,0.5,0,1.1-0.6,1.3c-0.6,0.2-1.2,0.5-1.8,0.8C144,87.8,143.9,87.9,143.7,87.9z
	 M169,86.8c-0.1,0-0.3,0-0.4-0.1c-0.5-0.2-0.7-0.8-0.5-1.3c0.1-0.2,0.2-0.4,0.3-0.6c0.2-0.4,0.4-0.8,0.6-1.3
	c0.3-0.5,0.9-0.7,1.4-0.4c0.5,0.3,0.7,0.9,0.4,1.4c-0.2,0.4-0.4,0.8-0.6,1.2c-0.1,0.2-0.2,0.4-0.2,0.6
	C169.7,86.5,169.3,86.8,169,86.8z M86.2,86.4c-0.2,0-0.5-0.1-0.7-0.3c-0.4-0.4-0.4-1,0-1.4c0.3-0.3,0.5-0.6,0.8-0.9
	c0.1-0.2,0.2-0.3,0.3-0.5c0.3-0.5,0.9-0.6,1.4-0.4c0.5,0.3,0.6,0.9,0.4,1.4c-0.1,0.2-0.3,0.4-0.4,0.6c-0.3,0.4-0.6,0.8-0.9,1.2
	C86.8,86.3,86.5,86.4,86.2,86.4z M176.5,85.1c-0.1,0-0.3,0-0.4-0.1c-0.6-0.3-1.2-0.5-1.8-0.7c-0.5-0.2-0.8-0.8-0.6-1.3
	s0.8-0.8,1.3-0.6c0.7,0.2,1.3,0.5,1.9,0.8c0.5,0.2,0.7,0.8,0.5,1.3C177.3,84.9,176.9,85.1,176.5,85.1z M151.2,85
	c-0.4,0-0.8-0.3-0.9-0.7c-0.2-0.5,0.1-1.1,0.6-1.3c0.6-0.2,1.3-0.4,1.9-0.6c0.5-0.2,1.1,0.1,1.2,0.7c0.2,0.5-0.1,1.1-0.7,1.2
	c-0.6,0.2-1.3,0.4-1.9,0.6C151.4,85,151.3,85,151.2,85z M66.9,83.4c-0.5,0-1-0.4-1-0.9c0-0.4,0-0.7,0-1.1s0-0.7,0-1.1
	c0-0.6,0.5-1,1.1-0.9c0.5,0,1,0.5,0.9,1.1c0,0.3,0,0.6,0,0.9s0,0.6,0,0.9C67.9,82.8,67.5,83.3,66.9,83.4
	C67,83.4,66.9,83.4,66.9,83.4z M158.9,83c-0.5,0-0.9-0.3-1-0.8s0.3-1.1,0.8-1.2c0.7-0.1,1.4-0.2,2-0.3c0.5-0.1,1,0.3,1.1,0.9
	c0.1,0.5-0.3,1-0.9,1.1c-0.6,0.1-1.3,0.2-1.9,0.3C159,83,159,83,158.9,83z M168.9,82.8c-0.1,0-0.1,0-0.2,0c-0.6-0.1-1.3-0.2-1.9-0.2
	c-0.5,0-1-0.5-0.9-1.1c0-0.5,0.5-1,1.1-0.9c0.7,0.1,1.4,0.1,2.1,0.3c0.5,0.1,0.9,0.6,0.8,1.1C169.8,82.5,169.4,82.8,168.9,82.8z
	 M173.3,80.1c-0.2,0-0.5-0.1-0.7-0.3c-0.4-0.4-0.4-1-0.1-1.4c0.4-0.5,0.9-1,1.4-1.5c0.4-0.4,1-0.4,1.4,0s0.4,1,0,1.4
	c-0.5,0.5-0.9,0.9-1.3,1.4C173.8,80,173.6,80.1,173.3,80.1z M88.4,79.1c-0.5,0-0.9-0.4-1-0.8c-0.1-0.6-0.2-1.2-0.5-1.8
	c-0.2-0.5,0.1-1.1,0.6-1.3c0.5-0.2,1.1,0.1,1.3,0.6c0.2,0.7,0.4,1.4,0.5,2.1c0.1,0.5-0.3,1.1-0.8,1.1C88.5,79,88.5,79.1,88.4,79.1z
	 M68.9,75.8c-0.2,0-0.4-0.1-0.6-0.2c-0.5-0.3-0.6-0.9-0.3-1.4c0.4-0.6,0.9-1.2,1.3-1.7c0.4-0.4,1-0.4,1.4,0s0.4,1,0,1.4
	c-0.4,0.5-0.8,0.9-1.1,1.4C69.5,75.6,69.2,75.8,68.9,75.8z M179.4,74.9c-0.3,0-0.6-0.2-0.8-0.4c-0.3-0.5-0.2-1.1,0.3-1.4
	c0.6-0.4,1.2-0.7,1.7-1.1c0.5-0.3,1.1-0.1,1.4,0.4c0.3,0.5,0.1,1.1-0.4,1.4c-0.6,0.3-1.1,0.7-1.6,1
	C179.7,74.8,179.5,74.9,179.4,74.9z M84.5,72.3c-0.2,0-0.4-0.1-0.6-0.2c-0.5-0.4-1-0.7-1.5-1c-0.5-0.2-0.7-0.8-0.5-1.3
	s0.8-0.7,1.3-0.5c0.7,0.3,1.3,0.7,1.9,1.2c0.4,0.3,0.5,1,0.2,1.4C85.1,72.1,84.8,72.3,84.5,72.3z M186.4,71.2
	c-0.4,0-0.8-0.2-0.9-0.6c-0.2-0.5,0-1.1,0.6-1.3c0.6-0.3,1.3-0.5,1.9-0.7c0.5-0.2,1.1,0.1,1.3,0.6s-0.1,1.1-0.6,1.3
	c-0.6,0.2-1.2,0.4-1.8,0.7C186.7,71.2,186.6,71.2,186.4,71.2z M75.1,70.9c-0.4,0-0.8-0.3-0.9-0.7c-0.2-0.5,0.1-1.1,0.6-1.3
	c0.7-0.2,1.4-0.4,2.1-0.6c0.5-0.1,1.1,0.3,1.2,0.8s-0.3,1.1-0.8,1.2c-0.6,0.1-1.2,0.3-1.8,0.5C75.3,70.9,75.2,70.9,75.1,70.9z
	 M194.1,69.1c-0.5,0-0.9-0.3-1-0.8s0.3-1.1,0.8-1.2c0.7-0.1,1.3-0.2,2-0.3c0.5-0.1,1.1,0.3,1.1,0.8c0.1,0.5-0.3,1.1-0.8,1.1
	c-0.6,0.1-1.3,0.2-1.9,0.3C194.2,69.1,194.2,69.1,194.1,69.1z M202.1,68c-0.5,0-0.9-0.4-1-0.9s0.3-1,0.9-1.1c0.7-0.1,1.3-0.2,2-0.3
	c0.6-0.1,1.1,0.3,1.1,0.9c0.1,0.5-0.3,1.1-0.9,1.1c-0.7,0.1-1.3,0.2-2,0.3C202.1,68,202.1,68,202.1,68z M209.9,66.7
	c-0.5,0-0.9-0.3-1-0.8s0.2-1.1,0.8-1.2s1.3-0.3,1.9-0.5c0.5-0.1,1.1,0.2,1.2,0.7s-0.2,1.1-0.7,1.2c-0.7,0.2-1.3,0.3-2,0.5
	C210.1,66.7,210,66.7,209.9,66.7z M217.5,64.1c-0.4,0-0.7-0.2-0.9-0.5c-0.2-0.5-0.1-1.1,0.4-1.3c0.2-0.1,0.5-0.3,0.7-0.4
	c0.5-0.3,1.1-0.1,1.4,0.4c0.3,0.5,0.1,1.1-0.4,1.4c-0.3,0.1-0.5,0.3-0.8,0.4C217.8,64.1,217.6,64.1,217.5,64.1z"/>
</svg>
