<?xml version="1.0" encoding="utf-8"?>
<!-- Generator: Adobe Illustrator 22.1.0, SVG Export Plug-In . SVG Version: 6.00 Build 0)  -->
<svg version="1.1" id="Tour_01_Great-Teachers" xmlns="http://www.w3.org/2000/svg" xmlns:xlink="http://www.w3.org/1999/xlink" x="0px" y="0px"
	 viewBox="0 0 2138 243" style="enable-background:new 0 0 2138 243;" xml:space="preserve">
<style type="text/css">
	.black{fill:#231F20;}
	.white{fill:#FFFFFF;}
	.yellow{fill:#E6D420;}
	.st3{clip-path:url(#SVGID_2_);}
</style>
<g>
	<path class="black" d="M1502.9,78.6c0.2,2.2-1.6,4.1-4,4.3c-2.4,0.2-4.5-1.4-4.7-3.6c-0.2-2.2,1.6-4.1,4-4.3
		C1500.6,74.8,1502.7,76.4,1502.9,78.6z"/>
	<path class="black" d="M1503,79.2l-8.9,0.8c-1.6,0.1-3.1-1.1-3.2-2.7l-1-11.6c-0.1-1.6,1.1-3.1,2.7-3.2l8.9-0.8
		c1.6-0.1,3.1,1.1,3.2,2.7l1,11.6C1505.9,77.6,1504.7,79,1503,79.2z"/>
	<path class="white" d="M1513.7,36.6c-0.9-11-11.2-19-22.3-16.8c-8.6,1.7-15,9.5-15,18.3c0,5.8,2.6,11,6.7,14.4c1.9,1.6,3,3.8,3.2,6.3
		l0.2,2.8c0.2,2.8,2.8,5,5.6,4.7l11.2-1c2.8-0.2,5-2.8,4.7-5.6l-0.3-3.3c-0.2-2.3,0.4-4.7,1.9-6.5
		C1512.6,46.3,1514.2,41.6,1513.7,36.6z"/>
	<path class="black" d="M1494.4,67c-0.5,0-0.9-0.3-1-0.8l-5.8-26.1c-0.1-0.3,0-0.6,0.2-0.8c0.2-0.2,0.4-0.4,0.7-0.4
		c0.3,0,0.7-0.2,1.1-0.4c-0.1-0.1-0.1-0.2-0.1-0.4c-0.3-1-0.2-2.4,0.7-2.9c0.5-0.3,1.3-0.3,1.9,0.5c0.6,0.7,0.8,1.6,0.4,2.5
		c0,0,0,0.1-0.1,0.1c0.1,0,0.3,0,0.5,0c0.2,0,0.3,0,0.5-0.1c0,0,0,0,0-0.1c-0.3-1.1,0-2.4,0.9-2.9c0.6-0.3,1.3-0.2,1.8,0.4
		c0.6,0.7,0.8,1.6,0.5,2.5c0,0,0,0,0,0.1c0.1,0,0.2,0,0.3,0c0.1,0,0.2,0,0.3,0c-0.3-0.6-0.2-1.4,0.2-2.1c0.3-0.5,0.7-1,1.4-1
		c0.9,0,1.7,1.4,1.7,2.4c0,0.1,0,0.1,0,0.2c0.3,0,0.6,0,1-0.1c0.3,0,0.6,0.1,0.8,0.3c0.2,0.2,0.3,0.5,0.3,0.8l-1.4,26.9
		c0,0.6-0.5,1-1.1,0.9c-0.6,0-1-0.5-0.9-1.1l1.3-25.8c-0.5,0-1,0-1.3-0.1c-0.5,0.3-1.2,0.5-2.2,0.6c-1,0.1-1.7-0.1-2.2-0.3
		c-0.5,0.2-1.1,0.4-1.7,0.5c-0.9,0.1-1.6,0-2.2-0.3c-0.4,0.3-0.8,0.5-1.3,0.7l5.6,25.1c0.1,0.5-0.2,1.1-0.8,1.2
		C1494.6,67,1494.5,67,1494.4,67z"/>
	<g>
		<path class="yellow" d="M1490.8,77.3c-0.5,0-1-0.4-1-1c0-0.6,0.4-1,1-1l14.9-0.2c0.5,0,1,0.4,1,1c0,0.6-0.4,1-1,1L1490.8,77.3
			C1490.9,77.3,1490.8,77.3,1490.8,77.3z"/>
		<path class="yellow" d="M1490.4,71.9c-0.5,0-1-0.4-1-1c0-0.6,0.4-1,1-1l14.9-0.2c0.5,0,1,0.4,1,1c0,0.6-0.4,1-1,1L1490.4,71.9
			C1490.4,71.9,1490.4,71.9,1490.4,71.9z"/>
	</g>
	<path class="black" d="M1516.6,24.2c-0.3,0-0.6-0.1-0.8-0.4c-0.3-0.4-0.3-1.1,0.1-1.4l6.2-5.1c0.4-0.4,1.1-0.3,1.4,0.1
		c0.3,0.4,0.3,1.1-0.1,1.4l-6.2,5.1C1517.1,24.1,1516.8,24.2,1516.6,24.2z"/>
	<path class="black" d="M1503.9,15.4c-0.1,0-0.3,0-0.4-0.1c-0.5-0.2-0.8-0.8-0.5-1.3l5-12c0.2-0.5,0.8-0.8,1.3-0.5
		c0.5,0.2,0.8,0.8,0.5,1.3l-5,12C1504.7,15.2,1504.3,15.4,1503.9,15.4z"/>
	<path class="black" d="M1484.7,16.3c-0.4,0-0.8-0.2-0.9-0.6l-5.8-14.6c-0.2-0.5,0-1.1,0.6-1.3c0.5-0.2,1.1,0,1.3,0.6l5.8,14.6
		c0.2,0.5,0,1.1-0.6,1.3C1484.9,16.3,1484.8,16.3,1484.7,16.3z"/>
	<path class="black" d="M1466.3,61.1c-0.3,0-0.7-0.2-0.9-0.5c-0.3-0.5-0.1-1.1,0.4-1.4l7.7-4.5c0.5-0.3,1.1-0.1,1.4,0.4
		c0.3,0.5,0.1,1.1-0.4,1.4l-7.7,4.5C1466.7,61.1,1466.5,61.1,1466.3,61.1z"/>
	<path class="black" d="M1470.1,31.3c-0.1,0-0.3,0-0.4-0.1l-7.7-3.6c-0.5-0.2-0.7-0.8-0.5-1.3c0.2-0.5,0.8-0.7,1.3-0.5l7.7,3.6
		c0.5,0.2,0.7,0.8,0.5,1.3C1470.8,31.1,1470.5,31.3,1470.1,31.3z"/>
	<path class="black" d="M1527.5,52.2c-0.1,0-0.2,0-0.3,0l-7.5-2.4c-0.5-0.2-0.8-0.7-0.7-1.3c0.2-0.5,0.7-0.8,1.3-0.7l7.5,2.4
		c0.5,0.2,0.8,0.7,0.7,1.3C1528.3,51.9,1527.9,52.2,1527.5,52.2z"/>
</g>
<g>
	<path class="white" d="M988.7,191.2l-95.4-12.9c-2.4-0.3-4.1-2.5-3.7-4.9l16.1-119c0.3-2.4,2.5-4.1,4.9-3.7l95.4,12.9
		c2.4,0.3,4.1,2.5,3.7,4.9l-16.1,119C993.3,189.8,991.1,191.5,988.7,191.2z"/>
	<path class="black" d="M971.4,77.4c0,0-0.1,0-0.1,0l-52.8-7.1c-0.5-0.1-0.9-0.6-0.9-1.1c0.1-0.5,0.6-0.9,1.1-0.9l52.8,7.1
		c0.5,0.1,0.9,0.6,0.9,1.1C972.4,77,971.9,77.4,971.4,77.4z"/>
	<path class="black" d="M954.7,90.1c0,0-0.1,0-0.1,0L916.5,85c-0.5-0.1-0.9-0.6-0.9-1.1c0.1-0.5,0.6-0.9,1.1-0.9l38.1,5.1
		c0.5,0.1,0.9,0.6,0.9,1.1C955.6,89.7,955.2,90.1,954.7,90.1z"/>
	<path class="black" d="M953.7,97.5c0,0-0.1,0-0.1,0l-38.1-5.1c-0.5-0.1-0.9-0.6-0.9-1.1c0.1-0.5,0.6-0.9,1.1-0.9l38.1,5.1
		c0.5,0.1,0.9,0.6,0.9,1.1C954.7,97.1,954.2,97.5,953.7,97.5z"/>
	<path class="black" d="M952.7,104.8c0,0-0.1,0-0.1,0l-38.1-5.1c-0.5-0.1-0.9-0.6-0.9-1.1c0.1-0.5,0.6-0.9,1.1-0.9l38.1,5.1
		c0.5,0.1,0.9,0.6,0.9,1.1C953.7,104.5,953.2,104.8,952.7,104.8z"/>
	<path class="black" d="M951.7,112.2c0,0-0.1,0-0.1,0l-38.1-5.1c-0.5-0.1-0.9-0.6-0.9-1.1c0.1-0.5,0.6-0.9,1.1-0.9l38.1,5.1
		c0.5,0.1,0.9,0.6,0.9,1.1C952.7,111.8,952.2,112.2,951.7,112.2z"/>
	<path class="black" d="M975,134.1c0,0-0.1,0-0.1,0l-63.8-8.6c-0.5-0.1-0.9-0.6-0.9-1.1c0.1-0.5,0.6-0.9,1.1-0.9l63.8,8.6
		c0.5,0.1,0.9,0.6,0.9,1.1C976,133.7,975.5,134.1,975,134.1z"/>
	<path class="black" d="M982.6,142.6c0,0-0.1,0-0.1,0l-72.4-9.8c-0.5-0.1-0.9-0.6-0.9-1.1c0.1-0.5,0.6-0.9,1.1-0.9l72.4,9.8
		c0.5,0.1,0.9,0.6,0.9,1.1C983.6,142.3,983.1,142.6,982.6,142.6z"/>
	<path class="black" d="M981.6,150c0,0-0.1,0-0.1,0l-72.4-9.8c-0.5-0.1-0.9-0.6-0.9-1.1c0.1-0.5,0.6-0.9,1.1-0.9l72.4,9.8
		c0.5,0.1,0.9,0.6,0.9,1.1C982.6,149.6,982.1,150,981.6,150z"/>
	<path class="black" d="M978.5,173.3c0,0-0.1,0-0.1,0l-72.4-9.8c-0.5-0.1-0.9-0.6-0.9-1.1c0.1-0.5,0.6-0.9,1.1-0.9l72.4,9.8
		c0.5,0.1,0.9,0.6,0.9,1.1C979.4,172.9,979,173.3,978.5,173.3z"/>
	<path class="black" d="M946.3,152.7c0,0-0.1,0-0.1,0l-38.1-5.1c-0.5-0.1-0.9-0.6-0.9-1.1c0.1-0.5,0.6-0.9,1.1-0.9l38.1,5.1
		c0.5,0.1,0.9,0.6,0.9,1.1C947.2,152.3,946.8,152.7,946.3,152.7z"/>
	<path class="yellow" d="M985.6,118.3l-20.6-2.8c-1.4-0.2-2.4-1.5-2.2-2.9l2.9-21.8c0.2-1.4,1.5-2.4,2.9-2.2l20.6,2.8
		c1.4,0.2,2.4,1.5,2.2,2.9l-2.9,21.8C988.4,117.5,987.1,118.5,985.6,118.3z"/>
</g>
<g>
	<path class="white" d="M1703.3,214l-93.1-24.4c-2.3-0.6-3.7-3-3.1-5.3l30.4-116.2c0.6-2.3,3-3.7,5.3-3.1l93.1,24.4
		c2.3,0.6,3.7,3,3.1,5.3l-30.4,116.2C1708,213.2,1705.7,214.6,1703.3,214z"/>
	<path class="black" d="M1700.2,98.9c-0.1,0-0.2,0-0.3,0l-51.5-13.5c-0.5-0.1-0.9-0.7-0.7-1.2c0.1-0.5,0.7-0.9,1.2-0.7l51.5,13.5
		c0.5,0.1,0.9,0.7,0.7,1.2C1701,98.6,1700.6,98.9,1700.2,98.9z"/>
	<path class="black" d="M1682,109.5c-0.1,0-0.2,0-0.3,0l-37.1-9.7c-0.5-0.1-0.9-0.7-0.7-1.2c0.1-0.5,0.7-0.9,1.2-0.7l37.1,9.7
		c0.5,0.1,0.9,0.7,0.7,1.2C1682.9,109.2,1682.5,109.5,1682,109.5z"/>
	<path class="black" d="M1680.1,116.7c-0.1,0-0.2,0-0.3,0l-37.1-9.7c-0.5-0.1-0.9-0.7-0.7-1.2c0.1-0.5,0.7-0.9,1.2-0.7l37.1,9.7
		c0.5,0.1,0.9,0.7,0.7,1.2C1681,116.4,1680.6,116.7,1680.1,116.7z"/>
	<path class="black" d="M1678.2,123.9c-0.1,0-0.2,0-0.3,0l-37.1-9.7c-0.5-0.1-0.9-0.7-0.7-1.2c0.1-0.5,0.7-0.9,1.2-0.7l37.1,9.7
		c0.5,0.1,0.9,0.7,0.7,1.2C1679.1,123.6,1678.7,123.9,1678.2,123.9z"/>
	<path class="black" d="M1676.4,131.1c-0.1,0-0.2,0-0.3,0l-37.1-9.7c-0.5-0.1-0.9-0.7-0.7-1.2c0.1-0.5,0.7-0.9,1.2-0.7l37.1,9.7
		c0.5,0.1,0.9,0.7,0.7,1.2C1677.2,130.8,1676.8,131.1,1676.4,131.1z"/>
	<path class="black" d="M1696.8,155.7c-0.1,0-0.2,0-0.3,0l-62.3-16.3c-0.5-0.1-0.9-0.7-0.7-1.2c0.1-0.5,0.7-0.9,1.2-0.7l62.3,16.3
		c0.5,0.1,0.9,0.7,0.7,1.2C1697.7,155.4,1697.3,155.7,1696.8,155.7z"/>
	<path class="black" d="M1703.3,165.1c-0.1,0-0.2,0-0.3,0l-70.7-18.5c-0.5-0.1-0.9-0.7-0.7-1.2c0.1-0.5,0.7-0.8,1.2-0.7l70.7,18.5
		c0.5,0.1,0.9,0.7,0.7,1.2C1704.2,164.8,1703.8,165.1,1703.3,165.1z"/>
	<path class="black" d="M1701.4,172.3c-0.1,0-0.2,0-0.3,0l-70.7-18.5c-0.5-0.1-0.9-0.7-0.7-1.2c0.1-0.5,0.7-0.8,1.2-0.7l70.7,18.5
		c0.5,0.1,0.9,0.7,0.7,1.2C1702.3,172,1701.9,172.3,1701.4,172.3z"/>
	<path class="black" d="M1695.5,195c-0.1,0-0.2,0-0.3,0l-70.7-18.5c-0.5-0.1-0.9-0.7-0.7-1.2c0.1-0.5,0.7-0.8,1.2-0.7l70.7,18.5
		c0.5,0.1,0.9,0.7,0.7,1.2C1696.3,194.7,1695.9,195,1695.5,195z"/>
	<path class="black" d="M1666,170.7c-0.1,0-0.2,0-0.3,0l-37.1-9.7c-0.5-0.1-0.9-0.7-0.7-1.2c0.1-0.5,0.7-0.8,1.2-0.7l37.1,9.7
		c0.5,0.1,0.9,0.7,0.7,1.2C1666.8,170.4,1666.4,170.7,1666,170.7z"/>
	<path class="black" d="M1709.1,141.3L1689,136c-1.4-0.4-2.2-1.8-1.9-3.2l5.6-21.3c0.4-1.4,1.8-2.2,3.2-1.9l20.1,5.3
		c1.4,0.4,2.2,1.8,1.9,3.2l-5.6,21.3C1712,140.8,1710.5,141.6,1709.1,141.3z"/>
</g>
<g>
	<path class="white" d="M1581,222.5l-94.2,19.6c-2.4,0.5-4.7-1-5.2-3.4l-24.5-117.6c-0.5-2.4,1-4.7,3.4-5.2l94.2-19.6
		c2.4-0.5,4.7,1,5.2,3.4l24.5,117.6C1584.8,219.7,1583.3,222,1581,222.5z"/>
	<g>
		<path class="black" d="M1503.8,133.4l17.8,23c0.7,0.9,1.2,1.7,1.3,2.2c0.2,1.1-0.4,2.3-2,3.6c-0.9,0.7-1.7,1.2-2.3,1.3
			c-0.6,0.1-1.1,0.1-1.6-0.1c-0.4-0.2-0.8-0.4-1-0.7c-0.2-0.3-0.6-0.7-1-1.2l-3.4-4.5l-12.7,2.7l-1.3,5.5c-0.2,0.7-0.3,1.2-0.4,1.5
			c-0.1,0.3-0.3,0.7-0.6,1c-0.3,0.4-0.8,0.6-1.4,0.7c-0.6,0.1-1.5,0-2.6-0.3c-2-0.5-3.1-1.3-3.3-2.4c-0.1-0.5,0-1.4,0.3-2.5l7-28.3
			c0.2-0.8,0.6-1.5,1.2-2c0.6-0.6,1.3-0.9,2-1.1C1501.3,131.5,1502.7,132,1503.8,133.4z M1502.4,145.2l-1.7,6.9l6.1-1.3
			L1502.4,145.2z"/>
		<path class="black" d="M1535.5,136.8c-0.2-1.8,0.9-2.9,3.1-3.3c1.2-0.3,2.1-0.3,2.7-0.3c0.6,0.1,1.1,0.3,1.4,0.7
			c0.3,0.4,0.5,0.8,0.7,1.1c0.1,0.3,0.3,0.9,0.4,1.6l3.4,16.1c0.1,0.7,0.2,1.2,0.3,1.6c0,0.4,0,0.8-0.1,1.3
			c-0.3,0.9-1.2,1.5-2.9,1.9c-1.7,0.4-2.8,0.4-3.5,0.1c-0.7-0.3-1.1-0.8-1.4-1.6c-0.8,1.9-2.5,3.1-5.2,3.6c-2.7,0.6-5.4-0.1-8.1-2.1
			c-2.8-1.9-4.5-4.5-5.2-7.7c-0.7-3.2-0.1-6.2,1.6-9.1c1.8-2.9,4-4.6,6.8-5.2c1-0.2,2-0.2,3-0.1c0.9,0.2,1.6,0.4,2,0.7
			C1534.8,136.3,1535.2,136.6,1535.5,136.8z M1529.1,148.1c0.2,1,0.8,1.8,1.8,2.5c1,0.6,2,0.8,3.2,0.6c1.1-0.2,2-0.9,2.6-1.8
			c0.6-1,0.8-2,0.5-3c-0.2-1-0.8-1.8-1.7-2.5c-0.9-0.7-2-0.9-3.2-0.7c-1.2,0.3-2.1,0.9-2.7,1.9
			C1529.1,146.1,1528.9,147.1,1529.1,148.1z"/>
	</g>
	<path class="yellow" d="M1491.7,197.9c-0.5,0-0.9-0.3-1-0.8c-0.1-0.5,0.2-1.1,0.8-1.2l68.4-14.5c0.5-0.1,1.1,0.2,1.2,0.8
		c0.1,0.5-0.2,1.1-0.8,1.2l-68.4,14.5C1491.8,197.9,1491.7,197.9,1491.7,197.9z"/>
	<g>
		<path class="yellow" d="M1494,208.9c-0.5,0-0.9-0.3-1-0.8c-0.1-0.5,0.2-1.1,0.8-1.2l2-0.4c0.5-0.1,1.1,0.2,1.2,0.8
			c0.1,0.5-0.2,1.1-0.8,1.2l-2,0.4C1494.1,208.9,1494.1,208.9,1494,208.9z"/>
		<path class="yellow" d="M1508.9,205.8c-0.5,0-0.9-0.3-1-0.8c-0.1-0.5,0.2-1.1,0.8-1.2l4.3-0.9c0.5-0.1,1.1,0.2,1.2,0.8
			c0.1,0.5-0.2,1.1-0.8,1.2l-4.3,0.9C1509,205.8,1508.9,205.8,1508.9,205.8z M1526.1,202.1c-0.5,0-0.9-0.3-1-0.8
			c-0.1-0.5,0.2-1.1,0.8-1.2l4.3-0.9c0.5-0.1,1.1,0.2,1.2,0.8c0.1,0.5-0.2,1.1-0.8,1.2l-4.3,0.9
			C1526.2,202.1,1526.1,202.1,1526.1,202.1z M1543.3,198.5c-0.5,0-0.9-0.3-1-0.8c-0.1-0.5,0.2-1.1,0.8-1.2l4.3-0.9
			c0.5-0.1,1.1,0.2,1.2,0.8c0.1,0.5-0.2,1.1-0.8,1.2l-4.3,0.9C1543.4,198.5,1543.4,198.5,1543.3,198.5z"/>
		<path class="yellow" d="M1560.5,194.9c-0.5,0-0.9-0.3-1-0.8c-0.1-0.5,0.2-1.1,0.8-1.2l2-0.4c0.5-0.1,1.1,0.2,1.2,0.8
			c0.1,0.5-0.2,1.1-0.8,1.2l-2,0.4C1560.6,194.8,1560.6,194.9,1560.5,194.9z"/>
	</g>
	<path class="yellow" d="M1496.3,219.9c-0.5,0-0.9-0.3-1-0.8c-0.1-0.5,0.2-1.1,0.8-1.2l68.4-14.5c0.5-0.1,1.1,0.2,1.2,0.8
		c0.1,0.5-0.2,1.1-0.8,1.2l-68.4,14.5C1496.5,219.9,1496.4,219.9,1496.3,219.9z"/>
</g>
<g>
	<path class="white" d="M1335,176.5l-96.1-5.1c-2.4-0.1-4.3-2.2-4.1-4.6l6.3-119.9c0.1-2.4,2.2-4.3,4.6-4.1l96.1,5.1
		c2.4,0.1,4.3,2.2,4.1,4.6l-6.3,119.9C1339.4,174.8,1337.4,176.7,1335,176.5z"/>
	<path class="yellow" d="M1262.4,157.6C1262.4,157.6,1262.4,157.6,1262.4,157.6c-0.6,0-1-0.5-1-1.1l5-95.3c0-0.6,0.5-1,1.1-0.9
		c0.6,0,1,0.5,0.9,1.1l-5,95.3C1263.4,157.2,1263,157.6,1262.4,157.6z"/>
	<path class="yellow" d="M1290.4,159C1290.3,159,1290.3,159,1290.4,159c-0.6,0-1-0.5-1-1.1l5-95.3c0-0.6,0.5-1,1.1-0.9
		c0.6,0,1,0.5,0.9,1.1l-5,95.3C1291.3,158.6,1290.9,159,1290.4,159z"/>
	<path class="yellow" d="M1308.5,160C1308.5,160,1308.5,160,1308.5,160c-0.6,0-1-0.5-1-1.1l5-95.3c0-0.6,0.5-1,1.1-0.9
		c0.6,0,1,0.5,0.9,1.1l-5,95.3C1309.5,159.6,1309,160,1308.5,160z"/>
	<path class="yellow" d="M1325.6,160.9C1325.6,160.9,1325.6,160.9,1325.6,160.9l-75.5-4c-0.6,0-1-0.5-0.9-1.1l5-95.3
		c0-0.3,0.1-0.5,0.3-0.7c0.2-0.2,0.5-0.3,0.7-0.3l75.5,4c0.3,0,0.5,0.1,0.7,0.3c0.2,0.2,0.3,0.5,0.3,0.7l-5,95.3
		C1326.6,160.5,1326.2,160.9,1325.6,160.9z M1251.2,155l73.5,3.9l4.9-93.3l-73.5-3.9L1251.2,155z"/>
	<path class="yellow" d="M1330,79.5C1329.9,79.5,1329.9,79.5,1330,79.5l-75.5-4c-0.6,0-1-0.5-0.9-1.1c0-0.6,0.5-1,1.1-0.9l75.5,4
		c0.6,0,1,0.5,0.9,1.1C1330.9,79.1,1330.5,79.5,1330,79.5z"/>
	<path class="yellow" d="M1329.4,89.7C1329.4,89.7,1329.4,89.7,1329.4,89.7l-75.5-4c-0.6,0-1-0.5-0.9-1.1c0-0.6,0.5-1,1.1-0.9l75.5,4
		c0.6,0,1,0.5,0.9,1.1C1330.4,89.3,1329.9,89.7,1329.4,89.7z"/>
	<path class="yellow" d="M1328.9,99.9C1328.9,99.9,1328.8,99.9,1328.9,99.9l-75.5-4c-0.6,0-1-0.5-0.9-1.1c0-0.6,0.5-1,1.1-0.9l75.5,4
		c0.6,0,1,0.5,0.9,1.1C1329.8,99.5,1329.4,99.9,1328.9,99.9z"/>
	<path class="yellow" d="M1328.3,110C1328.3,110,1328.3,110,1328.3,110l-75.5-4c-0.6,0-1-0.5-0.9-1.1c0-0.6,0.5-1,1.1-0.9l75.5,4
		c0.6,0,1,0.5,0.9,1.1C1329.3,109.6,1328.9,110,1328.3,110z"/>
	<path class="yellow" d="M1327.8,120.2C1327.8,120.2,1327.8,120.2,1327.8,120.2l-75.5-4c-0.6,0-1-0.5-0.9-1.1c0-0.6,0.5-1,1.1-0.9
		l75.5,4c0.6,0,1,0.5,0.9,1.1C1328.8,119.8,1328.3,120.2,1327.8,120.2z"/>
	<path class="yellow" d="M1327.3,130.4C1327.2,130.4,1327.2,130.4,1327.3,130.4l-75.5-4c-0.6,0-1-0.5-0.9-1.1c0-0.6,0.5-1,1.1-0.9
		l75.5,4c0.6,0,1,0.5,0.9,1.1C1328.2,130,1327.8,130.4,1327.3,130.4z"/>
	<path class="yellow" d="M1326.7,140.6C1326.7,140.6,1326.7,140.6,1326.7,140.6l-75.5-4c-0.6,0-1-0.5-0.9-1.1c0-0.6,0.5-1,1.1-0.9
		l75.5,4c0.6,0,1,0.5,0.9,1.1C1327.7,140.2,1327.3,140.6,1326.7,140.6z"/>
	<path class="yellow" d="M1326.2,150.7C1326.2,150.7,1326.1,150.7,1326.2,150.7l-75.5-4c-0.6,0-1-0.5-0.9-1.1c0-0.6,0.5-1,1.1-0.9
		l75.5,4c0.6,0,1,0.5,0.9,1.1C1327.2,150.3,1326.7,150.7,1326.2,150.7z"/>
</g>
<g>
	<path class="white" d="M413.3,216.3l-96.1-5.1c-2.4-0.1-4.3-2.2-4.1-4.6l6.3-119.9c0.1-2.4,2.2-4.3,4.6-4.1l96.1,5.1
		c2.4,0.1,4.3,2.2,4.1,4.6l-6.3,119.9C417.8,214.6,415.7,216.4,413.3,216.3z"/>
	<circle class="yellow" cx="338.9" cy="109.1" r="5.8"/>
	<path class="black" d="M391.3,112.5C391.3,112.5,391.3,112.5,391.3,112.5l-37.9-2c-0.6,0-1-0.5-0.9-1.1c0-0.6,0.5-1,1.1-0.9l37.8,2
		c0.6,0,1,0.5,0.9,1.1C392.3,112.1,391.9,112.5,391.3,112.5z"/>
	<circle class="black" cx="336" cy="165.8" r="5.8"/>
	<path class="black" d="M400.9,169.9C400.8,169.9,400.8,169.9,400.9,169.9l-50.3-2.6c-0.6,0-1-0.5-0.9-1.1c0-0.6,0.5-1,1.1-0.9
		l50.3,2.6c0.6,0,1,0.5,0.9,1.1C401.8,169.5,401.4,169.9,400.9,169.9z"/>
	<circle class="black" cx="338" cy="128" r="5.8"/>
	<path class="black" d="M399.3,128.7C399.3,128.7,399.2,128.7,399.3,128.7l-46.7-2.4c-0.6,0-1-0.5-0.9-1.1c0-0.6,0.5-1,1.1-0.9
		l46.6,2.4c0.6,0,1,0.5,0.9,1.1C400.3,128.3,399.8,128.7,399.3,128.7z"/>
	<path class="black" d="M402.6,135.3C402.6,135.3,402.6,135.3,402.6,135.3l-50.3-2.6c-0.6,0-1-0.5-0.9-1.1c0-0.6,0.5-1,1.1-0.9
		l50.3,2.6c0.6,0,1,0.5,0.9,1.1C403.6,134.9,403.2,135.3,402.6,135.3z"/>
	<circle class="yellow" cx="335" cy="184.7" r="5.8"/>
	<path class="black" d="M404.7,185.9C404.6,185.9,404.6,185.9,404.7,185.9l-55-2.8c-0.6,0-1-0.5-0.9-1.1c0-0.6,0.5-1,1.1-0.9l54.9,2.8
		c0.6,0,1,0.5,0.9,1.1C405.6,185.4,405.2,185.9,404.7,185.9z"/>
	<path class="black" d="M384.5,191.3C384.5,191.3,384.4,191.3,384.5,191.3l-35.1-1.8c-0.6,0-1-0.5-0.9-1.1c0-0.6,0.5-1,1.1-0.9
		l35.1,1.8c0.6,0,1,0.5,0.9,1.1C385.5,190.9,385,191.3,384.5,191.3z"/>
	<circle class="yellow" cx="337" cy="146.9" r="5.8"/>
	<path class="black" d="M398.3,147.6C398.3,147.6,398.3,147.6,398.3,147.6l-46.7-2.4c-0.6,0-1-0.5-0.9-1.1c0-0.6,0.5-1,1.1-0.9
		l46.6,2.4c0.6,0,1,0.5,0.9,1.1C399.3,147.2,398.8,147.6,398.3,147.6z"/>
	<path class="black" d="M380,153.1C380,153.1,379.9,153.1,380,153.1l-28.7-1.5c-0.6,0-1-0.5-0.9-1.1c0-0.6,0.5-1,1.1-0.9l28.6,1.5
		c0.6,0,1,0.5,0.9,1.1C380.9,152.7,380.5,153.1,380,153.1z"/>
</g>
<g>
	<path class="white" d="M766.6,224.2l-51.5-7c-2.4-0.3-4.1-2.5-3.7-4.9l9.8-72.4c0.3-2.4,2.5-4.1,4.9-3.7l51.5,7
		c2.4,0.3,4.1,2.5,3.7,4.9l-9.8,72.4C771.2,222.8,769,224.5,766.6,224.2z"/>
	<path class="black" d="M758.1,210.3c0,0-0.1,0-0.1,0l-29.5-4c-0.5-0.1-0.9-0.6-0.9-1.1c0.1-0.5,0.6-0.9,1.1-0.9l29.5,4
		c0.5,0.1,0.9,0.6,0.9,1.1C759,209.9,758.5,210.3,758.1,210.3z"/>
	<g>
		<path class="yellow" d="M764.6,179.3c-1,7.5-6.1,13.3-12.5,15.3c-2.2,0.7-4.3-1.9-6.7-2.2c-2.8-0.4-5.7,1.4-7.9-0.2
			c-5.2-3.8-8.2-10.5-7.2-17.6c0.7-5.5,3.7-10.5,9.7-11.3c3.6-0.5,5,1.1,7.7,2.1c3.7,1.4,7.6-1.3,11.2,0.2c3.3,1.4,5.2,5,5.7,8.5
			C764.9,175.8,764.9,177.5,764.6,179.3z"/>
		<path class="black" d="M748.3,171.7c-0.5,0-0.9-0.3-1-0.8c0-0.1-1.6-8.8,6.2-12.2c0.5-0.2,1.1,0,1.3,0.5c0.2,0.5,0,1.1-0.5,1.3
			c-6.3,2.8-5.1,9.8-5,10c0.1,0.5-0.3,1.1-0.8,1.2C748.4,171.7,748.4,171.7,748.3,171.7z"/>
		<path class="black" d="M747.3,153.4c2.3,1.8,2.1,5.8,2.1,5.8s-3.9,1.1-6.1-0.7c-2.3-1.8-2.1-5.8-2.1-5.8S745,151.6,747.3,153.4z"/>
		<path class="black" d="M750.7,172c-4.4,0-7.5-1.7-7.7-1.8c-0.5-0.3-0.7-0.9-0.4-1.4c0.3-0.5,0.9-0.7,1.4-0.4c0,0,4.3,2.3,9.5,1.3
			c0.5-0.1,1.1,0.2,1.2,0.8c0.1,0.5-0.2,1.1-0.8,1.2C752.7,171.9,751.7,172,750.7,172z"/>
	</g>
</g>
<g>
	<path class="white" d="M858.5,169.8l-51,10c-2.4,0.5-4.7-1.1-5.1-3.4l-14-71.7c-0.5-2.4,1.1-4.7,3.4-5.1l51-10
		c2.4-0.5,4.7,1.1,5.1,3.4l14,71.7C862.4,167,860.9,169.3,858.5,169.8z"/>
	<path class="black" d="M816.4,165.1c-0.5,0-0.9-0.3-1-0.8c-0.1-0.5,0.2-1.1,0.8-1.2l29.2-5.7c0.5-0.1,1.1,0.2,1.2,0.8
		s-0.2,1.1-0.8,1.2l-29.2,5.7C816.5,165.1,816.5,165.1,816.4,165.1z"/>
	<g>
		<g>
			<defs>
				<path id="SVGID_1_" d="M840.1,115.3c0.5,0.1,0.8,0.5,0.9,1c0.2,3.4,0.5,16.7-7.3,23.7c-7.8,7-21,5.3-24.4,4.7
					c-0.5-0.1-0.8-0.5-0.9-1c-0.2-3.4-0.5-16.7,7.3-23.7C823.5,113,836.7,114.7,840.1,115.3z"/>
			</defs>
			<use xlink:href="#SVGID_1_"  style="overflow:visible;fill:#E6D420;"/>
			<clipPath id="SVGID_2_">
				<use xlink:href="#SVGID_1_"  style="overflow:visible;"/>
			</clipPath>
			<g class="st3">
				<path class="white" d="M843.1,127c-0.3,0-0.5-0.1-0.7-0.3l-12.5-14c-0.4-0.4-0.3-1,0.1-1.4c0.4-0.4,1-0.3,1.4,0.1l12.5,14
					c0.4,0.4,0.3,1-0.1,1.4C843.6,127,843.4,127,843.1,127z"/>
				<path class="white" d="M818.8,148.9c-0.3,0-0.5-0.1-0.7-0.3l-12.5-14c-0.4-0.4-0.3-1,0.1-1.4c0.4-0.4,1-0.3,1.4,0.1l12.5,14
					c0.4,0.4,0.3,1-0.1,1.4C819.2,148.8,819,148.9,818.8,148.9z"/>
			</g>
		</g>
		<path class="black" d="M816.5,138.3c-0.3,0-0.5-0.1-0.7-0.3c-0.4-0.4-0.3-1,0.1-1.4l16.4-14.7c0.4-0.4,1-0.3,1.4,0.1s0.3,1-0.1,1.4
			l-16.4,14.7C816.9,138.3,816.7,138.3,816.5,138.3z"/>
		<path class="black" d="M828.8,129.8c-0.3,0-0.5-0.1-0.7-0.3l-2.5-2.8c-0.4-0.4-0.3-1,0.1-1.4c0.4-0.4,1-0.3,1.4,0.1l2.5,2.8
			c0.4,0.4,0.3,1-0.1,1.4C829.3,129.7,829.1,129.8,828.8,129.8z"/>
		<path class="black" d="M825.8,132.5c-0.3,0-0.5-0.1-0.7-0.3l-2.5-2.8c-0.4-0.4-0.3-1,0.1-1.4c0.4-0.4,1-0.3,1.4,0.1l2.5,2.8
			c0.4,0.4,0.3,1-0.1,1.4C826.3,132.4,826,132.5,825.8,132.5z"/>
		<path class="black" d="M822.8,135.2c-0.3,0-0.5-0.1-0.7-0.3l-2.5-2.8c-0.4-0.4-0.3-1,0.1-1.4s1-0.3,1.4,0.1l2.5,2.8
			c0.4,0.4,0.3,1-0.1,1.4C823.2,135.2,823,135.2,822.8,135.2z"/>
		<path class="black" d="M819.7,138c-0.3,0-0.5-0.1-0.7-0.3l-2.5-2.8c-0.4-0.4-0.3-1,0.1-1.4c0.4-0.4,1-0.3,1.4,0.1l2.5,2.8
			c0.4,0.4,0.3,1-0.1,1.4C820.2,137.9,820,138,819.7,138z"/>
		<path class="black" d="M831.9,127.1c-0.3,0-0.5-0.1-0.7-0.3l-2.5-2.8c-0.4-0.4-0.3-1,0.1-1.4c0.4-0.4,1-0.3,1.4,0.1l2.5,2.8
			c0.4,0.4,0.3,1-0.1,1.4C832.4,127,832.1,127.1,831.9,127.1z"/>
		<path class="black" d="M816.9,137.9c-0.3,0-0.5-0.1-0.7-0.3c-0.4-0.4-0.3-1,0.1-1.4l15.7-14c0.4-0.4,1-0.3,1.4,0.1
			c0.4,0.4,0.3,1-0.1,1.4l-15.7,14C817.3,137.8,817.1,137.9,816.9,137.9z"/>
	</g>
</g>
<g>
	<path class="black" d="M834.9,39c0.9,0.5,2.1,0.6,3.1,0.2l10.9-3.9c2-0.7,2.8-2.6,2.1-4.6c-0.7-2-2.7-3.5-4.7-2.8l-10.9,3.9
		c-2,0.7-3.1,3-2.4,5C833.4,37.8,834.1,38.6,834.9,39z"/>
	<path class="white" d="M789.3,66.1c0.5,1.4,1.3,1.6,2,1.4l44-15.6c0.5-0.2,0.9-0.6,1.2-1.1c0.2-0.5,0.2-1.1,0-1.6
		c-0.2-1-0.5-2-0.7-2.9c-0.3-1.1-0.4-2.9-1.5-3.5c-0.5-0.3-1.2-0.3-1.8-0.1c-2.3,0.9-0.9,4.4-0.6,6.1l-42,14.9
		C789.4,63.8,788.8,64.6,789.3,66.1z"/>
	<path class="white" d="M719.9,74.1l0.9,2.8c0,0-4.2,1.4-4.7,0C715.7,75.4,719.9,74.1,719.9,74.1z"/>
	<path class="black" d="M827.8,38.3c2.1,6.1,0.1,8.4,0.1,8.4l0.1,0.1l-78.4,27.7c-7,2.4-14.4,3.8-21.8,3.8c-2.8,0-5.4-0.1-7.2-0.6
		l-1.1-3.8c1.6-1.9,4.8-4.2,7.9-6.3c4.7-3.1,9.8-5.7,15.2-7.5l80.3-28.3C823.5,31.8,826,32.9,827.8,38.3z"/>
	<path class="white" d="M834.8,27.5c0,0,3.6,0.4,5.7,6.5c2.1,6.1-0.4,8.6-0.4,8.6l-12,4.2l-0.1-0.1c0,0,2.1-2.2-0.1-8.4
		c-1.9-5.4-4.4-6.5-5-6.7L834.8,27.5z"/>
</g>
<g>
	<path class="black" d="M1178.8,200.8c1.9-3.4,6.2-4.5,9.6-2.6c3.4,1.9,4.5,6.2,2.6,9.6c-1.9,3.4-6.2,4.5-9.6,2.6
		C1178,208.5,1176.9,204.2,1178.8,200.8z"/>
	<polygon class="white" points="1308.5,221.4 1296.5,211.7 1291.3,213 1290.3,224.6 1294.3,227.3 	"/>
	<polygon class="black" points="1290.9,224.2 1295,222.1 1295,222.1 1295,222.1 1295,222.1 1295,222.1 1291.7,219 1295.8,216.9
		1292.4,213.8 1296.5,211.7 1197.4,198.3 1196.7,203.5 1195.9,208.7 1195.9,208.7 1195.2,213.9 1294.3,227.3 	"/>
	<polygon class="white" points="1184.6,201.8 1183.8,207 1183.1,212.2 1195.2,213.9 1197.4,198.3 1185.3,196.6 	"/>
	<polygon class="black" points="1301.4,224.3 1308.5,221.4 1302.5,216.5 	"/>
	<path class="yellow" d="M1191.6,214.5c0,0-0.1,0-0.2,0c-0.5-0.1-0.9-0.6-0.8-1.1l2.4-15.6c0.1-0.5,0.6-0.9,1.1-0.8
		c0.5,0.1,0.9,0.6,0.8,1.1l-2.4,15.6C1192.5,214.2,1192,214.5,1191.6,214.5z"/>
	<path class="yellow" d="M1186.6,213.6c0,0-0.1,0-0.2,0c-0.5-0.1-0.9-0.6-0.8-1.1l2.4-15.6c0.1-0.5,0.6-0.9,1.1-0.8
		c0.5,0.1,0.9,0.6,0.8,1.1l-2.4,15.6C1187.5,213.3,1187.1,213.6,1186.6,213.6z"/>
</g>
<g>
	<path class="white" d="M512.5,171.8l-41.8,5.9c-5.3,0.7-10.1-2.9-10.9-8.2l-13-92.7c-0.7-5.3,2.9-10.1,8.2-10.9l41.8-5.9
		c5.3-0.7,10.1,2.9,10.9,8.2l13,92.7C521.5,166.2,517.8,171.1,512.5,171.8"/>

		<rect x="456.9" y="76.9" transform="matrix(0.9903 -0.1392 0.1392 0.9903 -11.6747 68.4341)" class="yellow" width="53.4" height="81.6"/>
	<path class="black" d="M495.1,165.3c0.4,2.5-1.4,4.9-3.9,5.2c-2.5,0.4-4.9-1.4-5.2-3.9c-0.4-2.5,1.4-4.9,3.9-5.2
		C492.4,161,494.7,162.7,495.1,165.3"/>
	<path class="black" d="M484.4,70.2l-11.5,1.6c-0.5,0.1-0.9-0.3-1-0.7c-0.1-0.5,0.3-0.9,0.7-1l11.5-1.6c0.5-0.1,0.9,0.3,1,0.7
		C485.2,69.7,484.9,70.1,484.4,70.2"/>
	<path class="black" d="M469.5,72.3l-1,0.1c-0.5,0.1-0.9-0.3-1-0.7c-0.1-0.5,0.3-0.9,0.7-1l1-0.1c0.5-0.1,0.9,0.3,1,0.7
		C470.3,71.8,470,72.2,469.5,72.3"/>
	<path class="black" d="M463.1,112.5c-0.5,0-0.9-0.4-1-0.9c-0.1-0.5,0.3-1.1,0.9-1.1l38.1-5.3c0.5-0.1,1.1,0.3,1.1,0.9
		c0.1,0.5-0.3,1.1-0.9,1.1l-38.1,5.3C463.2,112.5,463.1,112.5,463.1,112.5z"/>
	<path class="black" d="M464.1,119.7c-0.5,0-0.9-0.4-1-0.9c-0.1-0.5,0.3-1.1,0.9-1.1l36.3-5.1c0.5-0.1,1.1,0.3,1.1,0.9
		c0.1,0.5-0.3,1.1-0.9,1.1l-36.3,5.1C464.2,119.7,464.2,119.7,464.1,119.7z"/>
	<path class="black" d="M465.1,126.8c-0.5,0-0.9-0.4-1-0.9c-0.1-0.5,0.3-1.1,0.9-1.1l34.1-4.8c0.5-0.1,1.1,0.3,1.1,0.9
		c0.1,0.5-0.3,1.1-0.9,1.1l-34.1,4.8C465.2,126.8,465.2,126.8,465.1,126.8z"/>
	<path class="black" d="M466.1,134c-0.5,0-0.9-0.4-1-0.9c-0.1-0.5,0.3-1.1,0.9-1.1l30.5-4.3c0.5-0.1,1.1,0.3,1.1,0.9
		c0.1,0.5-0.3,1.1-0.9,1.1l-30.5,4.3C466.2,134,466.2,134,466.1,134z"/>
	<path class="black" d="M467.1,141.2c-0.5,0-0.9-0.4-1-0.9c-0.1-0.5,0.3-1.1,0.9-1.1l38.1-5.3c0.5-0.1,1.1,0.3,1.1,0.9
		c0.1,0.5-0.3,1.1-0.9,1.1l-38.1,5.3C467.2,141.2,467.2,141.2,467.1,141.2z"/>
	<path class="black" d="M468.1,148.3c-0.5,0-0.9-0.4-1-0.9c-0.1-0.5,0.3-1.1,0.9-1.1l29.1-4.1c0.6-0.1,1.1,0.3,1.1,0.9
		c0.1,0.5-0.3,1.1-0.9,1.1l-29.1,4.1C468.2,148.3,468.2,148.3,468.1,148.3z"/>
	<path class="white" d="M466.5,103.3c3.2-0.5,5.4-3.4,5-6.6c-0.5-3.2-3.4-5.4-6.6-5c-3.2,0.5-5.4,3.4-5,6.6
		C460.3,101.5,463.3,103.8,466.5,103.3"/>
</g>
<g>
	<path class="white" d="M1406.3,205.5c-0.3,2.7-2.8,4.7-5.6,4.3l-34.5-4.3c-2.7-0.3-4.7-2.8-4.3-5.6l4.3-34.5c0.3-2.7,2.8-4.7,5.6-4.3
		l34.5,4.3c2.7,0.3,4.7,2.8,4.3,5.6L1406.3,205.5z"/>
	<path class="black" d="M1391,186.1c-0.3,2.6-2.7,4.4-5.3,4.1c-2.6-0.3-4.4-2.7-4.1-5.3c0.3-2.6,2.7-4.4,5.3-4.1
		C1389.5,181.1,1391.3,183.5,1391,186.1z"/>
	<path class="black" d="M1400.2,197.9c-0.3,2.6-2.7,4.4-5.3,4.1c-2.6-0.3-4.4-2.7-4.1-5.3c0.3-2.6,2.7-4.4,5.3-4.1
		C1398.7,192.9,1400.5,195.3,1400.2,197.9z"/>
	<path class="black" d="M1381.8,174.3c-0.3,2.6-2.7,4.4-5.3,4.1c-2.6-0.3-4.4-2.7-4.1-5.3c0.3-2.6,2.7-4.4,5.3-4.1
		C1380.3,169.3,1382.1,171.7,1381.8,174.3z"/>
	<path class="black" d="M1398.6,171.6c2.6,0.3,4.4,2.7,4.1,5.3c-0.3,2.6-2.7,4.4-5.3,4.1c-2.6-0.3-4.4-2.7-4.1-5.3
		C1393.7,173.1,1396.1,171.3,1398.6,171.6z"/>
	<path class="black" d="M1375.1,190c2.6,0.3,4.4,2.7,4.1,5.3c-0.3,2.6-2.7,4.4-5.3,4.1c-2.6-0.3-4.4-2.7-4.1-5.3
		C1370.1,191.5,1372.5,189.7,1375.1,190z"/>
</g>
<g>
	<path class="black" d="M670.4,197.2c-0.2,2.7-2.5,4.7-5.2,4.5L561,193.9c-2.7-0.2-4.7-2.5-4.5-5.2L567,41.8c0.2-2.7,2.5-4.7,5.2-4.5
		l104.7,7.8c2.7,0.2,4.7,2.5,4.5,5.2L670.4,197.2z"/>
	<path class="white" d="M619.3,185.4c-0.2,2.7-2.5,4.7-5.2,4.5c-2.7-0.2-4.7-2.5-4.5-5.2c0.2-2.7,2.5-4.7,5.2-4.5
		C617.5,180.4,619.5,182.7,619.3,185.4"/>
	<path class="white" d="M631.6,50.7C631.6,50.7,631.6,50.7,631.6,50.7l-10.3-0.8c-0.6,0-1.1-0.6-1-1.2c0-0.6,0.6-1.1,1.2-1l10.2,0.8
		c0.6,0,1.1,0.6,1,1.2C632.7,50.3,632.2,50.7,631.6,50.7"/>
	<path class="white" d="M618,48.6c0,0.6-0.6,1.1-1.2,1c-0.6,0-1.1-0.6-1-1.2c0-0.6,0.6-1.1,1.2-1C617.6,47.4,618,48,618,48.6"/>
	<polyline class="yellow" points="566.6,170.1 575.4,53 671.4,60.2 662.6,177.2 	"/>
	<path class="black" d="M649,113.5C648.9,113.5,648.9,113.5,649,113.5l-59.9-5.2c-0.5,0-1-0.5-0.9-1.1c0-0.5,0.5-1,1.1-0.9l59.8,5.2
		c0.5,0,1,0.5,0.9,1.1C649.9,113.1,649.5,113.5,649,113.5z"/>
	<path class="black" d="M648.4,120.1C648.4,120.1,648.3,120.1,648.4,120.1l-59.9-5.2c-0.5,0-1-0.5-0.9-1.1c0-0.5,0.5-1,1.1-0.9
		l59.8,5.2c0.5,0,1,0.5,0.9,1.1C649.3,119.7,648.9,120.1,648.4,120.1z"/>
	<path class="black" d="M647.8,126.6C647.8,126.6,647.8,126.6,647.8,126.6l-59.9-5.2c-0.5,0-1-0.5-0.9-1.1c0-0.6,0.5-1,1.1-0.9
		l59.8,5.2c0.5,0,1,0.5,0.9,1.1C648.8,126.2,648.3,126.6,647.8,126.6z"/>
	<path class="black" d="M647.2,133.1C647.2,133.1,647.2,133.1,647.2,133.1l-59.9-5.2c-0.5,0-1-0.5-0.9-1.1c0-0.5,0.5-1,1.1-0.9
		l59.8,5.2c0.5,0,1,0.5,0.9,1.1C648.2,132.7,647.8,133.1,647.2,133.1z"/>
	<path class="black" d="M646.7,139.6C646.6,139.6,646.6,139.6,646.7,139.6l-59.9-5.2c-0.5,0-1-0.5-0.9-1.1s0.5-1,1.1-0.9l59.8,5.2
		c0.5,0,1,0.5,0.9,1.1C647.6,139.2,647.2,139.6,646.7,139.6z"/>
	<path class="black" d="M646.1,146.2C646.1,146.2,646,146.2,646.1,146.2l-59.9-5.2c-0.5,0-1-0.5-0.9-1.1s0.5-1,1.1-0.9l59.8,5.2
		c0.5,0,1,0.5,0.9,1.1C647,145.8,646.6,146.2,646.1,146.2z"/>
	<path class="black" d="M645.5,152.7C645.5,152.7,645.5,152.7,645.5,152.7l-59.9-5.2c-0.5,0-1-0.5-0.9-1.1c0-0.5,0.5-1,1.1-0.9
		l59.8,5.2c0.5,0,1,0.5,0.9,1.1C646.5,152.3,646,152.7,645.5,152.7z"/>
	<g>
		<path class="white" d="M587,90.1c0,0-1.6-0.1-1.8,1.5l-0.4,4.2c0,0-0.1,1.6,1.5,1.8l10.2,0.9c0,0,1.6,0.1,1.8-1.5l0.4-4.2
			c0,0,0.1-1.6-1.5-1.8L587,90.1z"/>
		<path class="white" d="M603.6,91.5c0,0-1.6-0.1-1.8,1.5l-0.4,4.2c0,0-0.1,1.6,1.5,1.8l10.2,0.9c0,0,1.6,0.1,1.8-1.5l0.4-4.2
			c0,0,0.1-1.6-1.5-1.8L603.6,91.5z"/>
		<path class="white" d="M640,83.9c0,0-1.6-0.1-1.8,1.5l-0.4,4.2c0,0-0.1,1.6,1.5,1.8l10.2,0.9c0,0,1.6,0.1,1.8-1.5l0.4-4.2
			c0,0,0.1-1.6-1.5-1.8L640,83.9z"/>
		<path class="white" d="M620.3,93c0,0-1.6-0.1-1.8,1.5l-0.4,4.2c0,0-0.1,1.6,1.5,1.8l10.2,0.9c0,0,1.6,0.1,1.8-1.5l0.4-4.2
			c0,0,0.1-1.6-1.5-1.8L620.3,93z"/>
		<path class="white" d="M612.3,81.5c0,0-1.6-0.1-1.8,1.5l-0.4,4.2c0,0-0.1,1.6,1.5,1.8l21.2,1.9c0,0,1.6,0.1,1.8-1.5l0.4-4.2
			c0,0,0.1-1.6-1.5-1.8L612.3,81.5z"/>
		<path class="white" d="M593.8,79.9c0,0-1.6-0.1-1.8,1.5l-0.4,4.2c0,0-0.1,1.6,1.5,1.8l12,1.1c0,0,1.6,0.1,1.8-1.5l0.4-4.2
			c0,0,0.1-1.6-1.5-1.8L593.8,79.9z"/>
		<path class="white" d="M637,94.4c0,0-1.6-0.1-1.8,1.5l-0.4,4.2c0,0-0.1,1.6,1.5,1.8l17.9,1.6c0,0,1.6,0.1,1.8-1.5l0.4-4.2
			c0,0,0.1-1.6-1.5-1.8L637,94.4z"/>
	</g>
</g>
<g>
	<g>
		<path class="black" d="M1204.6,40c-0.4-5-4.7-8.7-9.7-8.4l-149.2,10.9c-5,0.4-8.7,4.7-8.4,9.7l7.1,97.4l167.3-12.2L1204.6,40z"/>
	</g>

		<rect x="1049.8" y="47" transform="matrix(0.9973 -7.276150e-02 7.276150e-02 0.9973 -3.5796 82.0304)" class="yellow" width="148.6" height="86.2"/>
	<g>
		<path class="white" d="M1044.4,149.7l0.7,9.8c0.4,5,4.7,8.7,9.7,8.4l68.3-5c0.8,6.6,0.8,20.9-13.3,22l0.4,5l41.8-3l-0.4-5
			c-13.5,1-15.5-13.2-15.6-19.8l68.2-5c5-0.4,8.7-4.7,8.4-9.7l-0.7-9.8L1044.4,149.7z"/>
	</g>
	<g>
		<path class="black" d="M1091.5,74c3.2-0.2,5.7-3,5.4-6.3c-0.2-3.2-3-5.7-6.3-5.4c-3.2,0.2-5.7,3-5.4,6.3S1088.3,74.2,1091.5,74"/>
		<path class="black" d="M1093.9,106.4c3.2-0.2,5.7-3,5.4-6.3c-0.2-3.2-3-5.7-6.3-5.4c-3.2,0.2-5.7,3-5.4,6.3
			C1087.8,104.2,1090.6,106.7,1093.9,106.4"/>
		<path class="black" d="M1157.1,85.5c-3.2,0.2-6-2.2-6.3-5.4c-0.2-3.2,2.2-6,5.4-6.3s6,2.2,6.3,5.4
			C1162.8,82.4,1160.3,85.3,1157.1,85.5"/>
		<path class="black" d="M1159.5,118c-3.2,0.2-6-2.2-6.3-5.4c-0.2-3.2,2.2-6,5.4-6.3s6,2.2,6.3,5.4
			C1165.1,114.9,1162.7,117.7,1159.5,118"/>
		<path class="white" d="M1105.3,61.2c0,0-3.6,0.3-3.3,3.9l0.3,4.5c0,0,0.3,3.6,3.9,3.3l52.1-3.8c0,0,3.6-0.3,3.3-3.9l-0.3-4.5
			c0,0-0.3-3.6-3.9-3.3L1105.3,61.2z"/>
		<path class="white" d="M1107.6,93.7c0,0-3.6,0.3-3.3,3.9l0.3,4.5c0,0,0.3,3.6,3.9,3.3l52.1-3.8c0,0,3.6-0.3,3.3-3.9l-0.3-4.5
			c0,0-0.3-3.6-3.9-3.3L1107.6,93.7z"/>
		<path class="white" d="M1141.6,74.9c0,0,3.6-0.3,3.9,3.3l0.3,4.5c0,0,0.3,3.6-3.3,3.9l-52.1,3.8c0,0-3.6,0.3-3.9-3.3l-0.3-4.5
			c0,0-0.3-3.6,3.3-3.9L1141.6,74.9z"/>
		<path class="white" d="M1144,107.3c0,0,3.6-0.3,3.9,3.3l0.3,4.5c0,0,0.3,3.6-3.3,3.9l-52.1,3.8c0,0-3.6,0.3-3.9-3.3l-0.3-4.5
			c0,0-0.3-3.6,3.3-3.9L1144,107.3z"/>
	</g>
</g>
<g>
	<g>
		<path class="black" d="M1417.6,131.9l-38.2-2.3c-4.8-0.3-8.5-4.4-8.2-9.2l5.1-84.6c0.3-4.8,4.4-8.5,9.2-8.2l38.2,2.3
			c4.8,0.3,8.5,4.4,8.2,9.2l-5.1,84.6C1426.6,128.6,1422.4,132.2,1417.6,131.9"/>
	</g>

		<rect x="1364.7" y="54.6" transform="matrix(6.031505e-02 -0.9982 0.9982 6.031505e-02 1238.5052 1473.0148)" class="yellow" width="73.9" height="48.3"/>
	<g>
		<path class="white" d="M1403.3,123c-0.1,2.3-2.1,4.1-4.4,3.9c-2.3-0.1-4.1-2.1-3.9-4.4c0.1-2.3,2.1-4.1,4.4-3.9
			C1401.7,118.7,1403.4,120.7,1403.3,123"/>
		<path class="white" d="M1410.9,36.7l-10.5-0.6c-0.4,0-0.8-0.4-0.7-0.8c0-0.4,0.4-0.8,0.8-0.7l10.5,0.6c0.4,0,0.8,0.4,0.7,0.8
			C1411.7,36.4,1411.4,36.8,1410.9,36.7"/>
		<path class="white" d="M1397.3,35.9l-0.9-0.1c-0.4,0-0.8-0.4-0.7-0.8c0-0.4,0.4-0.8,0.8-0.7l0.9,0.1c0.4,0,0.8,0.4,0.7,0.8
			C1398.1,35.6,1397.7,35.9,1397.3,35.9"/>
	</g>
	<g>
		<path class="white" d="M1387.3,53.2c0,0-3.6-0.2-3.8,3.4l-2.5,40.9c0,0-0.2,3.6,3.4,3.8l31.1,1.9c0,0,3.6,0.2,3.8-3.4l2.5-40.9
			c0,0,0.2-3.6-3.4-3.8L1387.3,53.2z"/>
	</g>
	<path class="black" d="M1412.3,95.6C1412.2,95.6,1412.2,95.6,1412.3,95.6l-23.6-1.4c-0.6,0-1-0.5-0.9-1.1c0-0.6,0.5-1,1.1-0.9
		l23.5,1.4c0.6,0,1,0.5,0.9,1.1C1413.2,95.2,1412.8,95.6,1412.3,95.6z"/>
	<polygon class="yellow" points="1402.4,62.1 1405.4,69.4 1413,71.1 1407.1,76.3 1408,84.2 1401.3,80.1 1394.2,83.4 1396,75.6
		1390.8,69.7 1398.5,69 	"/>
</g>
<path class="black" d="M546.7,237.4c-1.4,0-2.8-0.4-4-1.1l-24.8-14c-1.4-0.8-2.4-2.1-2.9-3.7c-0.4-1.6-0.2-3.2,0.6-4.6
	c0.8-1.4,2.1-2.4,3.7-2.9c1.6-0.4,3.2-0.2,4.6,0.6l20.9,11.8c0.5,0.3,0.7,0.9,0.4,1.4s-0.9,0.7-1.4,0.4l-20.9-11.8
	c-0.9-0.5-2-0.7-3.1-0.4c-1,0.3-1.9,1-2.5,1.9c-0.5,0.9-0.7,2-0.4,3.1c0.3,1,1,1.9,1.9,2.5l24.8,14c1.4,0.8,3.1,1,4.7,0.6
	c1.6-0.4,2.9-1.5,3.7-2.9c1.7-3,0.6-6.8-2.4-8.4l-28.8-16.2c-1.9-1.1-4.2-1.4-6.3-0.8c-2.1,0.6-3.9,2-5,3.9c-2.2,4-0.8,9.1,3.2,11.3
	l21.5,12.1c0.5,0.3,0.7,0.9,0.4,1.4c-0.3,0.5-0.9,0.7-1.4,0.4l-21.5-12.1c-5-2.8-6.7-9.1-3.9-14c1.4-2.4,3.6-4.1,6.2-4.9
	c2.7-0.7,5.4-0.4,7.8,0.9l28.8,16.2c3.9,2.2,5.3,7.2,3.1,11.2c-1.1,1.9-2.8,3.3-4.9,3.9C548.1,237.3,547.4,237.4,546.7,237.4z"/>
<path class="black" d="M1744.4,229.5c-3.8,0-7.5-2.1-9.3-5.8c-1.2-2.5-1.4-5.3-0.5-7.9c0.9-2.6,2.8-4.7,5.2-5.9l29.8-14.5
	c2-1,4.2-1.1,6.3-0.4c2.1,0.7,3.7,2.2,4.7,4.2c1,2,1.1,4.2,0.4,6.3c-0.7,2.1-2.2,3.7-4.2,4.7l-25.6,12.5c-3,1.5-6.6,0.2-8.1-2.8
	c-1.5-3-0.2-6.7,2.8-8.1l21.6-10.5c0.5-0.2,1.1,0,1.3,0.5c0.2,0.5,0,1.1-0.5,1.3l-21.6,10.5c-2,1-2.9,3.4-1.9,5.4
	c1,2,3.4,2.9,5.4,1.9l25.6-12.5c1.5-0.7,2.6-2,3.1-3.5s0.4-3.2-0.3-4.7c-0.7-1.5-2-2.6-3.5-3.1c-1.6-0.5-3.2-0.4-4.7,0.3l-29.8,14.5
	c-2,1-3.5,2.7-4.2,4.8c-0.7,2.1-0.6,4.3,0.4,6.3c2,4.1,7,5.8,11.1,3.8l22.2-10.8c0.5-0.2,1.1,0,1.3,0.5c0.2,0.5,0,1.1-0.5,1.3
	l-22.2,10.8C1747.4,229.2,1745.9,229.5,1744.4,229.5z"/>
<path class="black" d="M1595.9,77.6c-1.4,0-2.8-0.4-4-1.1l-24.8-14c-1.4-0.8-2.4-2.1-2.9-3.7c-0.4-1.6-0.2-3.2,0.6-4.6
	c0.8-1.4,2.1-2.4,3.7-2.9c1.6-0.4,3.2-0.2,4.6,0.6l20.9,11.8c0.5,0.3,0.7,0.9,0.4,1.4s-0.9,0.6-1.4,0.4l-20.9-11.8
	c-0.9-0.5-2-0.7-3.1-0.4c-1,0.3-1.9,1-2.5,1.9c-1.1,2-0.4,4.4,1.6,5.5l24.8,14c1.4,0.8,3.1,1,4.7,0.6c1.6-0.4,2.9-1.5,3.7-2.9
	c1.7-3,0.6-6.8-2.4-8.4l-28.8-16.2c-4-2.2-9.1-0.8-11.3,3.2c-1.1,1.9-1.4,4.2-0.8,6.3c0.6,2.1,2,3.9,3.9,5l21.5,12.1
	c0.5,0.3,0.7,0.9,0.4,1.4c-0.3,0.5-0.9,0.6-1.4,0.4L1561,64c-2.4-1.4-4.1-3.6-4.9-6.2c-0.7-2.7-0.4-5.4,0.9-7.8
	c2.8-4.9,9.1-6.7,14-3.9l28.8,16.2c3.9,2.2,5.3,7.2,3.1,11.2c-1.1,1.9-2.8,3.3-4.9,3.9C1597.4,77.5,1596.7,77.6,1595.9,77.6z"/>
<g>
	<g>
		<polygon class="white" points="205.9,101 294.9,74.4 253.6,132.2 240.5,123.6 226.7,131.1 231.1,117.5 		"/>
		<polygon points="223.5,112.5 294.9,74.4 231.1,117.5 226.7,131.1 		"/>
		<path class="black" d="M253.6,133.2c-0.5,0-1-0.4-1-0.9l-2-28.5c0-0.6,0.4-1,0.9-1.1c0.5,0,1,0.4,1.1,0.9l2,28.5
			C254.6,132.7,254.2,133.1,253.6,133.2C253.6,133.2,253.6,133.2,253.6,133.2z"/>
		<path class="black" d="M205.9,102c-0.5,0-1-0.4-1-1c0-0.6,0.4-1,1-1l41.2-1.1c0.5,0,1,0.4,1,1c0,0.6-0.4,1-1,1L205.9,102
			C205.9,102,205.9,102,205.9,102z"/>
		<polygon class="white" points="240.5,123.6 231.1,117.5 226.7,131.1 		"/>
	</g>
	<path class="black" d="M176.3,164.5c0,0-0.1,0-0.1,0c-0.7-0.1-1.4-0.2-2.1-0.5c-0.5-0.2-0.8-0.7-0.6-1.3c0.2-0.5,0.7-0.8,1.3-0.6
		c0.6,0.2,1.2,0.3,1.8,0.4c0.5,0.1,0.9,0.6,0.9,1.1C177.2,164.1,176.8,164.5,176.3,164.5z M182,163c-0.3,0-0.6-0.1-0.8-0.4
		c-0.3-0.4-0.3-1.1,0.2-1.4c0.5-0.3,0.9-0.8,1.2-1.2c0.3-0.4,1-0.5,1.4-0.2c0.4,0.3,0.5,1,0.2,1.4c-0.5,0.6-1,1.2-1.6,1.6
		C182.4,163,182.2,163,182,163z M169.4,160.8c-0.3,0-0.6-0.1-0.8-0.4c-0.3-0.4-0.6-0.8-0.9-1.3c-0.1-0.2-0.2-0.4-0.3-0.6
		c-0.3-0.5-0.1-1.1,0.4-1.4c0.5-0.3,1.1-0.1,1.4,0.4c0.1,0.2,0.2,0.3,0.3,0.5c0.2,0.4,0.5,0.7,0.7,1c0.4,0.4,0.3,1.1-0.1,1.4
		C169.9,160.7,169.6,160.8,169.4,160.8z M34.7,159.8C34.7,159.8,34.7,159.8,34.7,159.8c-0.7,0-1.4,0-2-0.1c-0.6,0-1-0.5-1-1
		c0-0.6,0.5-1,1-1c0.7,0,1.3,0,2,0.1c0.6,0,1,0.5,1,1C35.7,159.4,35.2,159.8,34.7,159.8z M40.7,159.7c-0.5,0-1-0.4-1-1
		c0-0.6,0.4-1,1-1c0.7,0,1.3-0.1,2-0.1c0.6,0,1,0.4,1.1,0.9c0,0.6-0.4,1-0.9,1.1C42.1,159.6,41.4,159.7,40.7,159.7
		C40.7,159.7,40.7,159.7,40.7,159.7z M26.7,159.3C26.7,159.3,26.6,159.3,26.7,159.3c-0.8-0.1-1.4-0.1-2.1-0.2
		c-0.5-0.1-0.9-0.6-0.9-1.1c0.1-0.5,0.6-0.9,1.1-0.9c0.7,0.1,1.3,0.2,2,0.2c0.5,0.1,1,0.5,0.9,1.1C27.6,159,27.2,159.3,26.7,159.3z
		 M48.6,159c-0.5,0-0.9-0.4-1-0.9c-0.1-0.5,0.3-1,0.9-1.1c0.7-0.1,1.3-0.2,2-0.3c0.5-0.1,1.1,0.3,1.1,0.8s-0.3,1.1-0.8,1.1
		c-0.7,0.1-1.3,0.2-2,0.3C48.7,159,48.7,159,48.6,159z M18.8,158.2c-0.1,0-0.1,0-0.2,0c-0.7-0.1-1.3-0.3-2-0.4
		c-0.5-0.1-0.9-0.6-0.8-1.2c0.1-0.5,0.6-0.9,1.2-0.8c0.6,0.1,1.3,0.3,1.9,0.4c0.5,0.1,0.9,0.6,0.8,1.2
		C19.7,157.9,19.3,158.2,18.8,158.2z M96.8,157.7c-0.5,0-1-0.4-1-1c0-0.6,0.4-1,1-1c0.7,0,1.3,0,2-0.1c0.6,0,1,0.4,1,1
		c0,0.6-0.4,1-1,1C98.2,157.7,97.5,157.7,96.8,157.7C96.8,157.7,96.8,157.7,96.8,157.7z M56.5,157.6c-0.5,0-0.9-0.3-1-0.8
		c-0.1-0.5,0.2-1.1,0.8-1.2c0.6-0.1,1.3-0.3,1.9-0.4c0.5-0.1,1.1,0.2,1.2,0.7s-0.2,1.1-0.7,1.2c-0.7,0.2-1.3,0.3-2,0.4
		C56.7,157.6,56.6,157.6,56.5,157.6z M90.8,157.6C90.8,157.6,90.8,157.6,90.8,157.6c-0.7,0-1.4-0.1-2.1-0.1c-0.6,0-1-0.5-0.9-1.1
		c0-0.6,0.5-1,1.1-0.9c0.7,0,1.3,0.1,2,0.1c0.6,0,1,0.5,0.9,1C91.8,157.2,91.4,157.6,90.8,157.6z M104.8,157.2c-0.5,0-0.9-0.4-1-0.9
		c-0.1-0.5,0.3-1,0.9-1.1c0.7-0.1,1.3-0.1,2-0.2c0.5-0.1,1,0.3,1.1,0.9c0.1,0.5-0.3,1-0.9,1.1c-0.7,0.1-1.3,0.2-2,0.2
		C104.9,157.2,104.8,157.2,104.8,157.2z M82.9,156.8c-0.1,0-0.1,0-0.2,0c-0.7-0.1-1.3-0.2-2-0.4c-0.5-0.1-0.9-0.6-0.8-1.2
		c0.1-0.5,0.6-0.9,1.2-0.8c0.6,0.1,1.3,0.2,1.9,0.3c0.5,0.1,0.9,0.6,0.8,1.1C83.8,156.5,83.4,156.8,82.9,156.8z M11,156.4
		c-0.1,0-0.2,0-0.3,0c-0.6-0.2-1.3-0.4-1.9-0.6c-0.5-0.2-0.8-0.7-0.7-1.2c0.2-0.5,0.7-0.8,1.2-0.7c0.6,0.2,1.3,0.4,1.9,0.5
		c0.5,0.1,0.8,0.7,0.7,1.2C11.8,156.1,11.4,156.4,11,156.4z M112.7,156.1c-0.5,0-0.9-0.3-1-0.8c-0.1-0.5,0.3-1.1,0.8-1.2
		c0.6-0.1,1.3-0.2,1.9-0.4c0.5-0.1,1.1,0.2,1.2,0.8s-0.2,1.1-0.8,1.2c-0.7,0.1-1.3,0.3-2,0.4C112.8,156.1,112.8,156.1,112.7,156.1z
		 M185.1,156c-0.6,0-1-0.4-1-1c0-0.6-0.1-1.2-0.2-1.8c-0.1-0.5,0.3-1.1,0.8-1.2c0.5-0.1,1.1,0.3,1.2,0.8c0.1,0.7,0.2,1.4,0.2,2.2
		C186.1,155.5,185.7,156,185.1,156C185.1,156,185.1,156,185.1,156z M64.3,155.6c-0.4,0-0.8-0.3-1-0.7c-0.2-0.5,0.1-1.1,0.7-1.2
		c0.6-0.2,1.3-0.4,1.9-0.6c0.5-0.2,1.1,0.1,1.3,0.6s-0.1,1.1-0.6,1.3c-0.6,0.2-1.3,0.4-1.9,0.6C64.5,155.6,64.4,155.6,64.3,155.6z
		 M75.2,154.7c-0.1,0-0.3,0-0.4-0.1c-0.4-0.2-0.9-0.4-1.3-0.7c-0.2-0.1-0.4-0.2-0.6-0.4c-0.3-0.2-0.4-0.5-0.5-0.8
		c-0.1,0-0.2,0.1-0.3,0.1c-0.5,0.2-1.1,0-1.3-0.6c-0.2-0.5,0-1.1,0.6-1.3c0.6-0.2,1.2-0.5,1.8-0.8c0.5-0.2,1.1,0,1.3,0.5
		c0.2,0.5,0,1-0.4,1.2c0.1,0.1,0.2,0.1,0.3,0.2c0.4,0.2,0.8,0.4,1.1,0.6c0.5,0.2,0.7,0.8,0.5,1.3C75.9,154.5,75.6,154.7,75.2,154.7z
		 M120.5,154.4c-0.4,0-0.9-0.3-1-0.8c-0.1-0.5,0.2-1.1,0.7-1.2c0.6-0.2,1.3-0.3,1.9-0.5c0.5-0.1,1.1,0.2,1.2,0.7
		c0.1,0.5-0.2,1.1-0.7,1.2c-0.6,0.2-1.3,0.3-1.9,0.5C120.7,154.4,120.6,154.4,120.5,154.4z M3.4,153.9c-0.1,0-0.2,0-0.4-0.1
		c-0.6-0.2-1.3-0.5-1.9-0.7c-0.5-0.2-0.8-0.8-0.6-1.3c0.2-0.5,0.8-0.8,1.3-0.6c0.6,0.2,1.2,0.5,1.8,0.7c0.5,0.2,0.8,0.8,0.6,1.3
		C4.2,153.7,3.8,153.9,3.4,153.9z M166.9,153.3c-0.5,0-1-0.4-1-1c0-0.2,0-0.3,0-0.5c0-0.5,0-1.1,0.1-1.7c0.1-0.5,0.5-1,1.1-0.9
		c0.5,0.1,1,0.5,0.9,1.1c0,0.5-0.1,1-0.1,1.5c0,0.1,0,0.3,0,0.4C167.9,152.9,167.5,153.3,166.9,153.3
		C166.9,153.3,166.9,153.3,166.9,153.3z M128.2,152.2c-0.4,0-0.8-0.3-1-0.7c-0.2-0.5,0.1-1.1,0.7-1.2c0.6-0.2,1.3-0.4,1.9-0.6
		c0.5-0.2,1.1,0.1,1.3,0.6c0.2,0.5-0.1,1.1-0.6,1.3c-0.6,0.2-1.3,0.4-1.9,0.6C128.4,152.2,128.3,152.2,128.2,152.2z M135.8,149.7
		c-0.4,0-0.8-0.2-0.9-0.6c-0.2-0.5,0.1-1.1,0.6-1.3c0.6-0.2,1.2-0.5,1.8-0.7c0.5-0.2,1.1,0,1.3,0.6c0.2,0.5,0,1.1-0.6,1.3
		c-0.6,0.2-1.3,0.5-1.9,0.7C136.1,149.6,135.9,149.7,135.8,149.7z M79.1,149.6c-0.4,0-0.7-0.2-0.9-0.5c-0.3-0.5-0.1-1.1,0.4-1.3
		c0.5-0.3,1.1-0.5,1.6-0.8l0.2-0.1c0.5-0.3,1.1-0.1,1.4,0.4c0.3,0.5,0.1,1.1-0.4,1.4l-0.2,0.1c-0.5,0.3-1.1,0.6-1.6,0.8
		C79.4,149.6,79.2,149.6,79.1,149.6z M69.1,149.6c-0.3,0-0.6-0.1-0.8-0.4c-0.4-0.6-0.8-1.2-1.1-1.8c-0.3-0.5-0.1-1.1,0.4-1.4
		c0.5-0.3,1.1-0.1,1.4,0.4c0.3,0.5,0.6,1.1,1,1.6c0.3,0.5,0.2,1.1-0.2,1.4C69.5,149.5,69.3,149.6,69.1,149.6z M182.4,148.6
		c-0.3,0-0.6-0.1-0.8-0.4c-0.4-0.5-0.8-0.9-1.3-1.3c-0.4-0.4-0.4-1-0.1-1.4c0.4-0.4,1-0.4,1.4-0.1c0.5,0.5,1,1,1.5,1.5
		c0.4,0.4,0.3,1.1-0.1,1.4C182.9,148.5,182.7,148.6,182.4,148.6z M143.2,146.7c-0.4,0-0.8-0.2-0.9-0.6c-0.2-0.5,0-1.1,0.5-1.3
		c0.6-0.3,1.2-0.5,1.9-0.8c0.5-0.2,1.1,0,1.3,0.6c0.2,0.5,0,1.1-0.6,1.3c-0.6,0.2-1.2,0.5-1.8,0.8
		C143.5,146.6,143.4,146.7,143.2,146.7z M168.4,145.6c-0.1,0-0.3,0-0.4-0.1c-0.5-0.2-0.7-0.8-0.5-1.3c0.1-0.2,0.2-0.4,0.3-0.6
		c0.2-0.4,0.4-0.8,0.6-1.3c0.3-0.5,0.9-0.7,1.4-0.4c0.5,0.3,0.7,0.9,0.4,1.4c-0.2,0.4-0.4,0.8-0.6,1.2c-0.1,0.2-0.2,0.4-0.2,0.6
		C169.2,145.3,168.8,145.6,168.4,145.6z M85.7,145.2c-0.2,0-0.5-0.1-0.7-0.3c-0.4-0.4-0.4-1,0-1.4c0.3-0.3,0.5-0.6,0.8-0.9
		c0.1-0.2,0.2-0.3,0.3-0.5c0.3-0.5,0.9-0.6,1.4-0.4c0.5,0.3,0.6,0.9,0.4,1.4c-0.1,0.2-0.3,0.4-0.4,0.6c-0.3,0.4-0.6,0.8-0.9,1.2
		C86.3,145.1,86,145.2,85.7,145.2z M176,143.9c-0.1,0-0.3,0-0.4-0.1c-0.6-0.3-1.2-0.5-1.8-0.7c-0.5-0.2-0.8-0.8-0.6-1.3
		c0.2-0.5,0.8-0.8,1.3-0.6c0.7,0.2,1.3,0.5,1.9,0.8c0.5,0.2,0.7,0.8,0.5,1.3C176.8,143.7,176.4,143.9,176,143.9z M150.7,143.8
		c-0.4,0-0.8-0.3-0.9-0.7c-0.2-0.5,0.1-1.1,0.6-1.3c0.6-0.2,1.3-0.4,1.9-0.6c0.5-0.2,1.1,0.1,1.2,0.7c0.2,0.5-0.1,1.1-0.7,1.2
		c-0.6,0.2-1.3,0.4-1.9,0.6C150.9,143.8,150.8,143.8,150.7,143.8z M66.4,142.2c-0.5,0-1-0.4-1-0.9c0-0.4,0-0.7,0-1.1
		c0-0.4,0-0.7,0-1.1c0-0.5,0.5-1,1.1-0.9c0.6,0,1,0.5,0.9,1.1c0,0.3,0,0.6,0,0.9s0,0.6,0,0.9C67.4,141.6,67,142.1,66.4,142.2
		C66.4,142.2,66.4,142.2,66.4,142.2z M158.4,141.8c-0.5,0-0.9-0.3-1-0.8c-0.1-0.5,0.3-1.1,0.8-1.2c0.7-0.1,1.4-0.2,2-0.3
		c0.6-0.1,1,0.3,1.1,0.9c0.1,0.5-0.3,1-0.9,1.1c-0.6,0.1-1.3,0.2-1.9,0.3C158.5,141.8,158.5,141.8,158.4,141.8z M168.4,141.6
		c-0.1,0-0.1,0-0.2,0c-0.6-0.1-1.3-0.2-1.9-0.2c-0.5,0-1-0.5-0.9-1.1c0-0.5,0.5-1,1.1-0.9c0.7,0.1,1.4,0.1,2.1,0.3
		c0.5,0.1,0.9,0.6,0.8,1.1C169.3,141.3,168.9,141.6,168.4,141.6z M172.8,138.9c-0.2,0-0.5-0.1-0.7-0.3c-0.4-0.4-0.4-1-0.1-1.4
		c0.5-0.5,0.9-1,1.4-1.5c0.4-0.4,1-0.4,1.4,0c0.4,0.4,0.4,1,0,1.4c-0.5,0.5-0.9,0.9-1.3,1.4C173.3,138.8,173.1,138.9,172.8,138.9z
		 M87.9,137.9c-0.5,0-0.9-0.4-1-0.8c-0.1-0.6-0.2-1.2-0.4-1.8c-0.2-0.5,0.1-1.1,0.6-1.3c0.5-0.2,1.1,0.1,1.3,0.6
		c0.2,0.7,0.4,1.4,0.5,2.1c0.1,0.5-0.3,1.1-0.8,1.1C88,137.8,88,137.9,87.9,137.9z M68.4,134.6c-0.2,0-0.4-0.1-0.6-0.2
		c-0.5-0.3-0.6-0.9-0.3-1.4c0.4-0.6,0.9-1.2,1.3-1.7c0.4-0.4,1-0.4,1.4,0c0.4,0.4,0.4,1,0,1.4c-0.4,0.5-0.8,0.9-1.1,1.4
		C69,134.4,68.7,134.6,68.4,134.6z M178.9,133.7c-0.3,0-0.6-0.2-0.8-0.4c-0.3-0.5-0.2-1.1,0.3-1.4c0.6-0.4,1.1-0.7,1.7-1.1
		c0.5-0.3,1.1-0.1,1.4,0.4c0.3,0.5,0.1,1.1-0.4,1.4c-0.6,0.3-1.1,0.7-1.6,1C179.2,133.6,179,133.7,178.9,133.7z M84,131.1
		c-0.2,0-0.4-0.1-0.6-0.2c-0.5-0.4-1-0.7-1.5-1c-0.5-0.2-0.7-0.8-0.5-1.3c0.2-0.5,0.8-0.7,1.3-0.5c0.7,0.3,1.3,0.7,1.9,1.2
		c0.4,0.3,0.5,1,0.2,1.4C84.6,130.9,84.3,131.1,84,131.1z M185.9,130c-0.4,0-0.8-0.2-0.9-0.6c-0.2-0.5,0-1.1,0.6-1.3
		c0.6-0.3,1.3-0.5,1.9-0.7c0.5-0.2,1.1,0.1,1.3,0.6c0.2,0.5-0.1,1.1-0.6,1.3c-0.6,0.2-1.2,0.4-1.8,0.7
		C186.2,130,186.1,130,185.9,130z M74.6,129.7c-0.4,0-0.8-0.3-0.9-0.7c-0.2-0.5,0.1-1.1,0.6-1.3c0.7-0.2,1.4-0.4,2.1-0.6
		c0.5-0.1,1.1,0.3,1.2,0.8c0.1,0.5-0.3,1.1-0.8,1.2c-0.6,0.1-1.2,0.3-1.8,0.5C74.8,129.7,74.7,129.7,74.6,129.7z M193.6,127.9
		c-0.5,0-0.9-0.3-1-0.8c-0.1-0.5,0.3-1.1,0.8-1.2c0.7-0.1,1.3-0.2,2-0.3c0.5-0.1,1.1,0.3,1.1,0.8s-0.3,1.1-0.8,1.1
		c-0.6,0.1-1.3,0.2-1.9,0.3C193.7,127.9,193.7,127.9,193.6,127.9z M201.6,126.8c-0.5,0-0.9-0.4-1-0.9c-0.1-0.5,0.3-1,0.9-1.1
		c0.7-0.1,1.3-0.2,2-0.2c0.5-0.1,1,0.3,1.1,0.9c0.1,0.5-0.3,1-0.9,1.1c-0.7,0.1-1.3,0.2-2,0.3C201.6,126.8,201.6,126.8,201.6,126.8z
		 M209.4,125.5c-0.5,0-0.9-0.3-1-0.8c-0.1-0.5,0.2-1.1,0.8-1.2c0.6-0.1,1.3-0.3,1.9-0.5c0.5-0.1,1.1,0.2,1.2,0.7
		c0.1,0.5-0.2,1.1-0.7,1.2c-0.7,0.2-1.3,0.3-2,0.5C209.6,125.5,209.5,125.5,209.4,125.5z M217,122.9c-0.4,0-0.7-0.2-0.9-0.5
		c-0.2-0.5-0.1-1.1,0.4-1.3c0.2-0.1,0.5-0.3,0.7-0.4c0.5-0.3,1.1-0.1,1.4,0.4c0.3,0.5,0.1,1.1-0.4,1.4c-0.3,0.1-0.5,0.3-0.8,0.4
		C217.3,122.9,217.1,122.9,217,122.9z"/>
</g>
<g>
	<g>
		<polygon class="white" points="1966.9,104.2 1874.2,110.3 1933.1,150.1 1942.4,137.5 1958,139.7 1949.1,128.4 		"/>
		<polygon points="1954.4,121.2 1874.2,110.3 1949.1,128.4 1958,139.7 		"/>
		<path class="black" d="M1933.1,151.1c-0.4,0-0.8-0.3-1-0.7l-8-27.4c-0.2-0.5,0.1-1.1,0.7-1.2c0.5-0.2,1.1,0.2,1.2,0.7l8,27.4
			c0.2,0.5-0.1,1.1-0.7,1.2C1933.3,151,1933.2,151.1,1933.1,151.1z"/>
		<path class="black" d="M1927.9,118.6c-0.4,0-0.8-0.3-0.9-0.7c-0.2-0.5,0.1-1.1,0.6-1.3l39-13.4c0.5-0.2,1.1,0.1,1.3,0.6
			c0.2,0.5-0.1,1.1-0.6,1.3l-39,13.4C1928.2,118.6,1928.1,118.6,1927.9,118.6z"/>
		<polygon class="white" points="1942.4,137.5 1949.1,128.4 1958,139.7 		"/>
	</g>
	<path class="black" d="M2038,168.9c-0.1,0-0.1,0-0.2,0c-0.7-0.1-1.4-0.3-2.1-0.5c-0.5-0.2-0.8-0.7-0.6-1.3c0.2-0.5,0.7-0.8,1.3-0.6
		c0.6,0.2,1.2,0.4,1.8,0.5c0.5,0.1,0.9,0.6,0.8,1.2C2038.8,168.6,2038.4,168.9,2038,168.9z M2043.9,168.8c-0.4,0-0.8-0.3-1-0.7
		c-0.1-0.5,0.2-1.1,0.7-1.2c0.4-0.1,0.7-0.2,1-0.3c0.2-0.1,0.5-0.2,0.7-0.3c0.5-0.2,1.1,0,1.3,0.5c0.2,0.5,0,1.1-0.5,1.3
		c-0.3,0.1-0.5,0.2-0.8,0.3c-0.4,0.2-0.8,0.3-1.2,0.4C2044.1,168.8,2044,168.8,2043.9,168.8z M2030.8,165.5c-0.2,0-0.5-0.1-0.7-0.2
		c-0.6-0.5-1.1-1-1.5-1.6c-0.3-0.4-0.3-1.1,0.2-1.4c0.4-0.3,1.1-0.3,1.4,0.2c0.4,0.5,0.8,0.9,1.3,1.3c0.4,0.4,0.5,1,0.1,1.4
		C2031.4,165.4,2031.1,165.5,2030.8,165.5z M2050.4,164.4c-0.2,0-0.4,0-0.5-0.2c-0.5-0.3-0.6-0.9-0.3-1.4c0.3-0.5,0.6-1,0.7-1.6
		c0.2-0.5,0.7-0.8,1.3-0.6c0.5,0.2,0.8,0.7,0.6,1.3c-0.2,0.7-0.5,1.4-0.9,2C2051,164.2,2050.7,164.4,2050.4,164.4z M2121.4,159.5
		C2121.3,159.5,2121.3,159.5,2121.4,159.5c-0.8-0.1-1.5-0.1-2.1-0.2c-0.5-0.1-0.9-0.6-0.8-1.1c0.1-0.5,0.6-0.9,1.1-0.8
		c0.6,0.1,1.3,0.2,1.9,0.2c0.6,0,1,0.5,0.9,1.1C2122.3,159.1,2121.9,159.5,2121.4,159.5z M2127.3,159.4c-0.5,0-0.9-0.4-1-0.9
		c-0.1-0.5,0.3-1,0.9-1.1c0.6-0.1,1.3-0.2,1.9-0.3c0.5-0.1,1.1,0.3,1.1,0.8s-0.3,1.1-0.8,1.1c-0.7,0.1-1.4,0.2-2,0.3
		C2127.4,159.4,2127.4,159.4,2127.3,159.4z M2027.1,158.6c-0.5,0-0.9-0.3-1-0.8c-0.1-0.6-0.1-1.2-0.1-1.8c0-0.1,0-0.3,0-0.4
		c0-0.6,0.5-1,1-1c0.6,0,1,0.5,1,1c0,0.1,0,0.2,0,0.3c0,0.5,0,1,0.1,1.5c0.1,0.5-0.3,1.1-0.8,1.1
		C2027.2,158.6,2027.1,158.6,2027.1,158.6z M2113.5,157.8c-0.1,0-0.2,0-0.3-0.1c-0.7-0.2-1.3-0.5-1.9-0.7c-0.5-0.2-0.7-0.8-0.5-1.3
		s0.8-0.7,1.3-0.5c0.6,0.3,1.2,0.5,1.8,0.7c0.5,0.2,0.8,0.8,0.6,1.3C2114.3,157.6,2114,157.8,2113.5,157.8z M2135.1,157.6
		c-0.4,0-0.8-0.3-0.9-0.7c-0.2-0.5,0.1-1.1,0.6-1.3c0.6-0.2,1.2-0.5,1.8-0.7c0.5-0.2,1.1,0,1.3,0.5c0.2,0.5,0,1.1-0.5,1.3
		c-0.6,0.3-1.3,0.5-1.9,0.8C2135.4,157.6,2135.2,157.6,2135.1,157.6z M2051.2,156.7c-0.4,0-0.8-0.3-1-0.7c-0.2-0.6-0.4-1.2-0.6-1.8
		c-0.2-0.5,0-1.1,0.5-1.3c0.5-0.2,1.1,0,1.3,0.5c0.3,0.7,0.5,1.3,0.7,2c0.1,0.5-0.2,1.1-0.7,1.2
		C2051.3,156.7,2051.2,156.7,2051.2,156.7z M2106.3,154.4c-0.2,0-0.3,0-0.5-0.1c-0.6-0.3-1.2-0.7-1.7-1c-0.5-0.3-0.6-0.9-0.4-1.4
		c0.3-0.5,0.9-0.6,1.4-0.4c0.6,0.3,1.1,0.7,1.7,1c0.5,0.3,0.6,0.9,0.4,1.4C2107,154.2,2106.7,154.4,2106.3,154.4z M2029.1,151.2
		c-0.2,0-0.4-0.1-0.6-0.2c-0.4-0.3-0.5-1-0.2-1.4c0.4-0.5,0.9-1.1,1.5-1.6c0.4-0.4,1-0.4,1.4,0c0.4,0.4,0.4,1,0,1.4
		c-0.5,0.4-0.9,0.9-1.3,1.4C2029.7,151,2029.4,151.2,2029.1,151.2z M2099.4,150.4c-0.2,0-0.3,0-0.5-0.1c-0.6-0.3-1.2-0.6-1.8-0.9
		c-0.5-0.2-0.7-0.8-0.5-1.3s0.8-0.7,1.3-0.5c0.6,0.3,1.2,0.6,1.8,0.9c0.5,0.3,0.7,0.9,0.4,1.3
		C2100.1,150.3,2099.7,150.4,2099.4,150.4z M2047.4,149.7c-0.3,0-0.6-0.1-0.8-0.4c-0.2-0.2-0.4-0.4-0.5-0.6
		c-0.2-0.3-0.5-0.6-0.8-0.8c-0.4-0.4-0.4-1,0-1.4c0.4-0.4,1-0.4,1.4,0c0.3,0.3,0.5,0.6,0.8,0.9c0.2,0.2,0.4,0.4,0.6,0.7
		c0.4,0.4,0.3,1.1-0.1,1.4C2047.8,149.6,2047.6,149.7,2047.4,149.7z M2092.1,147.1c-0.1,0-0.2,0-0.4-0.1c-0.6-0.2-1.2-0.5-1.8-0.7
		c-0.5-0.2-0.8-0.8-0.6-1.3c0.2-0.5,0.8-0.8,1.3-0.6c0.6,0.2,1.3,0.5,1.9,0.7c0.5,0.2,0.8,0.8,0.6,1.3
		C2092.9,146.9,2092.5,147.1,2092.1,147.1z M2035.4,146.3c-0.4,0-0.7-0.2-0.9-0.6c-0.2-0.5,0-1.1,0.4-1.3c0.6-0.3,1.2-0.6,1.9-0.9
		c0.5-0.2,1.1,0,1.3,0.5s0,1.1-0.5,1.3c-0.6,0.3-1.2,0.5-1.8,0.8C2035.7,146.3,2035.5,146.3,2035.4,146.3z M2084.5,144.6
		c-0.1,0-0.2,0-0.3,0c-0.6-0.2-1.3-0.3-1.9-0.5c-0.5-0.1-0.9-0.7-0.7-1.2s0.7-0.9,1.2-0.7c0.7,0.2,1.3,0.3,2,0.5
		c0.5,0.1,0.9,0.7,0.7,1.2C2085.4,144.4,2084.9,144.6,2084.5,144.6z M2041.6,144.1c-0.2,0-0.4-0.1-0.6-0.2c-0.5-0.4-1-0.8-1.6-1.2
		c-0.4-0.3-0.5-0.9-0.2-1.4c0.3-0.4,0.9-0.5,1.4-0.2c0.5,0.3,0.9,0.7,1.4,1c0.1-0.3,0.4-0.5,0.7-0.5c0.7-0.2,1.3-0.3,2-0.5
		c0.5-0.1,1.1,0.2,1.2,0.8c0.1,0.5-0.2,1.1-0.8,1.2c-0.6,0.1-1.3,0.3-1.9,0.5c-0.2,0.1-0.4,0-0.6,0c0,0.1-0.1,0.2-0.1,0.3
		C2042.2,144,2041.9,144.1,2041.6,144.1z M2076.7,143c-0.1,0-0.1,0-0.2,0c-0.6-0.1-1.3-0.2-2-0.3c-0.5-0.1-0.9-0.6-0.9-1.1
		s0.6-0.9,1.1-0.9c0.7,0.1,1.3,0.2,2,0.3c0.5,0.1,0.9,0.6,0.8,1.1C2077.6,142.6,2077.2,143,2076.7,143z M2050.8,142.1
		c-0.5,0-0.9-0.4-1-0.9c-0.1-0.5,0.4-1,0.9-1.1c0.4,0,0.7-0.1,1.1-0.1l0.9-0.1c0.6,0,1,0.4,1.1,0.9c0,0.6-0.4,1-0.9,1.1l-0.9,0.1
		C2051.6,142.1,2051.2,142.1,2050.8,142.1C2050.8,142.1,2050.8,142.1,2050.8,142.1z M2068.7,142.1
		C2068.7,142.1,2068.7,142,2068.7,142.1c-0.7-0.1-1.4-0.1-2-0.1c-0.6,0-1-0.5-0.9-1.1c0-0.6,0.5-1,1.1-0.9c0.7,0,1.3,0.1,2,0.1
		c0.6,0,1,0.5,0.9,1.1C2069.7,141.7,2069.3,142.1,2068.7,142.1z M2058.8,141.8c-0.5,0-1-0.4-1-1c0-0.6,0.4-1,1-1c0.7,0,1.3,0,2,0
		c0.6,0,1,0.4,1,1s-0.4,1-1,1h0C2060.1,141.8,2059.4,141.8,2058.8,141.8C2058.8,141.8,2058.8,141.8,2058.8,141.8z M2035,139.7
		c-0.2,0-0.3,0-0.5-0.1c-0.6-0.3-1.1-0.6-1.7-0.9c-0.5-0.3-0.7-0.9-0.4-1.3c0.3-0.5,0.9-0.7,1.3-0.4c0.6,0.3,1.2,0.6,1.8,1
		c0.5,0.3,0.6,0.9,0.4,1.4C2035.7,139.5,2035.3,139.7,2035,139.7z M2027.8,136.2c-0.1,0-0.3,0-0.4-0.1c-0.6-0.3-1.2-0.5-1.8-0.7
		c-0.5-0.2-0.8-0.8-0.6-1.3c0.2-0.5,0.8-0.8,1.3-0.6c0.6,0.2,1.3,0.5,1.9,0.8c0.5,0.2,0.8,0.8,0.5,1.3
		C2028.6,136,2028.2,136.2,2027.8,136.2z M2020.3,133.5c-0.1,0-0.2,0-0.3,0c-0.6-0.2-1.3-0.4-1.9-0.6c-0.5-0.2-0.8-0.7-0.7-1.2
		c0.2-0.5,0.7-0.8,1.2-0.7c0.6,0.2,1.3,0.4,1.9,0.6c0.5,0.2,0.8,0.7,0.7,1.3C2021.1,133.2,2020.7,133.5,2020.3,133.5z M2012.5,131.4
		c-0.1,0-0.2,0-0.2,0c-0.6-0.2-1.3-0.3-1.9-0.4c-0.5-0.1-0.9-0.7-0.8-1.2s0.7-0.9,1.2-0.8c0.7,0.1,1.3,0.3,2,0.5
		c0.5,0.1,0.9,0.7,0.7,1.2C2013.4,131.1,2013,131.4,2012.5,131.4z M2004.7,129.8c-0.1,0-0.1,0-0.2,0c-0.7-0.1-1.3-0.2-2-0.3
		c-0.5-0.1-0.9-0.6-0.8-1.1c0.1-0.5,0.6-0.9,1.1-0.8c0.7,0.1,1.3,0.2,2,0.3c0.5,0.1,0.9,0.6,0.8,1.2
		C2005.6,129.4,2005.2,129.8,2004.7,129.8z M1970.9,128.8c-0.5,0-1-0.4-1-0.9c0-0.6,0.4-1,0.9-1.1c0.7,0,1.3-0.1,2-0.1
		c0.6,0,1,0.4,1.1,0.9c0,0.6-0.4,1-0.9,1.1C1972.3,128.7,1971.6,128.7,1970.9,128.8C1970.9,128.8,1970.9,128.8,1970.9,128.8z
		 M1964.9,128.7C1964.8,128.7,1964.8,128.7,1964.9,128.7c-0.7-0.1-1.4-0.1-2-0.2c-0.5-0.1-0.9-0.6-0.8-1.1s0.6-0.9,1.1-0.8
		c0.6,0.1,1.2,0.2,1.8,0.2c0.6,0,1,0.5,0.9,1.1C1965.8,128.3,1965.4,128.7,1964.9,128.7z M1996.8,128.6c0,0-0.1,0-0.1,0
		c-0.7-0.1-1.3-0.2-2-0.2c-0.5-0.1-0.9-0.5-0.9-1.1c0.1-0.5,0.6-0.9,1.1-0.9c0.7,0.1,1.3,0.1,2,0.2c0.5,0.1,0.9,0.6,0.9,1.1
		C1997.7,128.2,1997.3,128.6,1996.8,128.6z M1978.8,128.1c-0.5,0-1-0.4-1-0.9c0-0.5,0.4-1,0.9-1.1c0.7-0.1,1.3-0.1,2-0.2
		c0.5,0,1,0.4,1.1,0.9s-0.4,1-0.9,1.1C1980.2,128,1979.6,128,1978.8,128.1C1978.9,128.1,1978.9,128.1,1978.8,128.1z M1988.8,127.9
		C1988.8,127.9,1988.8,127.9,1988.8,127.9c-0.6,0-1.2-0.1-1.7-0.1l-0.3,0c-0.6,0-1-0.5-1-1c0-0.6,0.5-1,1-1l0.3,0
		c0.6,0,1.1,0.1,1.7,0.1c0.6,0,1,0.5,0.9,1.1C1989.8,127.5,1989.4,127.9,1988.8,127.9z"/>
</g>
<g>
	<path class="white" d="M1846.9,150.7l-54.6,7.8c-2.4,0.3-4.6-1.3-4.9-3.7l-11-76.5c-0.3-2.4,1.3-4.6,3.7-4.9l54.6-7.8
		c2.4-0.3,4.6,1.3,4.9,3.7l11,76.5C1850.9,148.1,1849.3,150.3,1846.9,150.7z"/>
	<path class="black" d="M1802.6,142.2c-0.5,0-0.9-0.4-1-0.9c-0.1-0.5,0.3-1.1,0.8-1.1l31-4.4c0.5-0.1,1.1,0.3,1.1,0.8
		c0.1,0.5-0.3,1.1-0.8,1.1l-31,4.4C1802.6,142.2,1802.6,142.2,1802.6,142.2z"/>
	<g>
		<path class="black" d="M1820.5,121.5c-0.4,0-0.8-0.3-1-0.7l-2.3-7.1c-0.2-0.5,0.1-1.1,0.6-1.3c0.5-0.2,1.1,0.1,1.3,0.6l2.3,7.1
			c0.2,0.5-0.1,1.1-0.6,1.3C1820.7,121.5,1820.6,121.5,1820.5,121.5z"/>
		<path class="black" d="M1817,122.7c-0.4,0-0.8-0.3-1-0.7c-0.2-0.5,0.1-1.1,0.6-1.3l3.5-1.2c0.1,0,0.2,0,0.3,0l6.2-0.2
			c0.5,0,1,0.4,1,1c0,0.6-0.4,1-1,1l-6,0.2l-3.4,1.1C1817.2,122.7,1817.1,122.7,1817,122.7z"/>
		<path class="black" d="M1824.4,124.4c-0.2,0-0.4-0.1-0.6-0.2l-3.9-2.8c-0.3-0.2-0.4-0.5-0.4-0.8c0-0.3,0.2-0.6,0.5-0.8l3.7-2.4
			c0.5-0.3,1.1-0.2,1.4,0.3c0.3,0.5,0.2,1.1-0.3,1.4l-2.5,1.6l2.7,2c0.4,0.3,0.5,1,0.2,1.4C1825,124.2,1824.7,124.4,1824.4,124.4z"
			/>
		<path class="yellow" d="M1820.7,113.7c0.4,1.4-0.5,2.7-1.8,3.1c-1.4,0.4-2.7-0.5-3.1-1.8c-0.4-1.4,0.5-2.7,1.8-3.1
			C1818.9,111.6,1820.3,112.4,1820.7,113.7z"/>
		<path class="yellow" d="M1823.8,94c3.1-7.8-3.6-13.7-9.2-11.2c-7.7,3.3-4.9,10.1-4.4,12c-10.2,1.7-13.9,8.1-13.9,8.1
			s-2.2-1.7-3.3-1.2c-1.1,0.4,1.2,3,1.2,3s-1.3-0.2-2.7,0.7c-1.4,0.9,3.5,2.6,3.5,2.6c1.5,6.5,8.1,9.6,14.9,9.5
			c0.6,1.1,1.9,1.8,3.3,1.4c1.1-0.3,1.9-1.1,2.1-2.2c3.8-1,7.2-3.1,9.3-6.1C1831,100.8,1822.3,97.7,1823.8,94z"/>
		<path class="black" d="M1821.9,89.8c0,0,1.8-1.9,1.8-2.9l5,0.6l-4.2,3L1821.9,89.8z"/>
		<path class="black" d="M1819.4,87.5c0.2,0.8-0.3,1.6-1,1.8c-0.8,0.2-1.6-0.3-1.8-1c-0.2-0.8,0.3-1.6,1-1.8
			C1818.4,86.3,1819.2,86.7,1819.4,87.5z"/>
		<path class="black" d="M1808.9,111.7c-0.3,0-0.7-0.1-1-0.3c-0.3-0.2-0.5-0.4-0.6-0.7c-0.9,0.3-1.9,0.4-2.6,0
			c-1.1-0.6-1.2-1.9-0.9-2.8c0.2-0.5,0.8-0.8,1.3-0.6c0.5,0.2,0.8,0.8,0.6,1.3c0,0.1-0.1,0.3,0,0.4c0.3,0.1,1.3-0.2,2.1-0.6
			c0.4-0.2,0.8-0.1,1.1,0.2c0.3,0.3,0.4,0.7,0.3,1c0.5-0.1,1.4-0.7,2.2-1.3c0.3-0.2,0.7-0.3,1-0.2c0.3,0.1,0.5,0.4,0.6,0.7
			c0,0,0,0,0,0c4.8-2.2,5.6-9.6,5.6-9.7c0.1-0.5,0.5-1,1.1-0.9c0.5,0.1,0.9,0.5,0.9,1.1c0,0.4-1,8.7-6.7,11.3
			c-0.8,0.5-1.5,0.3-1.9,0.1c-0.1-0.1-0.2-0.1-0.3-0.2C1810.8,111.1,1809.8,111.7,1808.9,111.7z"/>
		<path class="black" d="M1814.6,126.7c-0.4,0-0.8-0.3-1-0.7l-2.1-6.6c-0.2-0.5,0.1-1.1,0.6-1.3c0.5-0.2,1.1,0.1,1.3,0.6l2.1,6.6
			c0.2,0.5-0.1,1.1-0.6,1.3C1814.8,126.6,1814.7,126.7,1814.6,126.7z"/>
		<path class="black" d="M1810.8,127.9c-0.4,0-0.8-0.3-1-0.7c-0.2-0.5,0.1-1.1,0.6-1.3l3.9-1.3c0.1,0,0.2-0.1,0.4,0l6.8,0.4
			c0.6,0,1,0.5,0.9,1.1c0,0.6-0.5,1-1.1,0.9l-6.6-0.4l-3.7,1.2C1811,127.9,1810.9,127.9,1810.8,127.9z"/>
		<path class="black" d="M1818.8,129.7c-0.2,0-0.4-0.1-0.6-0.2l-4.2-3.1c-0.3-0.2-0.4-0.6-0.4-0.9c0-0.4,0.2-0.7,0.6-0.8l4.3-2
			c0.5-0.2,1.1,0,1.3,0.5c0.2,0.5,0,1.1-0.5,1.3l-2.8,1.3l2.9,2.1c0.4,0.3,0.5,1,0.2,1.4C1819.4,129.6,1819.1,129.7,1818.8,129.7z"
			/>
	</g>
</g>
</svg>
