<?xml version="1.0" encoding="utf-8"?>
<!-- Generator: Adobe Illustrator 22.1.0, SVG Export Plug-In . SVG Version: 6.00 Build 0)  -->
<svg version="1.1" id="Tour_02_Flashcards" xmlns="http://www.w3.org/2000/svg" xmlns:xlink="http://www.w3.org/1999/xlink" x="0px" y="0px"
	 viewBox="0 0 251 119" style="enable-background:new 0 0 251 119;" xml:space="preserve">
<style type="text/css">
	.white{fill:#FFFFFF;}
	.gray200{fill:#EBEBEB;}
	.black{fill:#231F20;}
	.yellow{fill:#E6D420;}
	.st4{clip-path:url(#SVGID_2_);}
</style>
<g>
	<g>
		<path class="white" d="M56.1,77.9L16.5,85c-2.4,0.4-4.6-1.2-5.1-3.5L1.3,25.1c-0.4-2.4,1.2-4.6,3.5-5.1L44.5,13
			c2.4-0.4,4.6,1.2,5.1,3.5l10.1,56.4C60.1,75.3,58.5,77.5,56.1,77.9z"/>
		<path class="gray200" d="M15.7,86.1c-1.1,0-2.1-0.3-3.1-1c-1.2-0.8-2-2-2.2-3.5L0.4,25.3c-0.5-2.9,1.4-5.7,4.3-6.2L44.4,12
			c1.4-0.3,2.8,0.1,4,0.9c1.2,0.8,2,2,2.2,3.5l10.1,56.4c0.5,2.9-1.4,5.7-4.3,6.2l0,0L16.6,86C16.3,86.1,16,86.1,15.7,86.1z
			 M45.3,13.9c-0.2,0-0.4,0-0.6,0.1L5.1,21c-1.8,0.3-3,2.1-2.7,3.9l10.1,56.4c0.2,0.9,0.6,1.7,1.4,2.2c0.7,0.5,1.6,0.7,2.5,0.6
			L55.9,77c1.8-0.3,3-2.1,2.7-3.9L48.6,16.7c-0.2-0.9-0.6-1.7-1.4-2.2C46.6,14.1,46,13.9,45.3,13.9z M56.1,77.9L56.1,77.9L56.1,77.9
			z"/>
	</g>
	<path class="black" d="M23,73.7c-0.5,0-0.9-0.3-1-0.8c-0.1-0.5,0.3-1.1,0.8-1.2l23.6-4.2c0.5-0.1,1.1,0.3,1.2,0.8
		c0.1,0.5-0.3,1.1-0.8,1.2l-23.6,4.2C23.2,73.7,23.1,73.7,23,73.7z"/>
	<g>
		<path class="yellow" d="M44.3,43.8c1.1,6-1.4,11.8-5.8,14.9c-1.6,1.1-3.7-0.4-5.7,0c-2.2,0.4-4.1,2.5-6.1,1.8
			c-4.9-1.6-8.9-6-9.9-11.7c-0.8-4.4,0.3-9,4.7-11.1c2.6-1.2,4.1-0.4,6.4-0.3c3.2,0.1,5.5-2.9,8.7-2.6c2.9,0.2,5.3,2.6,6.5,5.1
			C43.6,41,44.1,42.4,44.3,43.8z"/>
		<path class="black" d="M29.7,42.3c-0.4,0-0.7-0.2-0.9-0.5c-1.2-2.2-2.4-7.5,1.8-11.2c0.4-0.4,1-0.3,1.4,0.1c0.4,0.4,0.3,1-0.1,1.4
			c-4.1,3.6-1.4,8.7-1.3,8.7c0.3,0.5,0.1,1.1-0.4,1.4C30,42.2,29.8,42.3,29.7,42.3z"/>
		<path class="black" d="M24.6,28.2c2.2,0.8,3,3.9,3,3.9s-2.7,1.8-4.9,1c-2.2-0.8-3-3.9-3-3.9S22.4,27.4,24.6,28.2z"/>
		<path class="black" d="M27.4,42.5c-1.2,0-1.9-0.1-2-0.2c-0.5-0.1-0.9-0.6-0.8-1.2c0.1-0.5,0.6-0.9,1.2-0.8c0.1,0,3.8,0.7,7.5-1.4
			c0.5-0.3,1.1-0.1,1.4,0.4c0.3,0.5,0.1,1.1-0.4,1.4C31.7,42.2,29.1,42.5,27.4,42.5z"/>
	</g>
</g>
<g>
	<g>
		<path class="white" d="M112,103.5l-40.2-3.1c-2.4-0.2-4.2-2.3-4-4.7l4.4-57.1c0.2-2.4,2.3-4.2,4.7-4l40.2,3.1c2.4,0.2,4.2,2.3,4,4.7
			l-4.4,57.1C116.5,101.8,114.4,103.6,112,103.5z"/>
		<path class="gray200" d="M112.4,104.5c-0.1,0-0.3,0-0.4,0l0,0l-40.2-3.1c-1.4-0.1-2.7-0.8-3.7-1.9c-0.9-1.1-1.4-2.5-1.3-3.9l4.4-57.1
			c0.2-2.9,2.8-5.2,5.8-4.9l40.2,3.1c1.4,0.1,2.7,0.8,3.7,1.9c0.9,1.1,1.4,2.5,1.3,3.9l-4.4,57.1
			C117.5,102.3,115.1,104.5,112.4,104.5z M112.1,102.5c1.8,0.1,3.5-1.2,3.6-3.1l4.4-57.1c0.1-0.9-0.2-1.8-0.8-2.4
			c-0.6-0.7-1.4-1.1-2.3-1.2l-40.2-3.1c-1.8-0.1-3.5,1.2-3.6,3.1l-4.4,57.1c-0.1,0.9,0.2,1.8,0.8,2.4c0.6,0.7,1.4,1.1,2.3,1.2
			L112.1,102.5z"/>
	</g>
</g>
<g>
	<g>
		<path class="white" d="M231.5,102.7l-39.2-9.2c-2.3-0.6-3.8-2.9-3.2-5.2l13.1-55.8c0.6-2.3,2.9-3.8,5.2-3.2l39.2,9.2
			c2.3,0.6,3.8,2.9,3.2,5.2l-13.1,55.8C236.2,101.8,233.9,103.3,231.5,102.7z"/>
		<path class="gray200" d="M232.5,103.9c-0.4,0-0.8,0-1.2-0.1l0,0l-39.2-9.2c-1.4-0.3-2.6-1.2-3.3-2.4c-0.8-1.2-1-2.7-0.7-4l13.1-55.8
			c0.7-2.9,3.6-4.7,6.4-4l39.2,9.2c1.4,0.3,2.6,1.2,3.3,2.4c0.8,1.2,1,2.7,0.7,4l-13.1,55.8C237.2,102.2,235,103.9,232.5,103.9z
			 M231.8,101.8c1.8,0.4,3.6-0.7,4-2.5l13.1-55.8c0.2-0.9,0.1-1.8-0.4-2.5c-0.5-0.8-1.2-1.3-2.1-1.5l-39.2-9.2
			c-1.8-0.4-3.6,0.7-4,2.5l-13.1,55.8c-0.2,0.9-0.1,1.8,0.4,2.5c0.5,0.8,1.2,1.3,2.1,1.5L231.8,101.8z"/>
	</g>
	<path class="black" d="M226.6,91.3c-0.1,0-0.2,0-0.2,0L203,85.8c-0.5-0.1-0.9-0.7-0.7-1.2c0.1-0.5,0.7-0.9,1.2-0.7l23.4,5.5
		c0.5,0.1,0.9,0.7,0.7,1.2C227.5,91,227.1,91.3,226.6,91.3z"/>
	<g>
		<g>
			<defs>
				<path id="SVGID_1_" d="M236.9,56.7c0.3,0.2,0.5,0.6,0.3,1c-1,2.6-5.2,12.5-13.2,15c-8,2.6-17.2-3.1-19.5-4.6
					c-0.3-0.2-0.5-0.6-0.3-1c1-2.6,5.2-12.5,13.2-15C225.4,49.5,234.6,55.2,236.9,56.7z"/>
			</defs>
			<use xlink:href="#SVGID_1_"  style="overflow:visible;fill:#E6D420;"/>
			<clipPath id="SVGID_2_">
				<use xlink:href="#SVGID_1_"  style="overflow:visible;"/>
			</clipPath>
			<g class="st4">
				<path class="white" d="M235.6,66.7c-0.4,0-0.8-0.3-1-0.7l-4.6-14.4c-0.2-0.5,0.1-1.1,0.7-1.3c0.5-0.2,1.1,0.1,1.3,0.7l4.6,14.4
					c0.2,0.5-0.1,1.1-0.7,1.3C235.8,66.6,235.7,66.7,235.6,66.7z"/>
				<path class="white" d="M210.4,74.6c-0.4,0-0.8-0.3-1-0.7l-4.6-14.4c-0.2-0.5,0.1-1.1,0.7-1.3c0.5-0.2,1.1,0.1,1.3,0.7l4.6,14.4
					c0.2,0.5-0.1,1.1-0.7,1.3C210.6,74.6,210.5,74.6,210.4,74.6z"/>
			</g>
		</g>
		<path class="black" d="M212.2,66.1c-0.4,0-0.8-0.3-1-0.7c-0.2-0.5,0.1-1.1,0.7-1.3l17-5.4c0.5-0.2,1.1,0.1,1.3,0.7
			c0.2,0.5-0.1,1.1-0.7,1.3l-17,5.4C212.4,66.1,212.3,66.1,212.2,66.1z"/>
		<path class="black" d="M224.1,63.9c-0.4,0-0.8-0.3-1-0.7l-0.9-2.9c-0.2-0.5,0.1-1.1,0.7-1.3c0.5-0.2,1.1,0.1,1.3,0.7l0.9,2.9
			c0.2,0.5-0.1,1.1-0.7,1.3C224.3,63.9,224.2,63.9,224.1,63.9z"/>
		<path class="black" d="M221,64.9c-0.4,0-0.8-0.3-1-0.7l-0.9-2.9c-0.2-0.5,0.1-1.1,0.7-1.3c0.5-0.2,1.1,0.1,1.3,0.7l0.9,2.9
			c0.2,0.5-0.1,1.1-0.7,1.3C221.2,64.9,221.1,64.9,221,64.9z"/>
		<path class="black" d="M217.9,65.9c-0.4,0-0.8-0.3-1-0.7l-0.9-2.9c-0.2-0.5,0.1-1.1,0.7-1.3c0.5-0.2,1.1,0.1,1.3,0.7l0.9,2.9
			c0.2,0.5-0.1,1.1-0.7,1.3C218.1,65.9,218,65.9,217.9,65.9z"/>
		<path class="black" d="M214.7,66.9c-0.4,0-0.8-0.3-1-0.7l-0.9-2.9c-0.2-0.5,0.1-1.1,0.7-1.3c0.5-0.2,1.1,0.1,1.3,0.7l0.9,2.9
			c0.2,0.5-0.1,1.1-0.7,1.3C214.9,66.9,214.8,66.9,214.7,66.9z"/>
		<path class="black" d="M227.3,62.9c-0.4,0-0.8-0.3-1-0.7l-0.9-2.9c-0.2-0.5,0.1-1.1,0.7-1.3c0.5-0.2,1.1,0.1,1.3,0.7l0.9,2.9
			c0.2,0.5-0.1,1.1-0.7,1.3C227.5,62.9,227.4,62.9,227.3,62.9z"/>
		<path class="black" d="M212.6,65.9c-0.4,0-0.8-0.3-1-0.7c-0.2-0.5,0.1-1.1,0.7-1.3l16.2-5.1c0.5-0.2,1.1,0.1,1.3,0.7
			s-0.1,1.1-0.7,1.3l-16.2,5.1C212.8,65.9,212.7,65.9,212.6,65.9z"/>
	</g>
</g>
<path class="yellow" d="M107.1,58.7c2.3-4.1,2.4-10.3-0.9-12.1c-3.2-1.8-8.5,1.5-10.8,5.6c-2,3.6-1.4,7.3,1,9.4L79.1,90.6
	c0,0-0.4,1.7,1,2.5c1.4,0.8,2.6-0.4,2.6-0.4l15.9-29.9C101.6,63.7,105.1,62.3,107.1,58.7z"/>
<path class="black" d="M100.5,61.1c0,0-0.1,0-0.1,0c-0.6-0.1-1.1-0.3-1.7-0.6c-1.3-0.7-2.1-1.9-2.4-3.4c-0.3-1.4,0.1-3.1,0.9-4.5
	c0.3-0.5,0.6-0.9,1-1.4c0.3-0.4,1-0.5,1.4-0.1c0.4,0.3,0.5,1,0.1,1.4c-0.3,0.4-0.6,0.7-0.8,1.1c-0.6,1.1-0.8,2.2-0.7,3.2
	c0.2,0.9,0.6,1.6,1.4,2c0.3,0.2,0.6,0.3,1,0.3c0.5,0.1,0.9,0.6,0.9,1.1C101.5,60.7,101,61.1,100.5,61.1z"/>
<g>
	<g>
		<path class="white" d="M175.6,79h-40.3c-2.4,0-4.4-2-4.4-4.4V17.4c0-2.4,2-4.4,4.4-4.4h40.3c2.4,0,4.4,2,4.4,4.4v57.3
			C180,77,178,79,175.6,79z"/>
		<path class="gray200" d="M175.6,80h-40.3c-3,0-5.4-2.4-5.4-5.4V17.4c0-3,2.4-5.4,5.4-5.4h40.3c3,0,5.4,2.4,5.4,5.4v57.3
			C181,77.6,178.6,80,175.6,80z M135.4,14c-1.9,0-3.4,1.5-3.4,3.4v57.3c0,1.9,1.5,3.4,3.4,3.4h40.3c1.9,0,3.4-1.5,3.4-3.4V17.4
			c0-1.9-1.5-3.4-3.4-3.4H135.4z"/>
	</g>
	<path class="black" d="M168,68h-24c-0.6,0-1-0.4-1-1s0.4-1,1-1h24c0.6,0,1,0.4,1,1S168.6,68,168,68z"/>
	<g>
		<path class="black" d="M159.9,54.3c-0.5,0-0.9-0.3-1-0.8l-1-5.6c-0.1-0.5,0.3-1.1,0.8-1.2c0.5-0.1,1.1,0.3,1.2,0.8l1,5.6
			c0.1,0.5-0.3,1.1-0.8,1.2C160,54.2,160,54.3,159.9,54.3z"/>
		<path class="black" d="M164.6,54.8c0,0-0.1,0-0.1,0l-4.6-0.5l-2.7,0.5c-0.5,0.1-1.1-0.3-1.2-0.8c-0.1-0.5,0.3-1.1,0.8-1.2l2.8-0.5
			c0.1,0,0.2,0,0.3,0l4.7,0.5c0.5,0.1,0.9,0.6,0.9,1.1C165.6,54.4,165.1,54.8,164.6,54.8z"/>
		<path class="black" d="M162.5,56.8c-0.3,0-0.5-0.1-0.7-0.3l-2.6-2.6c-0.2-0.2-0.3-0.6-0.3-0.9c0.1-0.3,0.3-0.6,0.6-0.7l3.1-1.4
			c0.5-0.2,1.1,0,1.3,0.5c0.2,0.5,0,1.1-0.5,1.3l-1.8,0.8l1.6,1.6c0.4,0.4,0.4,1,0,1.4C163,56.7,162.8,56.8,162.5,56.8z"/>
		<path class="yellow" d="M160.8,48.1c0.1,1.1-0.6,2-1.7,2.1c-1.1,0.1-2-0.6-2.2-1.7c-0.1-1.1,0.6-2,1.7-2.1
			C159.7,46.3,160.6,47,160.8,48.1z"/>
		<path class="yellow" d="M165.3,33.4c3.2-5.6-1.2-10.8-5.8-9.6c-6.2,1.7-4.8,7.2-4.7,8.6c-7.9,0.2-11.4,4.7-11.4,4.7s-1.5-1.5-2.4-1.3
			c-0.9,0.2,0.6,2.4,0.6,2.4s-1-0.3-2.1,0.2c-1.2,0.6,2.4,2.3,2.4,2.3c0.4,5.1,5.1,8.2,10.3,8.8c0.3,0.9,1.3,1.5,2.3,1.4
			c0.9-0.1,1.5-0.7,1.8-1.4c3-0.4,5.8-1.6,7.7-3.7C170,39.4,163.7,36.1,165.3,33.4z"/>
		<path class="black" d="M164.3,30.1c0,0,1.6-1.2,1.7-2l3.8,1l-3.5,1.8L164.3,30.1z"/>
		<path class="black" d="M162.7,28.1c0.1,0.6-0.4,1.2-1,1.2c-0.6,0.1-1.2-0.4-1.2-1s0.4-1.2,1-1.2C162.1,27,162.6,27.4,162.7,28.1z"/>
		<path class="black" d="M152.3,45.5c-0.4,0-0.8-0.1-1.1-0.4c-0.2-0.1-0.3-0.3-0.4-0.5c-0.7,0.1-1.5,0.1-2-0.3
			c-0.9-0.7-0.9-1.8-0.4-2.6c0.3-0.5,0.9-0.7,1.4-0.4c0.5,0.3,0.6,0.8,0.4,1.3c0.3,0,0.8-0.1,1.3-0.2c0.4-0.1,0.8,0,1.1,0.3
			c0.2,0.2,0.2,0.4,0.2,0.7c0.4-0.1,0.9-0.4,1.3-0.6c0.3-0.2,0.7-0.2,1,0c0.2,0.1,0.3,0.3,0.4,0.5c3.6-1.3,4.9-6.5,4.9-6.5
			c0.1-0.5,0.7-0.9,1.2-0.7c0.5,0.1,0.9,0.7,0.7,1.2c-0.1,0.3-1.7,6.6-6.5,8c-0.8,0.3-1.3,0.1-1.7-0.1c0,0-0.1-0.1-0.1-0.1
			C153.6,45.3,153,45.5,152.3,45.5z M155.2,43.4L155.2,43.4L155.2,43.4z"/>
		<path class="black" d="M154.9,57.5c-0.5,0-0.9-0.3-1-0.8l-0.9-5.3c-0.1-0.5,0.3-1.1,0.8-1.2c0.5-0.1,1.1,0.3,1.2,0.8l0.9,5.3
			c0.1,0.5-0.3,1.1-0.8,1.2C155,57.5,154.9,57.5,154.9,57.5z"/>
		<path class="black" d="M160,58.6c-0.1,0-0.1,0-0.2,0l-4.9-1L152,58c-0.5,0.1-1.1-0.3-1.2-0.8s0.3-1.1,0.8-1.2l3.1-0.5
			c0.1,0,0.3,0,0.4,0l5.1,1.1c0.5,0.1,0.9,0.6,0.8,1.2C160.9,58.3,160.4,58.6,160,58.6z"/>
		<path class="black" d="M157.7,60.3c-0.3,0-0.5-0.1-0.7-0.3l-2.9-2.8c-0.3-0.2-0.4-0.6-0.3-0.9c0.1-0.3,0.3-0.6,0.7-0.7l3.5-1.1
			c0.5-0.2,1.1,0.1,1.3,0.7c0.2,0.5-0.1,1.1-0.7,1.3l-1.9,0.6l1.7,1.6c0.4,0.4,0.4,1,0,1.4C158.2,60.2,158,60.3,157.7,60.3z"/>
	</g>
</g>
</svg>
