<?xml version="1.0" encoding="utf-8"?>
<!-- Generator: Adobe Illustrator 22.1.0, SVG Export Plug-In . SVG Version: 6.00 Build 0)  -->
<svg version="1.1" id="Tour_02_Resources" xmlns="http://www.w3.org/2000/svg" xmlns:xlink="http://www.w3.org/1999/xlink" x="0px" y="0px"
	 viewBox="0 0 178 119" style="enable-background:new 0 0 178 119;" xml:space="preserve">
<style type="text/css">
	.yellow{fill:#E6D420;}
	.black{fill:#231F20;}
	.white{fill:#FFFFFF;}
	.gray200{fill:#EBEBEB;}
</style>
<g>
	<path class="yellow" d="M162.7,66.5c0.8,0.5,1.9,0.6,2.9,0.3l10.2-3.2c1.9-0.6,2.6-2.3,2-4.2c-0.6-1.9-2.3-3.3-4.2-2.7l-10.2,3.2
		c-1.9,0.6-3,2.6-2.3,4.5C161.3,65.3,162,66,162.7,66.5z"/>
	<path class="black" d="M119.9,90c0.4,1.3,1.1,1.5,1.8,1.3l41-13c0.5-0.2,0.9-0.5,1.1-1c0.2-0.5,0.3-1,0.1-1.5
		c-0.2-0.9-0.4-1.8-0.6-2.7c-0.2-1-0.3-2.7-1.3-3.3c-0.5-0.3-1.1-0.4-1.6-0.2c-2.1,0.8-0.9,4-0.8,5.6l-39.1,12.4
		C120.1,87.9,119.6,88.6,119.9,90z"/>
	<path class="black" d="M56,95.2l0.8,2.6c0,0-3.9,1.1-4.3-0.2C52.1,96.4,56,95.2,56,95.2z"/>
	<path class="yellow" d="M156.2,65.6c1.8,5.7-0.2,7.7-0.2,7.7l0.1,0.1L83.2,96.4c-6.5,2-13.3,3-20.2,2.8c-2.6-0.1-5-0.3-6.6-0.8
		l-0.9-3.5c1.6-1.7,4.5-3.7,7.4-5.5c4.4-2.7,9.2-4.9,14.2-6.5l74.7-23.6C152.4,59.5,154.7,60.6,156.2,65.6z"/>
	<path class="black" d="M162.9,55.9c0,0,3.3,0.4,5,6.1c1.8,5.7-0.7,7.9-0.7,7.9l-11.2,3.5l-0.1-0.1c0,0,2-2,0.2-7.7
		c-1.6-5-3.8-6.2-4.4-6.3L162.9,55.9z"/>
</g>
<path class="black" d="M21.4,68.1c-0.9-0.7-2-1.7-3.5-2.9c-3.9-3.2-4-9.4-4.7-13.4c1.9-0.8,3.2-2.5,3-4.3c-0.2-2.4-2.9-4.1-5.9-3.8
	c-3,0.3-5.3,2.5-5.1,4.8c0.2,1.8,1.8,3.3,3.9,3.7c0.2,4,1.3,9.9-2.2,14.2c-1.1,1.3-2,2.4-2.7,3.3c-2.6,1-4.2,2.2-4.1,3.4
	c0.1,1.1,0.1,0.8,0.2,2c0.2,2.2,6.1,3.4,13.2,2.7c7.1-0.7,12.6-3,12.4-5.2c-0.1-1.1-0.1-0.8-0.2-2C25.8,69.5,24.1,68.6,21.4,68.1z"
	/>
<path class="yellow" d="M47.9,54.4c-0.8-0.9-1.7-2-3-3.4c-3.4-3.7-2.6-9.9-2.7-13.9c2-0.5,3.5-2,3.6-3.8c0.1-2.4-2.2-4.4-5.3-4.6
	c-3-0.2-5.6,1.6-5.7,4c-0.1,1.8,1.3,3.5,3.3,4.2c-0.3,4-0.2,10-4.3,13.7c-1.3,1.2-2.3,2.1-3.1,2.8C28,54,26.3,55,26.2,56.2
	c-0.1,1.1,0,0.8-0.1,2c-0.1,2.2,5.6,4.3,12.7,4.6c7.1,0.4,12.9-1.1,13.1-3.3c0.1-1.1,0-0.8,0.1-2C52,56.4,50.4,55.2,47.9,54.4z"/>
<g>
	<g>
		<path class="white" d="M108,51.3c-0.3,2.2-2.3,3.8-4.5,3.5l-27.8-3.4c-2.2-0.3-3.8-2.3-3.5-4.5L75.7,19c0.3-2.2,2.3-3.8,4.5-3.5
			L108,19c2.2,0.3,3.8,2.3,3.5,4.5L108,51.3z"/>
		<path class="gray200" d="M104.1,55.8c-0.2,0-0.4,0-0.6,0l-27.8-3.4c-2.7-0.3-4.7-2.8-4.4-5.6l3.4-27.8c0.3-2.7,2.9-4.7,5.6-4.4
			l27.8,3.4c2.7,0.3,4.7,2.8,4.4,5.6L109,51.4c-0.2,1.3-0.8,2.5-1.9,3.3C106.3,55.4,105.2,55.8,104.1,55.8z M79.6,16.5
			c-1.5,0-2.8,1.1-3,2.7L73.2,47c-0.2,1.7,1,3.2,2.6,3.4l27.8,3.4c0.8,0.1,1.6-0.1,2.2-0.6c0.6-0.5,1-1.2,1.1-2l0,0l3.4-27.8
			c0.2-1.7-1-3.2-2.6-3.4L80,16.5C79.9,16.5,79.8,16.5,79.6,16.5z"/>
	</g>
	<path class="black" d="M95.6,35.6c-0.3,2.1-2.2,3.6-4.3,3.3c-2.1-0.3-3.6-2.2-3.3-4.3c0.3-2.1,2.2-3.6,4.3-3.3
		C94.4,31.6,95.9,33.5,95.6,35.6z"/>
	<path class="black" d="M103.1,45.1c-0.3,2.1-2.2,3.6-4.3,3.3c-2.1-0.3-3.6-2.2-3.3-4.3c0.3-2.1,2.2-3.6,4.3-3.3
		C101.8,41.1,103.3,43,103.1,45.1z"/>
	<path class="black" d="M88.2,26.1c-0.3,2.1-2.2,3.6-4.3,3.3c-2.1-0.3-3.6-2.2-3.3-4.3c0.3-2.1,2.2-3.6,4.3-3.3
		C87,22.1,88.5,24,88.2,26.1z"/>
	<path class="black" d="M101.8,23.9c2.1,0.3,3.6,2.2,3.3,4.3c-0.3,2.1-2.2,3.6-4.3,3.3c-2.1-0.3-3.6-2.2-3.3-4.3
		C97.8,25.2,99.7,23.7,101.8,23.9z"/>
	<path class="black" d="M82.8,38.8c2.1,0.3,3.6,2.2,3.3,4.3c-0.3,2.1-2.2,3.6-4.3,3.3c-2.1-0.3-3.6-2.2-3.3-4.3
		C78.8,40,80.7,38.5,82.8,38.8z"/>
</g>
</svg>
