<?xml version="1.0" encoding="utf-8"?>
<!-- Generator: Adobe Illustrator 22.1.0, SVG Export Plug-In . SVG Version: 6.00 Build 0)  -->
<svg version="1.1" id="Lessons_Fanned-Items" xmlns="http://www.w3.org/2000/svg" xmlns:xlink="http://www.w3.org/1999/xlink" x="0px" y="0px"
	 viewBox="0 0 189 93" style="enable-background:new 0 0 189 93;" xml:space="preserve">
<style type="text/css">
	.white{fill:#FFFFFF;}
	.yellow{fill:#E6D420;}
	.black{fill:#231F20;}
</style>
<g>
	<path class="white" d="M108.9,102.7l-73.3,12c-2.4,0.4-4.6-1.2-5-3.6l-15.1-92c-0.4-2.4,1.2-4.6,3.6-5l73.3-12c2.4-0.4,4.6,1.2,5,3.6
		l15.1,92C112.9,100,111.3,102.3,108.9,102.7z"/>
	<circle class="yellow" cx="34.3" cy="32.2" r="4.6"/>
	<path class="black" d="M45.6,31.2c-0.5,0-0.9-0.3-1-0.8c-0.1-0.5,0.3-1.1,0.8-1.1L75,24.3c0.5-0.1,1.1,0.3,1.1,0.8
		c0.1,0.5-0.3,1.1-0.8,1.1l-29.6,4.9C45.7,31.2,45.6,31.2,45.6,31.2z"/>
	<circle class="black" cx="41.6" cy="76.6" r="4.6"/>
	<path class="black" d="M52.9,75.5c-0.5,0-0.9-0.3-1-0.8c-0.1-0.5,0.3-1.1,0.8-1.1L92,67c0.5-0.1,1.1,0.3,1.1,0.8
		c0.1,0.5-0.3,1.1-0.8,1.1l-39.3,6.5C53,75.5,53,75.5,52.9,75.5z"/>
	<circle class="black" cx="36.7" cy="47" r="4.6"/>
	<path class="black" d="M47.6,43.4c-0.5,0-0.9-0.3-1-0.8c-0.1-0.5,0.3-1.1,0.8-1.1l36.4-6c0.5-0.1,1.1,0.3,1.1,0.8
		c0.1,0.5-0.3,1.1-0.8,1.1l-36.4,6C47.7,43.4,47.7,43.4,47.6,43.4z"/>
	<path class="black" d="M48.4,48.5c-0.5,0-0.9-0.3-1-0.8c-0.1-0.5,0.3-1.1,0.8-1.1L87.6,40c0.5-0.1,1.1,0.3,1.1,0.8
		c0.1,0.5-0.3,1.1-0.8,1.1l-39.3,6.5C48.5,48.5,48.5,48.5,48.4,48.5z"/>
	<circle class="yellow" cx="44" cy="91.4" r="4.6"/>
	<path class="black" d="M54.9,87.8c-0.5,0-0.9-0.3-1-0.8c-0.1-0.5,0.3-1.1,0.8-1.1l42.9-7.1c0.5-0.1,1.1,0.3,1.1,0.8
		c0.1,0.5-0.3,1.1-0.8,1.1l-42.9,7.1C55,87.8,55,87.8,54.9,87.8z"/>
	<path class="black" d="M55.8,92.8c-0.5,0-0.9-0.3-1-0.8c-0.1-0.5,0.3-1.1,0.8-1.1L83,86.3c0.5-0.1,1.1,0.3,1.1,0.8
		c0.1,0.5-0.3,1.1-0.8,1.1l-27.4,4.5C55.9,92.8,55.8,92.8,55.8,92.8z"/>
	<circle class="yellow" cx="39.1" cy="61.8" r="4.6"/>
	<path class="black" d="M50,58.2c-0.5,0-0.9-0.3-1-0.8c-0.1-0.5,0.3-1.1,0.8-1.1l36.4-6c0.5-0.1,1.1,0.3,1.1,0.8
		c0.1,0.5-0.3,1.1-0.8,1.1l-36.4,6C50.2,58.2,50.1,58.2,50,58.2z"/>
	<path class="black" d="M50.9,63.3c-0.5,0-0.9-0.3-1-0.8c-0.1-0.5,0.3-1.1,0.8-1.1l22.4-3.7c0.5-0.1,1.1,0.3,1.1,0.8
		c0.1,0.5-0.3,1.1-0.8,1.1L51,63.2C51,63.3,50.9,63.3,50.9,63.3z"/>
</g>
<g>
	<path class="black" d="M163.9,122.1c-0.4,1.8-2.2,2.9-4,2.5l-69.7-15.8c-1.8-0.4-2.9-2.2-2.5-4l21.9-98.3c0.4-1.8,2.2-2.9,4-2.5
		l70,15.8c1.8,0.4,2.9,2.2,2.5,4L163.9,122.1z"/>
	<path class="white" d="M130.5,109c-0.4,1.8-2.2,2.9-4,2.5c-1.8-0.4-2.9-2.2-2.5-4c0.4-1.8,2.2-2.9,4-2.5S130.9,107.2,130.5,109"/>
	<path class="white" d="M152.4,19.1C152.4,19.1,152.4,19.1,152.4,19.1l-6.9-1.6c-0.4-0.1-0.7-0.5-0.6-0.9c0.1-0.4,0.5-0.7,0.9-0.6
		l6.8,1.5c0.4,0.1,0.7,0.5,0.6,0.9C153.2,18.9,152.8,19.2,152.4,19.1"/>
	<path class="white" d="M143.4,16.3c-0.1,0.4-0.5,0.7-0.9,0.6c-0.4-0.1-0.7-0.5-0.6-0.9c0.1-0.4,0.5-0.7,0.9-0.6
		C143.2,15.5,143.5,15.9,143.4,16.3"/>
	<polyline class="yellow" points="96.4,93.3 114.1,15 178.3,29.5 160.6,107.8 	"/>
	<path class="black" d="M157.9,63.6c-0.1,0-0.2,0-0.2,0L117.7,54c-0.5-0.1-0.9-0.7-0.7-1.2c0.1-0.5,0.7-0.9,1.2-0.7l39.9,9.6
		c0.5,0.1,0.9,0.7,0.7,1.2C158.8,63.3,158.4,63.6,157.9,63.6z"/>
	<path class="black" d="M156.9,68c-0.1,0-0.2,0-0.2,0l-39.9-9.6c-0.5-0.1-0.9-0.7-0.7-1.2c0.1-0.5,0.7-0.9,1.2-0.7l39.9,9.6
		c0.5,0.1,0.9,0.7,0.7,1.2C157.7,67.7,157.3,68,156.9,68z"/>
	<path class="black" d="M155.8,72.4c-0.1,0-0.2,0-0.2,0l-39.9-9.6c-0.5-0.1-0.9-0.7-0.7-1.2c0.1-0.5,0.7-0.9,1.2-0.7l39.9,9.6
		c0.5,0.1,0.9,0.7,0.7,1.2C156.7,72.1,156.3,72.4,155.8,72.4z"/>
	<path class="black" d="M154.8,76.7c-0.1,0-0.2,0-0.2,0l-39.9-9.6c-0.5-0.1-0.9-0.7-0.7-1.2c0.1-0.5,0.7-0.9,1.2-0.7l39.9,9.6
		c0.5,0.1,0.9,0.7,0.7,1.2C155.6,76.4,155.2,76.7,154.8,76.7z"/>
	<path class="black" d="M153.7,81.1c-0.1,0-0.2,0-0.2,0l-39.9-9.6c-0.5-0.1-0.9-0.7-0.7-1.2c0.1-0.5,0.7-0.9,1.2-0.7l39.9,9.6
		c0.5,0.1,0.9,0.7,0.7,1.2C154.6,80.8,154.2,81.1,153.7,81.1z"/>
	<path class="black" d="M152.7,85.4c-0.1,0-0.2,0-0.2,0l-39.9-9.6c-0.5-0.1-0.9-0.7-0.7-1.2c0.1-0.5,0.7-0.9,1.2-0.7l39.9,9.6
		c0.5,0.1,0.9,0.7,0.7,1.2C153.5,85.1,153.1,85.4,152.7,85.4z"/>
	<path class="black" d="M151.6,89.8c-0.1,0-0.2,0-0.2,0l-39.9-9.6c-0.5-0.1-0.9-0.7-0.7-1.2c0.1-0.5,0.7-0.9,1.2-0.7l39.9,9.6
		c0.5,0.1,0.9,0.7,0.7,1.2C152.5,89.5,152.1,89.8,151.6,89.8z"/>
	<g>
		<path class="white" d="M118.2,41.2c0,0-1.1-0.3-1.4,0.8l-0.7,2.8c0,0-0.3,1.1,0.8,1.4l6.8,1.6c0,0,1.1,0.3,1.4-0.8l0.7-2.8
			c0,0,0.3-1.1-0.8-1.3L118.2,41.2z"/>
		<path class="white" d="M129.4,43.9c0,0-1.1-0.3-1.4,0.8l-0.7,2.8c0,0-0.3,1.1,0.8,1.4l6.8,1.6c0,0,1.1,0.3,1.4-0.8l0.7-2.8
			c0,0,0.3-1.1-0.8-1.3L129.4,43.9z"/>
		<path class="white" d="M154.8,42.4c0,0-1.1-0.3-1.4,0.8l-0.7,2.8c0,0-0.3,1.1,0.8,1.4l6.8,1.6c0,0,1.1,0.3,1.4-0.8l0.7-2.8
			c0,0,0.3-1.1-0.8-1.3L154.8,42.4z"/>
		<path class="white" d="M140.5,46.5c0,0-1.1-0.3-1.4,0.8l-0.7,2.8c0,0-0.3,1.1,0.8,1.4l6.8,1.6c0,0,1.1,0.3,1.4-0.8l0.7-2.8
			c0,0,0.3-1.1-0.8-1.3L140.5,46.5z"/>
		<path class="white" d="M136.3,38c0,0-1.1-0.3-1.4,0.8l-0.7,2.8c0,0-0.3,1.1,0.8,1.4l14.1,3.4c0,0,1.1,0.3,1.3-0.8l0.7-2.8
			c0,0,0.3-1.1-0.8-1.4L136.3,38z"/>
		<path class="white" d="M123.9,35c0,0-1.1-0.3-1.4,0.8l-0.7,2.8c0,0-0.3,1.1,0.8,1.4l8,1.9c0,0,1.1,0.3,1.4-0.8l0.7-2.8
			c0,0,0.3-1.1-0.8-1.4L123.9,35z"/>
		<path class="white" d="M151.6,49.2c0,0-1.1-0.3-1.4,0.8l-0.7,2.8c0,0-0.3,1.1,0.8,1.4l11.9,2.9c0,0,1.1,0.3,1.4-0.8l0.7-2.8
			c0,0,0.3-1.1-0.8-1.4L151.6,49.2z"/>
	</g>
</g>
<g>
	<path class="white" d="M125.4,127h-76c-2.4,0-4.4-2-4.4-4.4V27.4c0-2.4,2-4.4,4.4-4.4h76c2.4,0,4.4,2,4.4,4.4v95.3
		C129.7,125,127.8,127,125.4,127z"/>
	<path class="black" d="M100,38H57c-0.6,0-1-0.4-1-1s0.4-1,1-1h43c0.6,0,1,0.4,1,1S100.6,38,100,38z"/>
	<path class="black" d="M88,50H57c-0.6,0-1-0.4-1-1s0.4-1,1-1h31c0.6,0,1,0.4,1,1S88.6,50,88,50z"/>
	<path class="black" d="M88,56H57c-0.6,0-1-0.4-1-1s0.4-1,1-1h31c0.6,0,1,0.4,1,1S88.6,56,88,56z"/>
	<path class="black" d="M88,62H57c-0.6,0-1-0.4-1-1s0.4-1,1-1h31c0.6,0,1,0.4,1,1S88.6,62,88,62z"/>
	<path class="black" d="M88,68H57c-0.6,0-1-0.4-1-1s0.4-1,1-1h31c0.6,0,1,0.4,1,1S88.6,68,88,68z"/>
	<path class="black" d="M109,83H57c-0.6,0-1-0.4-1-1s0.4-1,1-1h52c0.6,0,1,0.4,1,1S109.6,83,109,83z"/>
	<path class="black" d="M116,89H57c-0.6,0-1-0.4-1-1s0.4-1,1-1h59c0.6,0,1,0.4,1,1S116.6,89,116,89z"/>
	<path class="black" d="M116,114H57c-0.6,0-1-0.4-1-1s0.4-1,1-1h59c0.6,0,1,0.4,1,1S116.6,114,116,114z"/>
	<path class="black" d="M88,101H57c-0.6,0-1-0.4-1-1s0.4-1,1-1h31c0.6,0,1,0.4,1,1S88.6,101,88,101z"/>
	<path class="yellow" d="M115.4,69H99.6c-1.4,0-2.6-1.2-2.6-2.6V49.6c0-1.4,1.2-2.6,2.6-2.6h15.8c1.4,0,2.6,1.2,2.6,2.6v16.8
		C118,67.8,116.8,69,115.4,69z"/>
</g>
<path class="yellow" d="M44,114c-0.6,0-1-0.4-1-1V28.4c0-4.5,2.9-7.4,7.4-7.4H104c0.6,0,1,0.4,1,1s-0.4,1-1,1H50.4
	c-1.3,0-5.4,0.4-5.4,5.4V113C45,113.6,44.6,114,44,114z"/>
<g>
	<path class="black" d="M61.4,129.2l-28.4,9.3c-3.6,1.2-7.4-0.8-8.6-4.4l-20.5-63c-1.2-3.6,0.8-7.4,4.4-8.6l28.4-9.3
		c3.6-1.2,7.4,0.8,8.6,4.4l20.5,63C66.9,124.2,64.9,128,61.4,129.2"/>

		<rect x="15.6" y="66.2" transform="matrix(0.9508 -0.3099 0.3099 0.9508 -27.7732 15.3627)" class="yellow" width="37.8" height="57.7"/>
	<path class="white" d="M48.4,126.8c0.6,1.7-0.4,3.6-2.1,4.1c-1.7,0.6-3.6-0.4-4.1-2.1c-0.6-1.7,0.4-3.6,2.1-4.1
		S47.8,125.1,48.4,126.8"/>
	<path class="black" d="M29.2,61.9l-7.8,2.6c-0.3,0.1-0.7-0.1-0.8-0.4c-0.1-0.3,0.1-0.7,0.4-0.8l7.8-2.6c0.3-0.1,0.7,0.1,0.8,0.4
		C29.7,61.4,29.5,61.8,29.2,61.9"/>
	<path class="black" d="M19.1,65.2l-0.7,0.2c-0.3,0.1-0.7-0.1-0.8-0.4c-0.1-0.3,0.1-0.7,0.4-0.8l0.7-0.2c0.3-0.1,0.7,0.1,0.8,0.4
		C19.6,64.7,19.4,65.1,19.1,65.2"/>
	<path class="black" d="M19.5,94.3c-0.4,0-0.8-0.3-1-0.7c-0.2-0.5,0.1-1.1,0.6-1.3L45,83.9c0.5-0.2,1.1,0.1,1.3,0.6
		c0.2,0.5-0.1,1.1-0.6,1.3l-25.9,8.4C19.7,94.3,19.6,94.3,19.5,94.3z"/>
	<path class="black" d="M21,99.2c-0.4,0-0.8-0.3-1-0.7c-0.2-0.5,0.1-1.1,0.6-1.3l24.6-8c0.5-0.2,1.1,0.1,1.3,0.6
		c0.2,0.5-0.1,1.1-0.6,1.3l-24.6,8C21.3,99.1,21.2,99.2,21,99.2z"/>
	<path class="black" d="M22.6,104c-0.4,0-0.8-0.3-1-0.7c-0.2-0.5,0.1-1.1,0.6-1.3l23.2-7.6c0.5-0.2,1.1,0.1,1.3,0.6
		c0.2,0.5-0.1,1.1-0.6,1.3L22.9,104C22.8,104,22.7,104,22.6,104z"/>
	<path class="black" d="M24.2,108.9c-0.4,0-0.8-0.3-1-0.7c-0.2-0.5,0.1-1.1,0.6-1.3l20.8-6.8c0.5-0.2,1.1,0.1,1.3,0.6
		c0.2,0.5-0.1,1.1-0.6,1.3l-20.8,6.8C24.4,108.9,24.3,108.9,24.2,108.9z"/>
	<path class="black" d="M25.8,113.8c-0.4,0-0.8-0.3-1-0.7c-0.2-0.5,0.1-1.1,0.6-1.3l25.8-8.4c0.5-0.2,1.1,0.1,1.3,0.6
		c0.2,0.5-0.1,1.1-0.6,1.3l-25.8,8.4C26,113.7,25.9,113.8,25.8,113.8z"/>
	<path class="black" d="M27.4,118.6c-0.4,0-0.8-0.3-1-0.7c-0.2-0.5,0.1-1.1,0.6-1.3l19.8-6.4c0.5-0.2,1.1,0.1,1.3,0.6
		c0.2,0.5-0.1,1.1-0.6,1.3l-19.8,6.4C27.6,118.6,27.5,118.6,27.4,118.6z"/>
	<path class="white" d="M20.8,87.2c2.2-0.7,3.4-3.1,2.7-5.2s-3.1-3.4-5.2-2.7c-2.2,0.7-3.4,3.1-2.7,5.2C16.3,86.7,18.6,87.9,20.8,87.2
		"/>
</g>
</svg>
