<?xml version="1.0" encoding="utf-8"?>
<!-- Generator: Adobe Illustrator 22.1.0, SVG Export Plug-In . SVG Version: 6.00 Build 0)  -->
<svg version="1.1" id="Tour_02_Lessons" xmlns="http://www.w3.org/2000/svg" xmlns:xlink="http://www.w3.org/1999/xlink" x="0px" y="0px"
	 viewBox="0 0 144 119" style="enable-background:new 0 0 144 119;" xml:space="preserve">
<style type="text/css">
	.white{fill:#FFFFFF;}
	.gray200{fill:#EBEBEB;}
	.black{fill:#231F20;}
	.yellow{fill:#E6D420;}
</style>
<g>
	<g>
		<path class="white" d="M124.5,116.9L49.3,106c-2.4-0.3-4-2.6-3.7-4.9L59.3,6.8c0.3-2.4,2.6-4,4.9-3.7L139.5,14
			c2.4,0.3,4,2.6,3.7,4.9l-13.7,94.3C129.1,115.6,126.9,117.3,124.5,116.9z"/>
		<path class="gray200" d="M125.1,118c-0.3,0-0.5,0-0.8-0.1l0,0L49.1,107c-2.9-0.4-5-3.2-4.5-6.1L58.3,6.6c0.4-2.9,3.2-5,6.1-4.5
			L139.6,13c2.9,0.4,5,3.2,4.5,6.1l-13.7,94.3C130,116.1,127.7,118,125.1,118z M124.6,115.9c1.8,0.3,3.5-1,3.8-2.8l13.7-94.3
			c0.3-1.8-1-3.5-2.8-3.8L64.1,4.1c-1.8-0.3-3.5,1-3.8,2.8l-13.7,94.3c-0.3,1.8,1,3.5,2.8,3.8L124.6,115.9z"/>
	</g>
	<path class="black" d="M112.3,25.2c0,0-0.1,0-0.1,0L69.6,19c-0.5-0.1-0.9-0.6-0.8-1.1c0.1-0.5,0.6-0.9,1.1-0.8l42.6,6.2
		c0.5,0.1,0.9,0.6,0.8,1.1C113.3,24.9,112.8,25.2,112.3,25.2z"/>
	<path class="black" d="M98.7,35.4c0,0-0.1,0-0.1,0l-30.7-4.5c-0.5-0.1-0.9-0.6-0.8-1.1c0.1-0.5,0.6-0.9,1.1-0.8l30.7,4.5
		c0.5,0.1,0.9,0.6,0.8,1.1C99.7,35,99.2,35.4,98.7,35.4z"/>
	<path class="black" d="M97.9,41.3c0,0-0.1,0-0.1,0l-30.7-4.5c-0.5-0.1-0.9-0.6-0.8-1.1c0.1-0.5,0.6-0.9,1.1-0.8L98,39.3
		c0.5,0.1,0.9,0.6,0.8,1.1C98.8,40.9,98.4,41.3,97.9,41.3z"/>
	<path class="black" d="M97,47.2c0,0-0.1,0-0.1,0l-30.7-4.5c-0.5-0.1-0.9-0.6-0.8-1.1c0.1-0.5,0.6-0.9,1.1-0.8l30.7,4.5
		c0.5,0.1,0.9,0.6,0.8,1.1C97.9,46.9,97.5,47.2,97,47.2z"/>
	<path class="black" d="M96.1,53.2c0,0-0.1,0-0.1,0l-30.7-4.5c-0.5-0.1-0.9-0.6-0.8-1.1c0.1-0.5,0.6-0.9,1.1-0.8l30.7,4.5
		c0.5,0.1,0.9,0.6,0.8,1.1C97.1,52.8,96.6,53.2,96.1,53.2z"/>
	<path class="black" d="M114.8,71c0,0-0.1,0-0.1,0l-51.5-7.5c-0.5-0.1-0.9-0.6-0.8-1.1c0.1-0.5,0.6-0.9,1.1-0.8l51.5,7.5
		c0.5,0.1,0.9,0.6,0.8,1.1C115.7,70.7,115.3,71,114.8,71z"/>
	<path class="black" d="M120.8,78c0,0-0.1,0-0.1,0l-58.4-8.5c-0.5-0.1-0.9-0.6-0.8-1.1c0.1-0.5,0.6-0.9,1.1-0.8L121,76
		c0.5,0.1,0.9,0.6,0.8,1.1C121.7,77.6,121.3,78,120.8,78z"/>
	<path class="black" d="M120,83.9c0,0-0.1,0-0.1,0l-58.4-8.5c-0.5-0.1-0.9-0.6-0.8-1.1c0.1-0.5,0.6-0.9,1.1-0.8l58.4,8.5
		c0.5,0.1,0.9,0.6,0.8,1.1C120.9,83.6,120.5,83.9,120,83.9z"/>
	<path class="black" d="M117.2,102.7c0,0-0.1,0-0.1,0l-58.4-8.5c-0.5-0.1-0.9-0.6-0.8-1.1c0.1-0.5,0.6-0.9,1.1-0.8l58.4,8.5
		c0.5,0.1,0.9,0.6,0.8,1.1C118.1,102.4,117.7,102.7,117.2,102.7z"/>
	<path class="black" d="M91.4,85.8c0,0-0.1,0-0.1,0l-30.7-4.5c-0.5-0.1-0.9-0.6-0.8-1.1c0.1-0.5,0.6-0.9,1.1-0.8l30.7,4.5
		c0.5,0.1,0.9,0.6,0.8,1.1C92.3,85.5,91.9,85.8,91.4,85.8z"/>
	<path class="black" d="M123,58.1l-15.6-2.3c-1.4-0.2-2.4-1.5-2.2-3l2.4-16.6c0.2-1.4,1.5-2.4,3-2.2l15.6,2.3c1.4,0.2,2.4,1.5,2.2,3
		l-2.4,16.6C125.7,57.3,124.4,58.3,123,58.1z"/>
</g>
<g>
	<g>
		<path class="white" d="M98.3,104.1l-74.7,14.1c-2.4,0.4-4.6-1.1-5.1-3.5L0.9,21c-0.4-2.4,1.1-4.6,3.5-5.1L79.1,1.9
			c2.4-0.4,4.6,1.1,5.1,3.5L101.8,99C102.3,101.4,100.7,103.6,98.3,104.1z"/>
		<path class="gray200" d="M22.8,119.2c-2.5,0-4.8-1.8-5.3-4.4L-0.1,21.2c-0.5-2.9,1.4-5.7,4.3-6.3L78.9,0.9c1.4-0.3,2.8,0,4,0.8
			c1.2,0.8,2,2,2.2,3.4l17.6,93.6c0.5,2.9-1.4,5.7-4.3,6.3l0,0l-74.7,14.1C23.5,119.2,23.1,119.2,22.8,119.2z M79.9,2.8
			c-0.2,0-0.4,0-0.6,0.1L4.6,16.9c-1.8,0.3-3,2.1-2.7,3.9l17.6,93.6c0.3,1.8,2.1,3,3.9,2.7l74.7-14.1c1.8-0.3,3-2.1,2.7-3.9
			L83.2,5.5C82.9,3.9,81.5,2.8,79.9,2.8z M98.3,104.1L98.3,104.1L98.3,104.1z"/>
	</g>
	<path class="black" d="M14.5,29.3c-0.5,0-0.9-0.3-1-0.8c-0.1-0.5,0.3-1.1,0.8-1.2l42.3-7.9c0.5-0.1,1.1,0.3,1.2,0.8
		c0.1,0.5-0.3,1.1-0.8,1.2l-42.3,7.9C14.6,29.3,14.6,29.3,14.5,29.3z"/>
	<path class="black" d="M16.7,41.1c-0.5,0-0.9-0.3-1-0.8c-0.1-0.5,0.3-1.1,0.8-1.2L47,33.3c0.5-0.1,1.1,0.3,1.2,0.8
		c0.1,0.5-0.3,1.1-0.8,1.2L16.9,41C16.8,41.1,16.8,41.1,16.7,41.1z"/>
	<path class="black" d="M17.8,47c-0.5,0-0.9-0.3-1-0.8c-0.1-0.5,0.3-1.1,0.8-1.2l30.5-5.7c0.5-0.1,1.1,0.3,1.2,0.8
		c0.1,0.5-0.3,1.1-0.8,1.2L18,46.9C17.9,47,17.9,47,17.8,47z"/>
	<path class="black" d="M18.9,52.9c-0.5,0-0.9-0.3-1-0.8c-0.1-0.5,0.3-1.1,0.8-1.2l30.5-5.7c0.5-0.1,1.1,0.3,1.2,0.8
		c0.1,0.5-0.3,1.1-0.8,1.2l-30.5,5.7C19.1,52.8,19,52.9,18.9,52.9z"/>
	<path class="black" d="M20,58.8c-0.5,0-0.9-0.3-1-0.8c-0.1-0.5,0.3-1.1,0.8-1.2L50.3,51c0.5-0.1,1.1,0.3,1.2,0.8
		c0.1,0.5-0.3,1.1-0.8,1.2l-30.5,5.7C20.2,58.7,20.1,58.8,20,58.8z"/>
	<path class="black" d="M22.8,73.5c-0.5,0-0.9-0.3-1-0.8c-0.1-0.5,0.3-1.1,0.8-1.2l51.1-9.6c0.5-0.1,1.1,0.3,1.2,0.8
		c0.1,0.5-0.3,1.1-0.8,1.2L23,73.5C22.9,73.5,22.9,73.5,22.8,73.5z"/>
	<path class="black" d="M23.9,79.4c-0.5,0-0.9-0.3-1-0.8c-0.1-0.5,0.3-1.1,0.8-1.2l58-10.9c0.5-0.1,1.1,0.3,1.2,0.8
		c0.1,0.5-0.3,1.1-0.8,1.2l-58,10.9C24,79.4,24,79.4,23.9,79.4z"/>
	<path class="black" d="M25,85.3c-0.5,0-0.9-0.3-1-0.8c-0.1-0.5,0.3-1.1,0.8-1.2l58-10.9c0.5-0.1,1.1,0.3,1.2,0.8
		c0.1,0.5-0.3,1.1-0.8,1.2l-58,10.9C25.2,85.3,25.1,85.3,25,85.3z"/>
	<path class="black" d="M28.5,104c-0.5,0-0.9-0.3-1-0.8c-0.1-0.5,0.3-1.1,0.8-1.2l58-10.9c0.5-0.1,1.1,0.3,1.2,0.8
		c0.1,0.5-0.3,1.1-0.8,1.2l-58,10.9C28.7,104,28.6,104,28.5,104z"/>
	<path class="black" d="M26.1,91.2c-0.5,0-0.9-0.3-1-0.8c-0.1-0.5,0.3-1.1,0.8-1.2l30.5-5.7c0.5-0.1,1.1,0.3,1.2,0.8s-0.3,1.1-0.8,1.2
		l-30.5,5.7C26.3,91.2,26.2,91.2,26.1,91.2z"/>
	<path class="yellow" d="M77.8,48.9l-15.5,2.9c-1.4,0.3-2.8-0.7-3.1-2.1l-3.1-16.5c-0.3-1.4,0.7-2.8,2.1-3.1l15.5-2.9
		c1.4-0.3,2.8,0.7,3.1,2.1l3.1,16.5C80.1,47.3,79.2,48.7,77.8,48.9z"/>
</g>
<g>
	<g>
		<path class="white" d="M112.4,105h-76c-2.4,0-4.4-2-4.4-4.4V5.4C32,3,34,1,36.4,1h76c2.4,0,4.4,2,4.4,4.4v95.3
			C116.7,103,114.8,105,112.4,105z"/>
		<path class="gray200" d="M112.4,106h-76c-3,0-5.4-2.4-5.4-5.4V5.4c0-3,2.4-5.4,5.4-5.4h76c3,0,5.4,2.4,5.4,5.4v95.3
			C117.7,103.6,115.3,106,112.4,106z M36.4,2C34.5,2,33,3.5,33,5.4v95.3c0,1.9,1.5,3.4,3.4,3.4h76c1.9,0,3.4-1.5,3.4-3.4V5.4
			c0-1.9-1.5-3.4-3.4-3.4H36.4z"/>
	</g>
	<path class="black" d="M87,16H44c-0.6,0-1-0.4-1-1s0.4-1,1-1h43c0.6,0,1,0.4,1,1S87.6,16,87,16z"/>
	<path class="black" d="M75,28H44c-0.6,0-1-0.4-1-1s0.4-1,1-1h31c0.6,0,1,0.4,1,1S75.6,28,75,28z"/>
	<path class="black" d="M75,34H44c-0.6,0-1-0.4-1-1s0.4-1,1-1h31c0.6,0,1,0.4,1,1S75.6,34,75,34z"/>
	<path class="black" d="M75,40H44c-0.6,0-1-0.4-1-1s0.4-1,1-1h31c0.6,0,1,0.4,1,1S75.6,40,75,40z"/>
	<path class="black" d="M75,46H44c-0.6,0-1-0.4-1-1s0.4-1,1-1h31c0.6,0,1,0.4,1,1S75.6,46,75,46z"/>
	<path class="black" d="M96,61H44c-0.6,0-1-0.4-1-1c0-0.6,0.4-1,1-1h52c0.6,0,1,0.4,1,1C97,60.6,96.6,61,96,61z"/>
	<path class="black" d="M103,67H44c-0.6,0-1-0.4-1-1s0.4-1,1-1h59c0.6,0,1,0.4,1,1S103.6,67,103,67z"/>
	<path class="black" d="M103,73H44c-0.6,0-1-0.4-1-1s0.4-1,1-1h59c0.6,0,1,0.4,1,1S103.6,73,103,73z"/>
	<path class="black" d="M103,92H44c-0.6,0-1-0.4-1-1s0.4-1,1-1h59c0.6,0,1,0.4,1,1S103.6,92,103,92z"/>
	<path class="black" d="M75,79H44c-0.6,0-1-0.4-1-1s0.4-1,1-1h31c0.6,0,1,0.4,1,1S75.6,79,75,79z"/>
	<path class="yellow" d="M102.4,47H86.6c-1.4,0-2.6-1.2-2.6-2.6V27.6c0-1.4,1.2-2.6,2.6-2.6h15.8c1.4,0,2.6,1.2,2.6,2.6v16.8
		C105,45.8,103.8,47,102.4,47z"/>
</g>
</svg>
