<?xml version="1.0" encoding="utf-8"?>
<!-- Generator: Adobe Illustrator 22.1.0, SVG Export Plug-In . SVG Version: 6.00 Build 0)  -->
<svg version="1.1" id="Tour_04_Calendar" xmlns="http://www.w3.org/2000/svg" xmlns:xlink="http://www.w3.org/1999/xlink" x="0px" y="0px"
	 viewBox="0 0 87 119" style="enable-background:new 0 0 87 119;" xml:space="preserve">
<style type="text/css">
	.yellow{fill:#E6D420;}
	.white{fill:#FFFFFF;}
	.black{fill:#231F20;}
</style>
<g>
	<g>

			<rect x="15" y="30.1" transform="matrix(3.673584e-02 -0.9993 0.9993 3.673584e-02 -27.9061 109.9643)" class="yellow" width="56.2" height="78.6"/>
		<path class="white" d="M14,97.5C14,97.5,14,97.5,14,97.5c-0.6,0-1-0.5-1-1L15,40.6c0-0.6,0.5-1,1-1c0.6,0,1,0.5,1,1L15,96.5
			C15,97.1,14.5,97.5,14,97.5z"/>
		<path class="white" d="M25.2,97.9C25.2,97.9,25.2,97.9,25.2,97.9c-0.6,0-1-0.5-1-1L26.3,41c0-0.6,0.5-1,1-1c0.6,0,1,0.5,1,1
			l-2.1,55.8C26.2,97.5,25.8,97.9,25.2,97.9z"/>
		<path class="white" d="M36.4,98.3C36.4,98.3,36.4,98.3,36.4,98.3c-0.6,0-1-0.5-1-1l2.1-55.8c0-0.6,0.5-1,1-1c0.6,0,1,0.5,1,1
			l-2.1,55.8C37.4,97.9,37,98.3,36.4,98.3z"/>
		<path class="white" d="M47.7,98.7C47.7,98.7,47.6,98.7,47.7,98.7c-0.6,0-1-0.5-1-1l2.1-55.8c0-0.6,0.5-1,1-1c0.6,0,1,0.5,1,1
			l-2.1,55.8C48.6,98.3,48.2,98.7,47.7,98.7z"/>
		<path class="white" d="M58.9,99.1C58.9,99.1,58.9,99.1,58.9,99.1c-0.6,0-1-0.5-1-1l2.1-55.8c0-0.6,0.5-1,1-1c0.6,0,1,0.5,1,1
			l-2.1,55.8C59.9,98.7,59.4,99.1,58.9,99.1z"/>
		<path class="white" d="M70.1,99.5C70.1,99.5,70.1,99.5,70.1,99.5c-0.6,0-1-0.5-1-1l2.1-55.8c0-0.6,0.5-1,1-1c0.6,0,1,0.5,1,1
			l-2.1,55.8C71.1,99.1,70.7,99.5,70.1,99.5z"/>
		<path class="white" d="M81.8,88.7C81.7,88.7,81.7,88.7,81.8,88.7L3.1,85.8c-0.6,0-1-0.5-1-1c0-0.6,0.5-1,1-1l78.6,2.9
			c0.6,0,1,0.5,1,1C82.7,88.3,82.3,88.7,81.8,88.7z"/>
		<path class="white" d="M82.2,77.5C82.2,77.5,82.1,77.5,82.2,77.5L3.6,74.6c-0.6,0-1-0.5-1-1c0-0.6,0.5-1,1-1l78.6,2.9
			c0.6,0,1,0.5,1,1C83.1,77.1,82.7,77.5,82.2,77.5z"/>
		<path class="white" d="M82.6,66.3C82.6,66.3,82.6,66.3,82.6,66.3L4,63.4c-0.6,0-1-0.5-1-1c0-0.6,0.5-1,1-1l78.6,2.9c0.6,0,1,0.5,1,1
			C83.6,65.9,83.1,66.3,82.6,66.3z"/>
		<path class="white" d="M83,55.1C83,55.1,83,55.1,83,55.1L4.4,52.2c-0.6,0-1-0.5-1-1c0-0.6,0.5-1,1-1L83,53.1c0.6,0,1,0.5,1,1
			C84,54.6,83.5,55.1,83,55.1z"/>

			<rect x="36.3" y="-6" transform="matrix(3.673584e-02 -0.9993 0.9993 3.673584e-02 9.5416 76.4327)" class="black" width="16.3" height="78.6"/>
	</g>
	<path class="yellow" d="M72.5,32.7C72.5,32.7,72.5,32.7,72.5,32.7c-0.6,0-1-0.5-1-1l0.4-9.9c0-0.6,0.5-1,1-1c0.6,0,1,0.5,1,1l-0.4,9.9
		C73.5,32.3,73,32.7,72.5,32.7z"/>
	<path class="yellow" d="M16.5,30.7C16.5,30.7,16.5,30.7,16.5,30.7c-0.6,0-1-0.5-1-1l0.4-9.9c0-0.6,0.5-1,1-1c0.6,0,1,0.5,1,1l-0.4,9.9
		C17.5,30.3,17,30.7,16.5,30.7z"/>
</g>
</svg>
