<?xml version="1.0" encoding="utf-8"?>
<!-- Generator: Adobe Illustrator 22.1.0, SVG Export Plug-In . SVG Version: 6.00 Build 0)  -->
<svg version="1.1" id="Tour_02_Digital-Tasks" xmlns="http://www.w3.org/2000/svg" xmlns:xlink="http://www.w3.org/1999/xlink"
	 x="0px" y="0px" viewBox="0 0 234 119" style="enable-background:new 0 0 234 119;" xml:space="preserve">
<style type="text/css">
	.yellow{fill:#E6D420;}
	.white{fill:#FFFFFF;}
	.black{fill:#231F20;}
</style>
<g>
	<path class="yellow" d="M222.9,90.9l-22.6-2.6c-2.8-0.3-4.9-2.9-4.6-5.7l5.7-50.1c0.3-2.8,2.9-4.9,5.7-4.6l22.6,2.6
		c2.8,0.3,4.9,2.9,4.6,5.7l-5.7,50.1C228.3,89.2,225.7,91.2,222.9,90.9"/>

		<rect x="193.1" y="44.3" transform="matrix(0.1132 -0.9936 0.9936 0.1132 132.4264 265.7355)" class="white" width="44" height="28.7"/>
	<path class="white" d="M214.7,85.1c-0.2,1.4-1.4,2.4-2.8,2.2s-2.4-1.4-2.2-2.8s1.4-2.4,2.8-2.2C213.8,82.5,214.8,83.7,214.7,85.1"/>
	<path class="black" d="M221.9,34.1l-6.2-0.7c-0.3,0-0.4-0.3-0.4-0.5c0-0.3,0.3-0.4,0.5-0.4l6.2,0.7c0.3,0,0.4,0.3,0.4,0.5
		C222.4,33.9,222.2,34.1,221.9,34.1"/>
	<path class="black" d="M213.8,33.2l-0.5-0.1c-0.3,0-0.4-0.3-0.4-0.5c0-0.3,0.3-0.4,0.5-0.4l0.5,0.1c0.3,0,0.4,0.3,0.4,0.5
		C214.3,33,214.1,33.2,213.8,33.2"/>
	<path class="black" d="M225.8,56.1h-0.1l-20.6-2.3c-0.5-0.1-0.9-0.6-0.9-1.1s0.6-0.9,1.1-0.9l20.6,2.3c0.5,0.1,0.9,0.6,0.9,1.1
		C226.7,55.7,226.3,56.1,225.8,56.1z"/>
	<path class="black" d="M224.4,59.9h-0.1l-19.6-2.2c-0.5-0.1-0.9-0.6-0.9-1.1c0.1-0.5,0.6-0.9,1.1-0.9l19.6,2.2
		c0.5,0.1,0.9,0.6,0.9,1.1C225.3,59.5,224.9,59.9,224.4,59.9z"/>
	<path class="black" d="M222.8,63.6h-0.1l-18.4-2.1c-0.5-0.1-0.9-0.6-0.9-1.1s0.6-0.9,1.1-0.9l18.4,2.1c0.5,0.1,0.9,0.6,0.9,1.1
		C223.7,63.2,223.3,63.6,222.8,63.6z"/>
	<path class="black" d="M220.4,67.2h-0.1l-16.5-1.9c-0.5-0.1-0.9-0.6-0.9-1.1c0-0.5,0.6-0.9,1.1-0.9l16.5,1.9c0.5,0.1,0.9,0.6,0.9,1.1
		C221.4,66.9,220.9,67.2,220.4,67.2z"/>
	<path class="black" d="M224,71.6h-0.1l-20.6-2.3c-0.5-0.1-0.9-0.6-0.9-1.1s0.6-0.9,1.1-0.9l20.6,2.3c0.5,0.1,0.9,0.6,0.9,1.1
		S224.5,71.6,224,71.6z"/>
	<path class="black" d="M218.8,74.9h-0.1L203,73.1c-0.5-0.1-0.9-0.6-0.9-1.1c0.1-0.5,0.6-0.9,1.1-0.9l15.7,1.8
		c0.5,0.1,0.9,0.6,0.9,1.1C219.7,74.5,219.3,74.9,218.8,74.9z"/>
	<path class="black" d="M208.1,48.9c1.7,0.2,3.3-1,3.5-2.8c0.2-1.7-1-3.3-2.8-3.5c-1.7-0.2-3.3,1-3.5,2.8S206.4,48.7,208.1,48.9"/>
</g>
<g>
	<path class="black" d="M175.7,97.4c0,1.4-1.3,2.6-2.7,2.5l-56.3-1.8c-1.4,0-2.6-1.3-2.5-2.7l2.3-79.3c0-1.4,1.3-2.6,2.7-2.5l56.5,1.8
		c1.4,0,2.6,1.3,2.5,2.7L175.7,97.4z"/>
	<path class="white" d="M148,92.2c0,1.5-1.3,2.6-2.7,2.5c-1.5,0-2.6-1.3-2.5-2.7c0-1.5,1.3-2.6,2.7-2.5C146.9,89.5,148,90.7,148,92.2"
		/>
	<path class="white" d="M151.5,19.4L151.5,19.4l-5.6-0.2c-0.3,0-0.6-0.3-0.6-0.6c0-0.3,0.3-0.6,0.6-0.6l5.5,0.2c0.3,0,0.6,0.3,0.6,0.6
		C152.1,19.1,151.8,19.4,151.5,19.4"/>
	<path class="white" d="M144.1,18.6c0,0.3-0.3,0.6-0.6,0.6s-0.6-0.3-0.6-0.6c0-0.3,0.3-0.6,0.6-0.6C143.9,18,144.1,18.2,144.1,18.6"/>
	<polyline class="white" points="119.3,85.1 121.3,21.9 173.1,23.6 171.1,86.8 	"/>
	<path class="black" d="M162.2,53.3L162.2,53.3l-32.4-1.5c-0.6,0-1-0.5-1-1c0-0.6,0.5-1,1-1l32.3,1.4c0.6,0,1,0.5,1,1
		C163.2,52.9,162.8,53.3,162.2,53.3z"/>
	<path class="black" d="M162.1,56.8L162.1,56.8l-32.4-1.5c-0.6,0-1-0.5-1-1c0-0.6,0.5-1,1-1l32.3,1.4c0.6,0,1,0.5,1,1
		C163.1,56.4,162.6,56.8,162.1,56.8z"/>
	<path class="black" d="M161.9,60.3L161.9,60.3l-32.3-1.4c-0.6,0-1-0.5-1-1c0-0.6,0.5-1,1-1l32.3,1.4c0.6,0,1,0.5,1,1
		C162.9,59.9,162.5,60.3,161.9,60.3z"/>
	<path class="black" d="M161.8,63.9C161.8,63.9,161.7,63.9,161.8,63.9l-32.4-1.5c-0.6,0-1-0.5-1-1c0-0.6,0.5-1,1-1l32.3,1.4
		c0.6,0,1,0.5,1,1C162.7,63.4,162.3,63.9,161.8,63.9z"/>
	<path class="black" d="M161.6,67.4L161.6,67.4l-32.4-1.5c-0.6,0-1-0.5-1-1c0-0.6,0.5-1,1-1l32.3,1.4c0.6,0,1,0.5,1,1
		C162.6,67,162.1,67.4,161.6,67.4z"/>
	<path class="black" d="M161.4,70.9L161.4,70.9L129,69.4c-0.6,0-1-0.5-1-1c0-0.6,0.5-1,1-1l32.3,1.4c0.6,0,1,0.5,1,1
		C162.4,70.5,162,70.9,161.4,70.9z"/>
	<path class="black" d="M161.3,74.4L161.3,74.4l-32.4-1.5c-0.6,0-1-0.5-1-1c0-0.6,0.5-1,1-1l32.3,1.4c0.6,0,1,0.5,1,1
		C162.3,74,161.8,74.4,161.3,74.4z"/>
	<g>
		<path class="yellow" d="M128.4,41.6c0,0-0.9,0-0.9,0.8l-0.1,2.3c0,0,0,0.9,0.8,0.9l5.5,0.2c0,0,0.9,0,0.9-0.8l0.1-2.3
			c0,0,0-0.9-0.8-0.9L128.4,41.6z"/>
		<path class="yellow" d="M137.4,42c0,0-0.9,0-0.9,0.8l-0.1,2.3c0,0,0,0.9,0.8,0.9l5.5,0.2c0,0,0.9,0,0.9-0.8l0.1-2.3
			c0,0,0-0.9-0.8-0.9L137.4,42z"/>
		<path class="yellow" d="M156.8,37.1c0,0-0.9,0-0.9,0.8l-0.1,2.3c0,0,0,0.9,0.8,0.9l5.5,0.2c0,0,0.9,0,0.9-0.8l0.1-2.3
			c0,0,0-0.9-0.8-0.9L156.8,37.1z"/>
		<path class="yellow" d="M146.4,42.4c0,0-0.9,0-0.9,0.8l-0.1,2.3c0,0,0,0.9,0.8,0.9l5.5,0.2c0,0,0.9,0,0.9-0.8l0.1-2.3
			c0,0,0-0.9-0.8-0.9L146.4,42.4z"/>
		<path class="yellow" d="M141.8,36.4c0,0-0.9,0-0.9,0.8l-0.1,2.3c0,0,0,0.9,0.8,0.9l11.4,0.5c0,0,0.9,0,0.9-0.8l0.1-2.3
			c0,0,0-0.9-0.8-0.9L141.8,36.4z"/>
		<path class="yellow" d="M131.8,36c0,0-0.9,0-0.9,0.8l-0.1,2.3c0,0,0,0.9,0.8,0.9l6.5,0.3c0,0,0.9,0,0.9-0.8l0.1-2.3
			c0,0,0-0.9-0.8-0.9L131.8,36z"/>
		<path class="yellow" d="M155.4,42.8c0,0-0.9,0-0.9,0.8l-0.1,2.3c0,0,0,0.9,0.8,0.9l9.6,0.4c0,0,0.9,0,0.9-0.8l0.1-2.3
			c0,0,0-0.9-0.8-0.9L155.4,42.8z"/>
	</g>
</g>
<g>
	<g>
		<path class="black" d="M90.4,18.8c-0.3-2.7-2.6-4.6-5.3-4.4L4.8,22.2c-2.7,0.3-4.6,2.6-4.4,5.3l5.2,52.4l89.9-8.8L90.4,18.8z"/>
	</g>

		<rect x="7.6" y="23.6" transform="matrix(0.9953 -9.705597e-02 9.705597e-02 0.9953 -4.3224 4.8464)" class="white" width="80.1" height="46.5"/>
	<g>
		<path class="yellow" d="M5.6,79.9l0.5,5.3c0.3,2.7,2.6,4.6,5.3,4.4L48.1,86c0.5,3.5,0.7,11.3-6.9,12l0.3,2.7l22.4-2.2l-0.3-2.7
			c-7.3,0.7-8.5-6.9-8.7-10.5l36.6-3.6c2.7-0.3,4.6-2.6,4.4-5.3l-0.5-5.3L5.6,79.9z"/>
	</g>
	<g>
		<path class="black" d="M29.9,38.5c1.7-0.2,3-1.7,2.8-3.4s-1.7-3-3.4-2.8c-1.7,0.2-3,1.7-2.8,3.4C26.6,37.4,28.2,38.7,29.9,38.5"/>
		<path class="black" d="M31.6,56c1.7-0.2,3-1.7,2.8-3.4s-1.7-3-3.4-2.8c-1.7,0.2-3,1.7-2.8,3.4S29.9,56.1,31.6,56"/>
		<path class="black" d="M65.4,43.9c-1.7,0.2-3.3-1.1-3.4-2.8c-0.2-1.7,1.1-3.3,2.8-3.4c1.7-0.2,3.3,1.1,3.4,2.8
			C68.4,42.2,67.1,43.7,65.4,43.9"/>
		<path class="black" d="M67.1,61.3c-1.7,0.2-3.3-1.1-3.4-2.8c-0.2-1.7,1.1-3.3,2.8-3.4c1.7-0.2,3.3,1.1,3.4,2.8S68.8,61.2,67.1,61.3"
			/>
		<path class="yellow" d="M37.1,31.5c0,0-1.9,0.2-1.8,2.1l0.2,2.4c0,0,0.2,1.9,2.1,1.8l28-2.7c0,0,1.9-0.2,1.8-2.1l-0.2-2.4
			c0,0-0.2-1.9-2.1-1.8L37.1,31.5z"/>
		<path class="yellow" d="M38.8,48.9c0,0-1.9,0.2-1.8,2.1l0.2,2.4c0,0,0.2,1.9,2.1,1.8l28-2.7c0,0,1.9-0.2,1.8-2.1L69,47.9
			c0,0-0.2-1.9-2.1-1.8L38.8,48.9z"/>
		<path class="yellow" d="M56.9,38.4c0,0,1.9-0.2,2.1,1.8l0.2,2.4c0,0,0.2,1.9-1.8,2.1l-28,2.7c0,0-1.9,0.2-2.1-1.8l-0.2-2.4
			c0,0-0.2-1.9,1.8-2.1L56.9,38.4z"/>
		<path class="yellow" d="M58.6,55.8c0,0,1.9-0.2,2.1,1.8l0.2,2.4c0,0,0.2,1.9-1.8,2.1l-28,2.7c0,0-1.9,0.2-2.1-1.8l-0.2-2.4
			c0,0-0.2-1.9,1.8-2.1L58.6,55.8z"/>
	</g>
</g>
</svg>
