<?xml version="1.0" encoding="utf-8"?>
<!-- Generator: Adobe Illustrator 22.1.0, SVG Export Plug-In . SVG Version: 6.00 Build 0)  -->
<svg version="1.1" id="Tour_04_Folders" xmlns="http://www.w3.org/2000/svg" xmlns:xlink="http://www.w3.org/1999/xlink" x="0px" y="0px"
	 viewBox="0 0 111 119" style="enable-background:new 0 0 111 119;" xml:space="preserve">
<style type="text/css">
	.yellow{fill:#E6D420;}
	.black{fill:#231F20;}
</style>
<path class="yellow" d="M19.5,33.4L18,30.7c-0.8-1.4-2.3-2.1-3.9-1.8L3.5,30.8c-1.6,0.3-2.8,1.5-3,3.1L0,36.7c-0.1,0.7-0.1,1.3,0,2
	l10.5,57.8c0.2,1.2,1.4,2,2.6,1.8l81.1-14.7c1.2-0.2,2-1.4,1.8-2.6L85.7,24.4c-0.2-1.2-1.4-2-2.6-1.8L20.6,33.9
	C20.2,34,19.7,33.8,19.5,33.4z"/>
<path class="black" d="M85.3,61.2c-1.8,0-3.4-0.7-4.7-1.9c-1.3-1.3-2.1-2.9-2.1-4.8c0-1.8,0.6-3.5,1.9-4.9l15.9-16.6
	c1.9-2,5.2-2.1,7.2-0.2c2,1.9,2.1,5.2,0.2,7.2l-13.4,14c-0.4,0.4-1,0.4-1.4,0c-0.4-0.4-0.4-1,0-1.4l13.4-14c1.2-1.2,1.1-3.2-0.1-4.4
	c-1.2-1.2-3.2-1.1-4.4,0.1L81.8,51.1c-0.9,0.9-1.4,2.1-1.3,3.4c0,1.3,0.6,2.5,1.5,3.4c0.9,0.9,2.2,1.4,3.4,1.3
	c1.3,0,2.5-0.6,3.4-1.5l18.4-19.3c1.2-1.3,1.8-2.9,1.8-4.6s-0.8-3.4-2-4.6c-1.3-1.2-2.9-1.8-4.6-1.8c-1.7,0-3.4,0.8-4.6,2L84,43.8
	c-0.4,0.4-1,0.4-1.4,0c-0.4-0.4-0.4-1,0-1.4L96.3,28c1.6-1.6,3.7-2.6,6-2.6c2.3,0,4.4,0.8,6.1,2.4c1.6,1.6,2.6,3.7,2.6,6
	c0.1,2.3-0.8,4.4-2.4,6.1L90.2,59.1c-1.3,1.3-2.9,2.1-4.8,2.1C85.4,61.2,85.3,61.2,85.3,61.2z"/>
</svg>
