<?xml version="1.0" encoding="utf-8"?>
<!-- Generator: Adobe Illustrator 22.1.0, SVG Export Plug-In . SVG Version: 6.00 Build 0)  -->
<svg version="1.1" id="teacher_apple"
	 xmlns="http://www.w3.org/2000/svg" xmlns:xlink="http://www.w3.org/1999/xlink" x="0px" y="0px" viewBox="0 0 37 43.8"
	 style="enable-background:new 0 0 37 43.8;" xml:space="preserve">
<style type="text/css">
	.red{fill:#FF634E;}
	.black{fill:#231F20;}
	.green300{fill:#5dd4a4;}
</style>
<path id="teacher_appleBase" class="red" d="M37,25.5c0,8.1-4.6,15-11.1,18c-2.3,1.1-4.8-1.4-7.4-1.4
	c-3,0-5.9,2.3-8.4,0.9C4.1,39.8,0,33.2,0,25.5c0-5.9,2.4-11.7,8.7-13.4c3.7-1,5.4,0.4,8.4,1.1c4.1,0.9,7.9-2.4,11.9-1.4
	c3.7,1,6.3,4.6,7.2,8.1C36.7,21.8,37,23.6,37,25.5z"/>
<path id="teacher_appleStem" class="black" d="M18.5,19.3c-0.2,0-0.4-0.1-0.5-0.3c0-0.1-2.8-8.7,4.5-13.2
	c0.2-0.1,0.5-0.1,0.7,0.2c0.1,0.2,0.1,0.5-0.2,0.7c-6.7,4.1-4.2,11.7-4.1,12c0.1,0.3-0.1,0.5-0.3,0.6C18.6,19.3,18.6,19.3,18.5,19.3
	z"/>
<path id="teacher_appleDetail" class="black" d="M18.7,19.4c-3.3,0-5.6-0.9-5.7-0.9c-0.3-0.1-0.4-0.4-0.3-0.6
	c0.1-0.3,0.4-0.4,0.6-0.3c0,0,5.1,1.9,10.7,0c0.3-0.1,0.5,0.1,0.6,0.3c0.1,0.3,0,0.5-0.3,0.6C22.3,19.2,20.4,19.4,18.7,19.4z"/>
<path id="teacher_appleLeaf" class="green300" d="M16.9,9.5c0,0-9.7,0.2-9-9.5C7.9,0,16.6-0.7,16.9,9.5z"/>
</svg>
